<?xml version="1.0" encoding="utf-8" standalone="no"?>
<!DOCTYPE svg PUBLIC "-//W3C//DTD SVG 1.1//EN"
  "http://www.w3.org/Graphics/SVG/1.1/DTD/svg11.dtd">
<svg xmlns:xlink="http://www.w3.org/1999/xlink" width="993.650142pt" height="659.098562pt" viewBox="0 0 993.650142 659.098562" xmlns="http://www.w3.org/2000/svg" version="1.1">
 <metadata>
  <rdf:RDF xmlns:dc="http://purl.org/dc/elements/1.1/" xmlns:cc="http://creativecommons.org/ns#" xmlns:rdf="http://www.w3.org/1999/02/22-rdf-syntax-ns#">
   <cc:Work>
    <dc:type rdf:resource="http://purl.org/dc/dcmitype/StillImage"/>
    <dc:date>2026-01-21T20:00:59.884959</dc:date>
    <dc:format>image/svg+xml</dc:format>
    <dc:creator>
     <cc:Agent>
      <dc:title>Matplotlib v3.10.8, https://matplotlib.org/</dc:title>
     </cc:Agent>
    </dc:creator>
   </cc:Work>
  </rdf:RDF>
 </metadata>
 <defs>
  <style type="text/css">*{stroke-linejoin: round; stroke-linecap: butt}</style>
 </defs>
 <g id="figure_1">
  <g id="patch_1">
   <path d="M 0 659.098562 
L 993.650142 659.098562 
L 993.650142 0 
L 0 0 
L 0 659.098562 
z
" style="fill: none"/>
  </g>
  <g id="axes_1">
   <g id="patch_2">
    <path d="M 87.05625 329.706714 
L 986.450142 329.706714 
L 986.450142 52.56274 
L 87.05625 52.56274 
L 87.05625 329.706714 
z
" style="fill: none"/>
   </g>
   <g id="matplotlib.axis_1">
    <g id="xtick_1">
     <g id="line2d_1">
      <path d="M 258.369372 329.706714 
L 258.369372 52.56274 
" clip-path="url(#p7f6f76a3b4)" style="fill: none; stroke: #ffffff; stroke-linecap: round"/>
     </g>
    </g>
    <g id="xtick_2">
     <g id="line2d_2">
      <path d="M 600.995617 329.706714 
L 600.995617 52.56274 
" clip-path="url(#p7f6f76a3b4)" style="fill: none; stroke: #ffffff; stroke-linecap: round"/>
     </g>
    </g>
   </g>
   <g id="matplotlib.axis_2">
    <g id="ytick_1">
     <g id="line2d_3">
      <path d="M 87.05625 246.131542 
L 986.450142 246.131542 
" clip-path="url(#p7f6f76a3b4)" style="fill: none; stroke: #ffffff; stroke-opacity: 0.4; stroke-width: 0.8; stroke-linecap: round"/>
     </g>
     <g id="text_1">
      <!-- $\mathdefault{10^{-1}}$ -->
      <g style="fill: #ffffff" transform="translate(30.55625 253.72998) scale(0.2 -0.2)">
       <defs>
        <path id="DejaVuSans-31" d="M 794 531 
L 1825 531 
L 1825 4091 
L 703 3866 
L 703 4441 
L 1819 4666 
L 2450 4666 
L 2450 531 
L 3481 531 
L 3481 0 
L 794 0 
L 794 531 
z
" transform="scale(0.015625)"/>
        <path id="DejaVuSans-30" d="M 2034 4250 
Q 1547 4250 1301 3770 
Q 1056 3291 1056 2328 
Q 1056 1369 1301 889 
Q 1547 409 2034 409 
Q 2525 409 2770 889 
Q 3016 1369 3016 2328 
Q 3016 3291 2770 3770 
Q 2525 4250 2034 4250 
z
M 2034 4750 
Q 2819 4750 3233 4129 
Q 3647 3509 3647 2328 
Q 3647 1150 3233 529 
Q 2819 -91 2034 -91 
Q 1250 -91 836 529 
Q 422 1150 422 2328 
Q 422 3509 836 4129 
Q 1250 4750 2034 4750 
z
" transform="scale(0.015625)"/>
        <path id="DejaVuSans-2212" d="M 678 2272 
L 4684 2272 
L 4684 1741 
L 678 1741 
L 678 2272 
z
" transform="scale(0.015625)"/>
       </defs>
       <use xlink:href="#DejaVuSans-31" transform="translate(0 0.684375)"/>
       <use xlink:href="#DejaVuSans-30" transform="translate(63.623047 0.684375)"/>
       <use xlink:href="#DejaVuSans-2212" transform="translate(128.203125 38.965625) scale(0.7)"/>
       <use xlink:href="#DejaVuSans-31" transform="translate(186.855469 38.965625) scale(0.7)"/>
      </g>
     </g>
    </g>
    <g id="ytick_2">
     <g id="line2d_4">
      <path d="M 87.05625 132.189252 
L 986.450142 132.189252 
" clip-path="url(#p7f6f76a3b4)" style="fill: none; stroke: #ffffff; stroke-opacity: 0.4; stroke-width: 0.8; stroke-linecap: round"/>
     </g>
     <g id="text_2">
      <!-- $\mathdefault{10^{0}}$ -->
      <g style="fill: #ffffff" transform="translate(42.35625 139.78769) scale(0.2 -0.2)">
       <use xlink:href="#DejaVuSans-31" transform="translate(0 0.765625)"/>
       <use xlink:href="#DejaVuSans-30" transform="translate(63.623047 0.765625)"/>
       <use xlink:href="#DejaVuSans-30" transform="translate(128.203125 39.046875) scale(0.7)"/>
      </g>
     </g>
    </g>
    <g id="ytick_3">
     <g id="line2d_5">
      <path d="M 87.05625 325.773785 
L 986.450142 325.773785 
" clip-path="url(#p7f6f76a3b4)" style="fill: none; stroke-dasharray: 0.5,0.825; stroke-dashoffset: 0; stroke: #ffffff; stroke-opacity: 0.2; stroke-width: 0.5"/>
     </g>
    </g>
    <g id="ytick_4">
     <g id="line2d_6">
      <path d="M 87.05625 305.709543 
L 986.450142 305.709543 
" clip-path="url(#p7f6f76a3b4)" style="fill: none; stroke-dasharray: 0.5,0.825; stroke-dashoffset: 0; stroke: #ffffff; stroke-opacity: 0.2; stroke-width: 0.5"/>
     </g>
    </g>
    <g id="ytick_5">
     <g id="line2d_7">
      <path d="M 87.05625 291.473738 
L 986.450142 291.473738 
" clip-path="url(#p7f6f76a3b4)" style="fill: none; stroke-dasharray: 0.5,0.825; stroke-dashoffset: 0; stroke: #ffffff; stroke-opacity: 0.2; stroke-width: 0.5"/>
     </g>
    </g>
    <g id="ytick_6">
     <g id="line2d_8">
      <path d="M 87.05625 280.431589 
L 986.450142 280.431589 
" clip-path="url(#p7f6f76a3b4)" style="fill: none; stroke-dasharray: 0.5,0.825; stroke-dashoffset: 0; stroke: #ffffff; stroke-opacity: 0.2; stroke-width: 0.5"/>
     </g>
    </g>
    <g id="ytick_7">
     <g id="line2d_9">
      <path d="M 87.05625 271.409497 
L 986.450142 271.409497 
" clip-path="url(#p7f6f76a3b4)" style="fill: none; stroke-dasharray: 0.5,0.825; stroke-dashoffset: 0; stroke: #ffffff; stroke-opacity: 0.2; stroke-width: 0.5"/>
     </g>
    </g>
    <g id="ytick_8">
     <g id="line2d_10">
      <path d="M 87.05625 263.781426 
L 986.450142 263.781426 
" clip-path="url(#p7f6f76a3b4)" style="fill: none; stroke-dasharray: 0.5,0.825; stroke-dashoffset: 0; stroke: #ffffff; stroke-opacity: 0.2; stroke-width: 0.5"/>
     </g>
    </g>
    <g id="ytick_9">
     <g id="line2d_11">
      <path d="M 87.05625 257.173691 
L 986.450142 257.173691 
" clip-path="url(#p7f6f76a3b4)" style="fill: none; stroke-dasharray: 0.5,0.825; stroke-dashoffset: 0; stroke: #ffffff; stroke-opacity: 0.2; stroke-width: 0.5"/>
     </g>
    </g>
    <g id="ytick_10">
     <g id="line2d_12">
      <path d="M 87.05625 251.345255 
L 986.450142 251.345255 
" clip-path="url(#p7f6f76a3b4)" style="fill: none; stroke-dasharray: 0.5,0.825; stroke-dashoffset: 0; stroke: #ffffff; stroke-opacity: 0.2; stroke-width: 0.5"/>
     </g>
    </g>
    <g id="ytick_11">
     <g id="line2d_13">
      <path d="M 87.05625 211.831495 
L 986.450142 211.831495 
" clip-path="url(#p7f6f76a3b4)" style="fill: none; stroke-dasharray: 0.5,0.825; stroke-dashoffset: 0; stroke: #ffffff; stroke-opacity: 0.2; stroke-width: 0.5"/>
     </g>
    </g>
    <g id="ytick_12">
     <g id="line2d_14">
      <path d="M 87.05625 191.767254 
L 986.450142 191.767254 
" clip-path="url(#p7f6f76a3b4)" style="fill: none; stroke-dasharray: 0.5,0.825; stroke-dashoffset: 0; stroke: #ffffff; stroke-opacity: 0.2; stroke-width: 0.5"/>
     </g>
    </g>
    <g id="ytick_13">
     <g id="line2d_15">
      <path d="M 87.05625 177.531448 
L 986.450142 177.531448 
" clip-path="url(#p7f6f76a3b4)" style="fill: none; stroke-dasharray: 0.5,0.825; stroke-dashoffset: 0; stroke: #ffffff; stroke-opacity: 0.2; stroke-width: 0.5"/>
     </g>
    </g>
    <g id="ytick_14">
     <g id="line2d_16">
      <path d="M 87.05625 166.489299 
L 986.450142 166.489299 
" clip-path="url(#p7f6f76a3b4)" style="fill: none; stroke-dasharray: 0.5,0.825; stroke-dashoffset: 0; stroke: #ffffff; stroke-opacity: 0.2; stroke-width: 0.5"/>
     </g>
    </g>
    <g id="ytick_15">
     <g id="line2d_17">
      <path d="M 87.05625 157.467207 
L 986.450142 157.467207 
" clip-path="url(#p7f6f76a3b4)" style="fill: none; stroke-dasharray: 0.5,0.825; stroke-dashoffset: 0; stroke: #ffffff; stroke-opacity: 0.2; stroke-width: 0.5"/>
     </g>
    </g>
    <g id="ytick_16">
     <g id="line2d_18">
      <path d="M 87.05625 149.839136 
L 986.450142 149.839136 
" clip-path="url(#p7f6f76a3b4)" style="fill: none; stroke-dasharray: 0.5,0.825; stroke-dashoffset: 0; stroke: #ffffff; stroke-opacity: 0.2; stroke-width: 0.5"/>
     </g>
    </g>
    <g id="ytick_17">
     <g id="line2d_19">
      <path d="M 87.05625 143.231401 
L 986.450142 143.231401 
" clip-path="url(#p7f6f76a3b4)" style="fill: none; stroke-dasharray: 0.5,0.825; stroke-dashoffset: 0; stroke: #ffffff; stroke-opacity: 0.2; stroke-width: 0.5"/>
     </g>
    </g>
    <g id="ytick_18">
     <g id="line2d_20">
      <path d="M 87.05625 137.402966 
L 986.450142 137.402966 
" clip-path="url(#p7f6f76a3b4)" style="fill: none; stroke-dasharray: 0.5,0.825; stroke-dashoffset: 0; stroke: #ffffff; stroke-opacity: 0.2; stroke-width: 0.5"/>
     </g>
    </g>
    <g id="ytick_19">
     <g id="line2d_21">
      <path d="M 87.05625 97.889206 
L 986.450142 97.889206 
" clip-path="url(#p7f6f76a3b4)" style="fill: none; stroke-dasharray: 0.5,0.825; stroke-dashoffset: 0; stroke: #ffffff; stroke-opacity: 0.2; stroke-width: 0.5"/>
     </g>
    </g>
    <g id="ytick_20">
     <g id="line2d_22">
      <path d="M 87.05625 77.824964 
L 986.450142 77.824964 
" clip-path="url(#p7f6f76a3b4)" style="fill: none; stroke-dasharray: 0.5,0.825; stroke-dashoffset: 0; stroke: #ffffff; stroke-opacity: 0.2; stroke-width: 0.5"/>
     </g>
    </g>
    <g id="ytick_21">
     <g id="line2d_23">
      <path d="M 87.05625 63.589159 
L 986.450142 63.589159 
" clip-path="url(#p7f6f76a3b4)" style="fill: none; stroke-dasharray: 0.5,0.825; stroke-dashoffset: 0; stroke: #ffffff; stroke-opacity: 0.2; stroke-width: 0.5"/>
     </g>
    </g>
    <g id="text_3">
     <!-- Cartpole -->
     <g style="fill: #ffffff" transform="translate(22.396875 239.172227) rotate(-90) scale(0.2 -0.2)">
      <defs>
       <path id="DejaVuSans-Bold-43" d="M 4288 256 
Q 3956 84 3597 -3 
Q 3238 -91 2847 -91 
Q 1681 -91 1000 561 
Q 319 1213 319 2328 
Q 319 3447 1000 4098 
Q 1681 4750 2847 4750 
Q 3238 4750 3597 4662 
Q 3956 4575 4288 4403 
L 4288 3438 
Q 3953 3666 3628 3772 
Q 3303 3878 2944 3878 
Q 2300 3878 1931 3465 
Q 1563 3053 1563 2328 
Q 1563 1606 1931 1193 
Q 2300 781 2944 781 
Q 3303 781 3628 887 
Q 3953 994 4288 1222 
L 4288 256 
z
" transform="scale(0.015625)"/>
       <path id="DejaVuSans-Bold-61" d="M 2106 1575 
Q 1756 1575 1579 1456 
Q 1403 1338 1403 1106 
Q 1403 894 1545 773 
Q 1688 653 1941 653 
Q 2256 653 2472 879 
Q 2688 1106 2688 1447 
L 2688 1575 
L 2106 1575 
z
M 3816 1997 
L 3816 0 
L 2688 0 
L 2688 519 
Q 2463 200 2181 54 
Q 1900 -91 1497 -91 
Q 953 -91 614 226 
Q 275 544 275 1050 
Q 275 1666 698 1953 
Q 1122 2241 2028 2241 
L 2688 2241 
L 2688 2328 
Q 2688 2594 2478 2717 
Q 2269 2841 1825 2841 
Q 1466 2841 1156 2769 
Q 847 2697 581 2553 
L 581 3406 
Q 941 3494 1303 3539 
Q 1666 3584 2028 3584 
Q 2975 3584 3395 3211 
Q 3816 2838 3816 1997 
z
" transform="scale(0.015625)"/>
       <path id="DejaVuSans-Bold-72" d="M 3138 2547 
Q 2991 2616 2845 2648 
Q 2700 2681 2553 2681 
Q 2122 2681 1889 2404 
Q 1656 2128 1656 1613 
L 1656 0 
L 538 0 
L 538 3500 
L 1656 3500 
L 1656 2925 
Q 1872 3269 2151 3426 
Q 2431 3584 2822 3584 
Q 2878 3584 2943 3579 
Q 3009 3575 3134 3559 
L 3138 2547 
z
" transform="scale(0.015625)"/>
       <path id="DejaVuSans-Bold-74" d="M 1759 4494 
L 1759 3500 
L 2913 3500 
L 2913 2700 
L 1759 2700 
L 1759 1216 
Q 1759 972 1856 886 
Q 1953 800 2241 800 
L 2816 800 
L 2816 0 
L 1856 0 
Q 1194 0 917 276 
Q 641 553 641 1216 
L 641 2700 
L 84 2700 
L 84 3500 
L 641 3500 
L 641 4494 
L 1759 4494 
z
" transform="scale(0.015625)"/>
       <path id="DejaVuSans-Bold-70" d="M 1656 506 
L 1656 -1331 
L 538 -1331 
L 538 3500 
L 1656 3500 
L 1656 2988 
Q 1888 3294 2169 3439 
Q 2450 3584 2816 3584 
Q 3463 3584 3878 3070 
Q 4294 2556 4294 1747 
Q 4294 938 3878 423 
Q 3463 -91 2816 -91 
Q 2450 -91 2169 54 
Q 1888 200 1656 506 
z
M 2400 2772 
Q 2041 2772 1848 2508 
Q 1656 2244 1656 1747 
Q 1656 1250 1848 986 
Q 2041 722 2400 722 
Q 2759 722 2948 984 
Q 3138 1247 3138 1747 
Q 3138 2247 2948 2509 
Q 2759 2772 2400 2772 
z
" transform="scale(0.015625)"/>
       <path id="DejaVuSans-Bold-6f" d="M 2203 2784 
Q 1831 2784 1636 2517 
Q 1441 2250 1441 1747 
Q 1441 1244 1636 976 
Q 1831 709 2203 709 
Q 2569 709 2762 976 
Q 2956 1244 2956 1747 
Q 2956 2250 2762 2517 
Q 2569 2784 2203 2784 
z
M 2203 3584 
Q 3106 3584 3614 3096 
Q 4122 2609 4122 1747 
Q 4122 884 3614 396 
Q 3106 -91 2203 -91 
Q 1297 -91 786 396 
Q 275 884 275 1747 
Q 275 2609 786 3096 
Q 1297 3584 2203 3584 
z
" transform="scale(0.015625)"/>
       <path id="DejaVuSans-Bold-6c" d="M 538 4863 
L 1656 4863 
L 1656 0 
L 538 0 
L 538 4863 
z
" transform="scale(0.015625)"/>
       <path id="DejaVuSans-Bold-65" d="M 4031 1759 
L 4031 1441 
L 1416 1441 
Q 1456 1047 1700 850 
Q 1944 653 2381 653 
Q 2734 653 3104 758 
Q 3475 863 3866 1075 
L 3866 213 
Q 3469 63 3072 -14 
Q 2675 -91 2278 -91 
Q 1328 -91 801 392 
Q 275 875 275 1747 
Q 275 2603 792 3093 
Q 1309 3584 2216 3584 
Q 3041 3584 3536 3087 
Q 4031 2591 4031 1759 
z
M 2881 2131 
Q 2881 2450 2695 2645 
Q 2509 2841 2209 2841 
Q 1884 2841 1681 2658 
Q 1478 2475 1428 2131 
L 2881 2131 
z
" transform="scale(0.015625)"/>
      </defs>
      <use xlink:href="#DejaVuSans-Bold-43"/>
      <use xlink:href="#DejaVuSans-Bold-61" transform="translate(73.388672 0)"/>
      <use xlink:href="#DejaVuSans-Bold-72" transform="translate(140.869141 0)"/>
      <use xlink:href="#DejaVuSans-Bold-74" transform="translate(190.185547 0)"/>
      <use xlink:href="#DejaVuSans-Bold-70" transform="translate(237.988281 0)"/>
      <use xlink:href="#DejaVuSans-Bold-6f" transform="translate(309.570312 0)"/>
      <use xlink:href="#DejaVuSans-Bold-6c" transform="translate(378.271484 0)"/>
      <use xlink:href="#DejaVuSans-Bold-65" transform="translate(412.548828 0)"/>
     </g>
    </g>
   </g>
   <g id="patch_3">
    <path d="M 144.874429 208.006687 
L 200.551194 208.006687 
L 200.551194 122.661127 
L 144.874429 122.661127 
L 144.874429 208.006687 
z
" clip-path="url(#p7f6f76a3b4)" style="fill: #c9d5e7; opacity: 0.75; stroke: #2c3e50; stroke-width: 1.2; stroke-linejoin: miter"/>
   </g>
   <g id="line2d_24">
    <path d="M 172.712811 208.006687 
L 172.712811 317.109261 
" clip-path="url(#p7f6f76a3b4)" style="fill: none; stroke: #ffffff; stroke-width: 1.5; stroke-linecap: round"/>
   </g>
   <g id="line2d_25">
    <path d="M 172.712811 122.661127 
L 172.712811 97.486258 
" clip-path="url(#p7f6f76a3b4)" style="fill: none; stroke: #ffffff; stroke-width: 1.5; stroke-linecap: round"/>
   </g>
   <g id="line2d_26">
    <path d="M 158.79362 317.109261 
L 186.632002 317.109261 
" clip-path="url(#p7f6f76a3b4)" style="fill: none; stroke: #ffffff; stroke-width: 1.5; stroke-linecap: round"/>
   </g>
   <g id="line2d_27">
    <path d="M 158.79362 97.486258 
L 186.632002 97.486258 
" clip-path="url(#p7f6f76a3b4)" style="fill: none; stroke: #ffffff; stroke-width: 1.5; stroke-linecap: round"/>
   </g>
   <g id="line2d_28"/>
   <g id="patch_4">
    <path d="M 230.53099 135.973006 
L 286.207755 135.973006 
L 286.207755 86.745211 
L 230.53099 86.745211 
L 230.53099 135.973006 
z
" clip-path="url(#p7f6f76a3b4)" style="fill: #8ba3cc; opacity: 0.75; stroke: #2c3e50; stroke-width: 1.2; stroke-linejoin: miter"/>
   </g>
   <g id="line2d_29">
    <path d="M 258.369372 135.973006 
L 258.369372 148.618959 
" clip-path="url(#p7f6f76a3b4)" style="fill: none; stroke: #ffffff; stroke-width: 1.5; stroke-linecap: round"/>
   </g>
   <g id="line2d_30">
    <path d="M 258.369372 86.745211 
L 258.369372 65.160194 
" clip-path="url(#p7f6f76a3b4)" style="fill: none; stroke: #ffffff; stroke-width: 1.5; stroke-linecap: round"/>
   </g>
   <g id="line2d_31">
    <path d="M 244.450181 148.618959 
L 272.288564 148.618959 
" clip-path="url(#p7f6f76a3b4)" style="fill: none; stroke: #ffffff; stroke-width: 1.5; stroke-linecap: round"/>
   </g>
   <g id="line2d_32">
    <path d="M 244.450181 65.160194 
L 272.288564 65.160194 
" clip-path="url(#p7f6f76a3b4)" style="fill: none; stroke: #ffffff; stroke-width: 1.5; stroke-linecap: round"/>
   </g>
   <g id="line2d_33"/>
   <g id="line2d_34">
    <path d="M 144.874429 176.513184 
L 200.551194 176.513184 
" clip-path="url(#p7f6f76a3b4)" style="fill: none; stroke: #ffffff; stroke-width: 2.5"/>
   </g>
   <g id="line2d_35">
    <defs>
     <path id="m341f79c576" d="M -0 4.242641 
L 4.242641 0 
L 0 -4.242641 
L -4.242641 -0 
z
" style="stroke: #ffffff; stroke-linejoin: miter"/>
    </defs>
    <g clip-path="url(#p7f6f76a3b4)">
     <use xlink:href="#m341f79c576" x="172.712811" y="142.241458" style="fill: #2c3e50; stroke: #ffffff; stroke-linejoin: miter"/>
    </g>
   </g>
   <g id="line2d_36">
    <path d="M 230.53099 125.90988 
L 286.207755 125.90988 
" clip-path="url(#p7f6f76a3b4)" style="fill: none; stroke: #ffffff; stroke-width: 2.5"/>
   </g>
   <g id="line2d_37">
    <g clip-path="url(#p7f6f76a3b4)">
     <use xlink:href="#m341f79c576" x="258.369372" y="100.186875" style="fill: #2c3e50; stroke: #ffffff; stroke-linejoin: miter"/>
    </g>
   </g>
   <g id="patch_5">
    <path d="M 87.05625 329.706714 
L 87.05625 52.56274 
" style="fill: none; stroke: #ffffff; stroke-width: 1.25; stroke-linejoin: miter; stroke-linecap: square"/>
   </g>
   <g id="patch_6">
    <path d="M 986.450142 329.706714 
L 986.450142 52.56274 
" style="fill: none; stroke: #ffffff; stroke-width: 1.25; stroke-linejoin: miter; stroke-linecap: square"/>
   </g>
   <g id="patch_7">
    <path d="M 87.05625 329.706714 
L 986.450142 329.706714 
" style="fill: none; stroke: #ffffff; stroke-width: 1.25; stroke-linejoin: miter; stroke-linecap: square"/>
   </g>
   <g id="patch_8">
    <path d="M 87.05625 52.56274 
L 986.450142 52.56274 
" style="fill: none; stroke: #ffffff; stroke-width: 1.25; stroke-linejoin: miter; stroke-linecap: square"/>
   </g>
   <g id="text_4">
    <g id="patch_9">
     <path d="M 903.662264 321.078075 
L 968.462264 321.078075 
Q 976.462264 321.078075 976.462264 313.078075 
L 976.462264 297.593075 
Q 976.462264 289.593075 968.462264 289.593075 
L 903.662264 289.593075 
Q 895.662264 289.593075 895.662264 297.593075 
L 895.662264 313.078075 
Q 895.662264 321.078075 903.662264 321.078075 
z
" style="fill: #2c3e50; opacity: 0.95; stroke: #7f8c8d; stroke-width: 1.5; stroke-linejoin: miter"/>
    </g>
    <!-- $n_{max}=5$ -->
    <g style="fill: #ffffff" transform="translate(903.662264 309.750575) scale(0.16 -0.16)">
     <defs>
      <path id="DejaVuSans-Oblique-6e" d="M 3566 2113 
L 3156 0 
L 2578 0 
L 2988 2091 
Q 3016 2238 3031 2350 
Q 3047 2463 3047 2528 
Q 3047 2791 2881 2937 
Q 2716 3084 2419 3084 
Q 1956 3084 1622 2776 
Q 1288 2469 1184 1941 
L 800 0 
L 225 0 
L 903 3500 
L 1478 3500 
L 1363 2950 
Q 1603 3253 1940 3418 
Q 2278 3584 2650 3584 
Q 3113 3584 3367 3334 
Q 3622 3084 3622 2631 
Q 3622 2519 3608 2391 
Q 3594 2263 3566 2113 
z
" transform="scale(0.015625)"/>
      <path id="DejaVuSans-Oblique-6d" d="M 5747 2113 
L 5338 0 
L 4763 0 
L 5166 2094 
Q 5191 2228 5203 2325 
Q 5216 2422 5216 2491 
Q 5216 2772 5059 2928 
Q 4903 3084 4622 3084 
Q 4203 3084 3875 2770 
Q 3547 2456 3450 1953 
L 3066 0 
L 2491 0 
L 2900 2094 
Q 2925 2209 2937 2307 
Q 2950 2406 2950 2484 
Q 2950 2769 2794 2926 
Q 2638 3084 2363 3084 
Q 1938 3084 1609 2770 
Q 1281 2456 1184 1953 
L 800 0 
L 225 0 
L 909 3500 
L 1484 3500 
L 1375 2956 
Q 1609 3263 1923 3423 
Q 2238 3584 2597 3584 
Q 2978 3584 3223 3384 
Q 3469 3184 3519 2828 
Q 3781 3197 4126 3390 
Q 4472 3584 4856 3584 
Q 5306 3584 5551 3325 
Q 5797 3066 5797 2591 
Q 5797 2488 5784 2364 
Q 5772 2241 5747 2113 
z
" transform="scale(0.015625)"/>
      <path id="DejaVuSans-Oblique-61" d="M 3438 1997 
L 3047 0 
L 2472 0 
L 2578 531 
Q 2325 219 2001 64 
Q 1678 -91 1281 -91 
Q 834 -91 548 182 
Q 263 456 263 884 
Q 263 1497 752 1853 
Q 1241 2209 2100 2209 
L 2900 2209 
L 2931 2363 
Q 2938 2388 2941 2417 
Q 2944 2447 2944 2509 
Q 2944 2788 2717 2942 
Q 2491 3097 2081 3097 
Q 1800 3097 1504 3025 
Q 1209 2953 897 2809 
L 997 3341 
Q 1322 3463 1633 3523 
Q 1944 3584 2234 3584 
Q 2853 3584 3176 3315 
Q 3500 3047 3500 2534 
Q 3500 2431 3484 2292 
Q 3469 2153 3438 1997 
z
M 2816 1759 
L 2241 1759 
Q 1534 1759 1195 1570 
Q 856 1381 856 984 
Q 856 709 1029 553 
Q 1203 397 1509 397 
Q 1978 397 2328 733 
Q 2678 1069 2791 1631 
L 2816 1759 
z
" transform="scale(0.015625)"/>
      <path id="DejaVuSans-Oblique-78" d="M 3841 3500 
L 2234 1784 
L 3219 0 
L 2559 0 
L 1819 1388 
L 531 0 
L -166 0 
L 1556 1844 
L 641 3500 
L 1300 3500 
L 1972 2234 
L 3144 3500 
L 3841 3500 
z
" transform="scale(0.015625)"/>
      <path id="DejaVuSans-3d" d="M 678 2906 
L 4684 2906 
L 4684 2381 
L 678 2381 
L 678 2906 
z
M 678 1631 
L 4684 1631 
L 4684 1100 
L 678 1100 
L 678 1631 
z
" transform="scale(0.015625)"/>
      <path id="DejaVuSans-35" d="M 691 4666 
L 3169 4666 
L 3169 4134 
L 1269 4134 
L 1269 2991 
Q 1406 3038 1543 3061 
Q 1681 3084 1819 3084 
Q 2600 3084 3056 2656 
Q 3513 2228 3513 1497 
Q 3513 744 3044 326 
Q 2575 -91 1722 -91 
Q 1428 -91 1123 -41 
Q 819 9 494 109 
L 494 744 
Q 775 591 1075 516 
Q 1375 441 1709 441 
Q 2250 441 2565 725 
Q 2881 1009 2881 1497 
Q 2881 1984 2565 2268 
Q 2250 2553 1709 2553 
Q 1456 2553 1204 2497 
Q 953 2441 691 2322 
L 691 4666 
z
" transform="scale(0.015625)"/>
     </defs>
     <use xlink:href="#DejaVuSans-Oblique-6e" transform="translate(0 0.09375)"/>
     <use xlink:href="#DejaVuSans-Oblique-6d" transform="translate(63.378906 -16.3125) scale(0.7)"/>
     <use xlink:href="#DejaVuSans-Oblique-61" transform="translate(131.567383 -16.3125) scale(0.7)"/>
     <use xlink:href="#DejaVuSans-Oblique-78" transform="translate(174.462891 -16.3125) scale(0.7)"/>
     <use xlink:href="#DejaVuSans-3d" transform="translate(238.105469 0.09375)"/>
     <use xlink:href="#DejaVuSans-35" transform="translate(341.376953 0.09375)"/>
    </g>
   </g>
   <g id="legend_1">
    <g id="patch_10">
     <path d="M 835.565142 137.81774 
L 977.250142 137.81774 
Q 980.450142 137.81774 980.450142 134.61774 
L 980.450142 65.76274 
Q 980.450142 62.56274 977.250142 62.56274 
L 835.565142 62.56274 
Q 832.365142 62.56274 832.365142 65.76274 
L 832.365142 134.61774 
Q 832.365142 137.81774 835.565142 137.81774 
z
" style="opacity: 0.5; stroke: #000000; stroke-linejoin: miter"/>
    </g>
    <g id="patch_11">
     <path d="M 833.565142 135.81774 
L 975.250142 135.81774 
Q 978.450142 135.81774 978.450142 132.61774 
L 978.450142 63.76274 
Q 978.450142 60.56274 975.250142 60.56274 
L 833.565142 60.56274 
Q 830.365142 60.56274 830.365142 63.76274 
L 830.365142 132.61774 
Q 830.365142 135.81774 833.565142 135.81774 
z
" style="opacity: 0.95; stroke: #cccccc; stroke-linejoin: miter"/>
    </g>
    <g id="patch_12">
     <path d="M 836.765142 79.12024 
L 868.765142 79.12024 
L 868.765142 67.92024 
L 836.765142 67.92024 
z
" style="fill: #d1d1d1; opacity: 0.8; stroke: #000000; stroke-width: 0.5; stroke-linejoin: miter"/>
    </g>
    <g id="text_5">
     <!-- Noise: 0.0 -->
     <g style="fill: #ffffff" transform="translate(881.565142 79.12024) scale(0.16 -0.16)">
      <defs>
       <path id="DejaVuSans-4e" d="M 628 4666 
L 1478 4666 
L 3547 763 
L 3547 4666 
L 4159 4666 
L 4159 0 
L 3309 0 
L 1241 3903 
L 1241 0 
L 628 0 
L 628 4666 
z
" transform="scale(0.015625)"/>
       <path id="DejaVuSans-6f" d="M 1959 3097 
Q 1497 3097 1228 2736 
Q 959 2375 959 1747 
Q 959 1119 1226 758 
Q 1494 397 1959 397 
Q 2419 397 2687 759 
Q 2956 1122 2956 1747 
Q 2956 2369 2687 2733 
Q 2419 3097 1959 3097 
z
M 1959 3584 
Q 2709 3584 3137 3096 
Q 3566 2609 3566 1747 
Q 3566 888 3137 398 
Q 2709 -91 1959 -91 
Q 1206 -91 779 398 
Q 353 888 353 1747 
Q 353 2609 779 3096 
Q 1206 3584 1959 3584 
z
" transform="scale(0.015625)"/>
       <path id="DejaVuSans-69" d="M 603 3500 
L 1178 3500 
L 1178 0 
L 603 0 
L 603 3500 
z
M 603 4863 
L 1178 4863 
L 1178 4134 
L 603 4134 
L 603 4863 
z
" transform="scale(0.015625)"/>
       <path id="DejaVuSans-73" d="M 2834 3397 
L 2834 2853 
Q 2591 2978 2328 3040 
Q 2066 3103 1784 3103 
Q 1356 3103 1142 2972 
Q 928 2841 928 2578 
Q 928 2378 1081 2264 
Q 1234 2150 1697 2047 
L 1894 2003 
Q 2506 1872 2764 1633 
Q 3022 1394 3022 966 
Q 3022 478 2636 193 
Q 2250 -91 1575 -91 
Q 1294 -91 989 -36 
Q 684 19 347 128 
L 347 722 
Q 666 556 975 473 
Q 1284 391 1588 391 
Q 1994 391 2212 530 
Q 2431 669 2431 922 
Q 2431 1156 2273 1281 
Q 2116 1406 1581 1522 
L 1381 1569 
Q 847 1681 609 1914 
Q 372 2147 372 2553 
Q 372 3047 722 3315 
Q 1072 3584 1716 3584 
Q 2034 3584 2315 3537 
Q 2597 3491 2834 3397 
z
" transform="scale(0.015625)"/>
       <path id="DejaVuSans-65" d="M 3597 1894 
L 3597 1613 
L 953 1613 
Q 991 1019 1311 708 
Q 1631 397 2203 397 
Q 2534 397 2845 478 
Q 3156 559 3463 722 
L 3463 178 
Q 3153 47 2828 -22 
Q 2503 -91 2169 -91 
Q 1331 -91 842 396 
Q 353 884 353 1716 
Q 353 2575 817 3079 
Q 1281 3584 2069 3584 
Q 2775 3584 3186 3129 
Q 3597 2675 3597 1894 
z
M 3022 2063 
Q 3016 2534 2758 2815 
Q 2500 3097 2075 3097 
Q 1594 3097 1305 2825 
Q 1016 2553 972 2059 
L 3022 2063 
z
" transform="scale(0.015625)"/>
       <path id="DejaVuSans-3a" d="M 750 794 
L 1409 794 
L 1409 0 
L 750 0 
L 750 794 
z
M 750 3309 
L 1409 3309 
L 1409 2516 
L 750 2516 
L 750 3309 
z
" transform="scale(0.015625)"/>
       <path id="DejaVuSans-20" transform="scale(0.015625)"/>
       <path id="DejaVuSans-2e" d="M 684 794 
L 1344 794 
L 1344 0 
L 684 0 
L 684 794 
z
" transform="scale(0.015625)"/>
      </defs>
      <use xlink:href="#DejaVuSans-4e"/>
      <use xlink:href="#DejaVuSans-6f" transform="translate(74.804688 0)"/>
      <use xlink:href="#DejaVuSans-69" transform="translate(135.986328 0)"/>
      <use xlink:href="#DejaVuSans-73" transform="translate(163.769531 0)"/>
      <use xlink:href="#DejaVuSans-65" transform="translate(215.869141 0)"/>
      <use xlink:href="#DejaVuSans-3a" transform="translate(277.392578 0)"/>
      <use xlink:href="#DejaVuSans-20" transform="translate(311.083984 0)"/>
      <use xlink:href="#DejaVuSans-30" transform="translate(342.871094 0)"/>
      <use xlink:href="#DejaVuSans-2e" transform="translate(406.494141 0)"/>
      <use xlink:href="#DejaVuSans-30" transform="translate(438.28125 0)"/>
     </g>
    </g>
    <g id="patch_13">
     <path d="M 836.765142 102.60524 
L 868.765142 102.60524 
L 868.765142 91.40524 
L 836.765142 91.40524 
z
" style="fill: #9c9c9c; opacity: 0.8; stroke: #000000; stroke-width: 0.5; stroke-linejoin: miter"/>
    </g>
    <g id="text_6">
     <!-- Noise: 0.01 -->
     <g style="fill: #ffffff" transform="translate(881.565142 102.60524) scale(0.16 -0.16)">
      <use xlink:href="#DejaVuSans-4e"/>
      <use xlink:href="#DejaVuSans-6f" transform="translate(74.804688 0)"/>
      <use xlink:href="#DejaVuSans-69" transform="translate(135.986328 0)"/>
      <use xlink:href="#DejaVuSans-73" transform="translate(163.769531 0)"/>
      <use xlink:href="#DejaVuSans-65" transform="translate(215.869141 0)"/>
      <use xlink:href="#DejaVuSans-3a" transform="translate(277.392578 0)"/>
      <use xlink:href="#DejaVuSans-20" transform="translate(311.083984 0)"/>
      <use xlink:href="#DejaVuSans-30" transform="translate(342.871094 0)"/>
      <use xlink:href="#DejaVuSans-2e" transform="translate(406.494141 0)"/>
      <use xlink:href="#DejaVuSans-30" transform="translate(438.28125 0)"/>
      <use xlink:href="#DejaVuSans-31" transform="translate(501.904297 0)"/>
     </g>
    </g>
    <g id="patch_14">
     <path d="M 836.765142 126.09024 
L 868.765142 126.09024 
L 868.765142 114.89024 
L 836.765142 114.89024 
z
" style="fill: #666666; opacity: 0.8; stroke: #000000; stroke-width: 0.5; stroke-linejoin: miter"/>
    </g>
    <g id="text_7">
     <!-- Noise: 0.1 -->
     <g style="fill: #ffffff" transform="translate(881.565142 126.09024) scale(0.16 -0.16)">
      <use xlink:href="#DejaVuSans-4e"/>
      <use xlink:href="#DejaVuSans-6f" transform="translate(74.804688 0)"/>
      <use xlink:href="#DejaVuSans-69" transform="translate(135.986328 0)"/>
      <use xlink:href="#DejaVuSans-73" transform="translate(163.769531 0)"/>
      <use xlink:href="#DejaVuSans-65" transform="translate(215.869141 0)"/>
      <use xlink:href="#DejaVuSans-3a" transform="translate(277.392578 0)"/>
      <use xlink:href="#DejaVuSans-20" transform="translate(311.083984 0)"/>
      <use xlink:href="#DejaVuSans-30" transform="translate(342.871094 0)"/>
      <use xlink:href="#DejaVuSans-2e" transform="translate(406.494141 0)"/>
      <use xlink:href="#DejaVuSans-31" transform="translate(438.28125 0)"/>
     </g>
    </g>
   </g>
  </g>
  <g id="axes_2">
   <g id="patch_15">
    <path d="M 87.05625 621.106687 
L 986.450142 621.106687 
L 986.450142 343.962714 
L 87.05625 343.962714 
L 87.05625 621.106687 
z
" style="fill: none"/>
   </g>
   <g id="matplotlib.axis_3">
    <g id="xtick_3">
     <g id="line2d_38">
      <path d="M 258.369372 621.106687 
L 258.369372 343.962714 
" clip-path="url(#p063f92b036)" style="fill: none; stroke: #ffffff; stroke-linecap: round"/>
     </g>
     <g id="text_8">
      <!-- UNI-SINDy (new) -->
      <g style="fill: #ffffff" transform="translate(166.622497 647.32325) scale(0.22 -0.22)">
       <defs>
        <path id="DejaVuSans-55" d="M 556 4666 
L 1191 4666 
L 1191 1831 
Q 1191 1081 1462 751 
Q 1734 422 2344 422 
Q 2950 422 3222 751 
Q 3494 1081 3494 1831 
L 3494 4666 
L 4128 4666 
L 4128 1753 
Q 4128 841 3676 375 
Q 3225 -91 2344 -91 
Q 1459 -91 1007 375 
Q 556 841 556 1753 
L 556 4666 
z
" transform="scale(0.015625)"/>
        <path id="DejaVuSans-49" d="M 628 4666 
L 1259 4666 
L 1259 0 
L 628 0 
L 628 4666 
z
" transform="scale(0.015625)"/>
        <path id="DejaVuSans-2d" d="M 313 2009 
L 1997 2009 
L 1997 1497 
L 313 1497 
L 313 2009 
z
" transform="scale(0.015625)"/>
        <path id="DejaVuSans-53" d="M 3425 4513 
L 3425 3897 
Q 3066 4069 2747 4153 
Q 2428 4238 2131 4238 
Q 1616 4238 1336 4038 
Q 1056 3838 1056 3469 
Q 1056 3159 1242 3001 
Q 1428 2844 1947 2747 
L 2328 2669 
Q 3034 2534 3370 2195 
Q 3706 1856 3706 1288 
Q 3706 609 3251 259 
Q 2797 -91 1919 -91 
Q 1588 -91 1214 -16 
Q 841 59 441 206 
L 441 856 
Q 825 641 1194 531 
Q 1563 422 1919 422 
Q 2459 422 2753 634 
Q 3047 847 3047 1241 
Q 3047 1584 2836 1778 
Q 2625 1972 2144 2069 
L 1759 2144 
Q 1053 2284 737 2584 
Q 422 2884 422 3419 
Q 422 4038 858 4394 
Q 1294 4750 2059 4750 
Q 2388 4750 2728 4690 
Q 3069 4631 3425 4513 
z
" transform="scale(0.015625)"/>
        <path id="DejaVuSans-44" d="M 1259 4147 
L 1259 519 
L 2022 519 
Q 2988 519 3436 956 
Q 3884 1394 3884 2338 
Q 3884 3275 3436 3711 
Q 2988 4147 2022 4147 
L 1259 4147 
z
M 628 4666 
L 1925 4666 
Q 3281 4666 3915 4102 
Q 4550 3538 4550 2338 
Q 4550 1131 3912 565 
Q 3275 0 1925 0 
L 628 0 
L 628 4666 
z
" transform="scale(0.015625)"/>
        <path id="DejaVuSans-79" d="M 2059 -325 
Q 1816 -950 1584 -1140 
Q 1353 -1331 966 -1331 
L 506 -1331 
L 506 -850 
L 844 -850 
Q 1081 -850 1212 -737 
Q 1344 -625 1503 -206 
L 1606 56 
L 191 3500 
L 800 3500 
L 1894 763 
L 2988 3500 
L 3597 3500 
L 2059 -325 
z
" transform="scale(0.015625)"/>
        <path id="DejaVuSans-28" d="M 1984 4856 
Q 1566 4138 1362 3434 
Q 1159 2731 1159 2009 
Q 1159 1288 1364 580 
Q 1569 -128 1984 -844 
L 1484 -844 
Q 1016 -109 783 600 
Q 550 1309 550 2009 
Q 550 2706 781 3412 
Q 1013 4119 1484 4856 
L 1984 4856 
z
" transform="scale(0.015625)"/>
        <path id="DejaVuSans-6e" d="M 3513 2113 
L 3513 0 
L 2938 0 
L 2938 2094 
Q 2938 2591 2744 2837 
Q 2550 3084 2163 3084 
Q 1697 3084 1428 2787 
Q 1159 2491 1159 1978 
L 1159 0 
L 581 0 
L 581 3500 
L 1159 3500 
L 1159 2956 
Q 1366 3272 1645 3428 
Q 1925 3584 2291 3584 
Q 2894 3584 3203 3211 
Q 3513 2838 3513 2113 
z
" transform="scale(0.015625)"/>
        <path id="DejaVuSans-77" d="M 269 3500 
L 844 3500 
L 1563 769 
L 2278 3500 
L 2956 3500 
L 3675 769 
L 4391 3500 
L 4966 3500 
L 4050 0 
L 3372 0 
L 2619 2869 
L 1863 0 
L 1184 0 
L 269 3500 
z
" transform="scale(0.015625)"/>
        <path id="DejaVuSans-29" d="M 513 4856 
L 1013 4856 
Q 1481 4119 1714 3412 
Q 1947 2706 1947 2009 
Q 1947 1309 1714 600 
Q 1481 -109 1013 -844 
L 513 -844 
Q 928 -128 1133 580 
Q 1338 1288 1338 2009 
Q 1338 2731 1133 3434 
Q 928 4138 513 4856 
z
" transform="scale(0.015625)"/>
       </defs>
       <use xlink:href="#DejaVuSans-55"/>
       <use xlink:href="#DejaVuSans-4e" transform="translate(73.193359 0)"/>
       <use xlink:href="#DejaVuSans-49" transform="translate(147.998047 0)"/>
       <use xlink:href="#DejaVuSans-2d" transform="translate(177.490234 0)"/>
       <use xlink:href="#DejaVuSans-53" transform="translate(213.574219 0)"/>
       <use xlink:href="#DejaVuSans-49" transform="translate(277.050781 0)"/>
       <use xlink:href="#DejaVuSans-4e" transform="translate(306.542969 0)"/>
       <use xlink:href="#DejaVuSans-44" transform="translate(381.347656 0)"/>
       <use xlink:href="#DejaVuSans-79" transform="translate(458.349609 0)"/>
       <use xlink:href="#DejaVuSans-20" transform="translate(517.529297 0)"/>
       <use xlink:href="#DejaVuSans-28" transform="translate(549.316406 0)"/>
       <use xlink:href="#DejaVuSans-6e" transform="translate(588.330078 0)"/>
       <use xlink:href="#DejaVuSans-65" transform="translate(651.708984 0)"/>
       <use xlink:href="#DejaVuSans-77" transform="translate(713.232422 0)"/>
       <use xlink:href="#DejaVuSans-29" transform="translate(795.019531 0)"/>
      </g>
     </g>
    </g>
    <g id="xtick_4">
     <g id="line2d_39">
      <path d="M 600.995617 621.106687 
L 600.995617 343.962714 
" clip-path="url(#p063f92b036)" style="fill: none; stroke: #ffffff; stroke-linecap: round"/>
     </g>
     <g id="text_9">
      <!-- SINDy-PI -->
      <g style="fill: #ffffff" transform="translate(553.903586 647.32325) scale(0.22 -0.22)">
       <defs>
        <path id="DejaVuSans-50" d="M 1259 4147 
L 1259 2394 
L 2053 2394 
Q 2494 2394 2734 2622 
Q 2975 2850 2975 3272 
Q 2975 3691 2734 3919 
Q 2494 4147 2053 4147 
L 1259 4147 
z
M 628 4666 
L 2053 4666 
Q 2838 4666 3239 4311 
Q 3641 3956 3641 3272 
Q 3641 2581 3239 2228 
Q 2838 1875 2053 1875 
L 1259 1875 
L 1259 0 
L 628 0 
L 628 4666 
z
" transform="scale(0.015625)"/>
       </defs>
       <use xlink:href="#DejaVuSans-53"/>
       <use xlink:href="#DejaVuSans-49" transform="translate(63.476562 0)"/>
       <use xlink:href="#DejaVuSans-4e" transform="translate(92.96875 0)"/>
       <use xlink:href="#DejaVuSans-44" transform="translate(167.773438 0)"/>
       <use xlink:href="#DejaVuSans-79" transform="translate(244.775391 0)"/>
       <use xlink:href="#DejaVuSans-2d" transform="translate(302.205078 0)"/>
       <use xlink:href="#DejaVuSans-50" transform="translate(338.289062 0)"/>
       <use xlink:href="#DejaVuSans-49" transform="translate(398.591797 0)"/>
      </g>
     </g>
    </g>
   </g>
   <g id="matplotlib.axis_4">
    <g id="ytick_22">
     <g id="line2d_40">
      <path d="M 87.05625 546.824667 
L 986.450142 546.824667 
" clip-path="url(#p063f92b036)" style="fill: none; stroke: #ffffff; stroke-opacity: 0.4; stroke-width: 0.8; stroke-linecap: round"/>
     </g>
     <g id="text_10">
      <!-- $\mathdefault{10^{0}}$ -->
      <g style="fill: #ffffff" transform="translate(42.35625 554.423104) scale(0.2 -0.2)">
       <use xlink:href="#DejaVuSans-31" transform="translate(0 0.765625)"/>
       <use xlink:href="#DejaVuSans-30" transform="translate(63.623047 0.765625)"/>
       <use xlink:href="#DejaVuSans-30" transform="translate(128.203125 39.046875) scale(0.7)"/>
      </g>
     </g>
    </g>
    <g id="ytick_23">
     <g id="line2d_41">
      <path d="M 87.05625 467.504877 
L 986.450142 467.504877 
" clip-path="url(#p063f92b036)" style="fill: none; stroke: #ffffff; stroke-opacity: 0.4; stroke-width: 0.8; stroke-linecap: round"/>
     </g>
     <g id="text_11">
      <!-- $\mathdefault{10^{1}}$ -->
      <g style="fill: #ffffff" transform="translate(42.35625 475.103315) scale(0.2 -0.2)">
       <use xlink:href="#DejaVuSans-31" transform="translate(0 0.684375)"/>
       <use xlink:href="#DejaVuSans-30" transform="translate(63.623047 0.684375)"/>
       <use xlink:href="#DejaVuSans-31" transform="translate(128.203125 38.965625) scale(0.7)"/>
      </g>
     </g>
    </g>
    <g id="ytick_24">
     <g id="line2d_42">
      <path d="M 87.05625 388.185088 
L 986.450142 388.185088 
" clip-path="url(#p063f92b036)" style="fill: none; stroke: #ffffff; stroke-opacity: 0.4; stroke-width: 0.8; stroke-linecap: round"/>
     </g>
     <g id="text_12">
      <!-- $\mathdefault{10^{2}}$ -->
      <g style="fill: #ffffff" transform="translate(42.35625 395.783526) scale(0.2 -0.2)">
       <defs>
        <path id="DejaVuSans-32" d="M 1228 531 
L 3431 531 
L 3431 0 
L 469 0 
L 469 531 
Q 828 903 1448 1529 
Q 2069 2156 2228 2338 
Q 2531 2678 2651 2914 
Q 2772 3150 2772 3378 
Q 2772 3750 2511 3984 
Q 2250 4219 1831 4219 
Q 1534 4219 1204 4116 
Q 875 4013 500 3803 
L 500 4441 
Q 881 4594 1212 4672 
Q 1544 4750 1819 4750 
Q 2544 4750 2975 4387 
Q 3406 4025 3406 3419 
Q 3406 3131 3298 2873 
Q 3191 2616 2906 2266 
Q 2828 2175 2409 1742 
Q 1991 1309 1228 531 
z
" transform="scale(0.015625)"/>
       </defs>
       <use xlink:href="#DejaVuSans-31" transform="translate(0 0.765625)"/>
       <use xlink:href="#DejaVuSans-30" transform="translate(63.623047 0.765625)"/>
       <use xlink:href="#DejaVuSans-32" transform="translate(128.203125 39.046875) scale(0.7)"/>
      </g>
     </g>
    </g>
    <g id="ytick_25">
     <g id="line2d_43">
      <path d="M 87.05625 602.26682 
L 986.450142 602.26682 
" clip-path="url(#p063f92b036)" style="fill: none; stroke-dasharray: 0.5,0.825; stroke-dashoffset: 0; stroke: #ffffff; stroke-opacity: 0.2; stroke-width: 0.5"/>
     </g>
    </g>
    <g id="ytick_26">
     <g id="line2d_44">
      <path d="M 87.05625 588.299299 
L 986.450142 588.299299 
" clip-path="url(#p063f92b036)" style="fill: none; stroke-dasharray: 0.5,0.825; stroke-dashoffset: 0; stroke: #ffffff; stroke-opacity: 0.2; stroke-width: 0.5"/>
     </g>
    </g>
    <g id="ytick_27">
     <g id="line2d_45">
      <path d="M 87.05625 578.389184 
L 986.450142 578.389184 
" clip-path="url(#p063f92b036)" style="fill: none; stroke-dasharray: 0.5,0.825; stroke-dashoffset: 0; stroke: #ffffff; stroke-opacity: 0.2; stroke-width: 0.5"/>
     </g>
    </g>
    <g id="ytick_28">
     <g id="line2d_46">
      <path d="M 87.05625 570.702303 
L 986.450142 570.702303 
" clip-path="url(#p063f92b036)" style="fill: none; stroke-dasharray: 0.5,0.825; stroke-dashoffset: 0; stroke: #ffffff; stroke-opacity: 0.2; stroke-width: 0.5"/>
     </g>
    </g>
    <g id="ytick_29">
     <g id="line2d_47">
      <path d="M 87.05625 564.421663 
L 986.450142 564.421663 
" clip-path="url(#p063f92b036)" style="fill: none; stroke-dasharray: 0.5,0.825; stroke-dashoffset: 0; stroke: #ffffff; stroke-opacity: 0.2; stroke-width: 0.5"/>
     </g>
    </g>
    <g id="ytick_30">
     <g id="line2d_48">
      <path d="M 87.05625 559.111458 
L 986.450142 559.111458 
" clip-path="url(#p063f92b036)" style="fill: none; stroke-dasharray: 0.5,0.825; stroke-dashoffset: 0; stroke: #ffffff; stroke-opacity: 0.2; stroke-width: 0.5"/>
     </g>
    </g>
    <g id="ytick_31">
     <g id="line2d_49">
      <path d="M 87.05625 554.511549 
L 986.450142 554.511549 
" clip-path="url(#p063f92b036)" style="fill: none; stroke-dasharray: 0.5,0.825; stroke-dashoffset: 0; stroke: #ffffff; stroke-opacity: 0.2; stroke-width: 0.5"/>
     </g>
    </g>
    <g id="ytick_32">
     <g id="line2d_50">
      <path d="M 87.05625 550.454141 
L 986.450142 550.454141 
" clip-path="url(#p063f92b036)" style="fill: none; stroke-dasharray: 0.5,0.825; stroke-dashoffset: 0; stroke: #ffffff; stroke-opacity: 0.2; stroke-width: 0.5"/>
     </g>
    </g>
    <g id="ytick_33">
     <g id="line2d_51">
      <path d="M 87.05625 522.947031 
L 986.450142 522.947031 
" clip-path="url(#p063f92b036)" style="fill: none; stroke-dasharray: 0.5,0.825; stroke-dashoffset: 0; stroke: #ffffff; stroke-opacity: 0.2; stroke-width: 0.5"/>
     </g>
    </g>
    <g id="ytick_34">
     <g id="line2d_52">
      <path d="M 87.05625 508.979509 
L 986.450142 508.979509 
" clip-path="url(#p063f92b036)" style="fill: none; stroke-dasharray: 0.5,0.825; stroke-dashoffset: 0; stroke: #ffffff; stroke-opacity: 0.2; stroke-width: 0.5"/>
     </g>
    </g>
    <g id="ytick_35">
     <g id="line2d_53">
      <path d="M 87.05625 499.069395 
L 986.450142 499.069395 
" clip-path="url(#p063f92b036)" style="fill: none; stroke-dasharray: 0.5,0.825; stroke-dashoffset: 0; stroke: #ffffff; stroke-opacity: 0.2; stroke-width: 0.5"/>
     </g>
    </g>
    <g id="ytick_36">
     <g id="line2d_54">
      <path d="M 87.05625 491.382513 
L 986.450142 491.382513 
" clip-path="url(#p063f92b036)" style="fill: none; stroke-dasharray: 0.5,0.825; stroke-dashoffset: 0; stroke: #ffffff; stroke-opacity: 0.2; stroke-width: 0.5"/>
     </g>
    </g>
    <g id="ytick_37">
     <g id="line2d_55">
      <path d="M 87.05625 485.101873 
L 986.450142 485.101873 
" clip-path="url(#p063f92b036)" style="fill: none; stroke-dasharray: 0.5,0.825; stroke-dashoffset: 0; stroke: #ffffff; stroke-opacity: 0.2; stroke-width: 0.5"/>
     </g>
    </g>
    <g id="ytick_38">
     <g id="line2d_56">
      <path d="M 87.05625 479.791668 
L 986.450142 479.791668 
" clip-path="url(#p063f92b036)" style="fill: none; stroke-dasharray: 0.5,0.825; stroke-dashoffset: 0; stroke: #ffffff; stroke-opacity: 0.2; stroke-width: 0.5"/>
     </g>
    </g>
    <g id="ytick_39">
     <g id="line2d_57">
      <path d="M 87.05625 475.191759 
L 986.450142 475.191759 
" clip-path="url(#p063f92b036)" style="fill: none; stroke-dasharray: 0.5,0.825; stroke-dashoffset: 0; stroke: #ffffff; stroke-opacity: 0.2; stroke-width: 0.5"/>
     </g>
    </g>
    <g id="ytick_40">
     <g id="line2d_58">
      <path d="M 87.05625 471.134352 
L 986.450142 471.134352 
" clip-path="url(#p063f92b036)" style="fill: none; stroke-dasharray: 0.5,0.825; stroke-dashoffset: 0; stroke: #ffffff; stroke-opacity: 0.2; stroke-width: 0.5"/>
     </g>
    </g>
    <g id="ytick_41">
     <g id="line2d_59">
      <path d="M 87.05625 443.627242 
L 986.450142 443.627242 
" clip-path="url(#p063f92b036)" style="fill: none; stroke-dasharray: 0.5,0.825; stroke-dashoffset: 0; stroke: #ffffff; stroke-opacity: 0.2; stroke-width: 0.5"/>
     </g>
    </g>
    <g id="ytick_42">
     <g id="line2d_60">
      <path d="M 87.05625 429.65972 
L 986.450142 429.65972 
" clip-path="url(#p063f92b036)" style="fill: none; stroke-dasharray: 0.5,0.825; stroke-dashoffset: 0; stroke: #ffffff; stroke-opacity: 0.2; stroke-width: 0.5"/>
     </g>
    </g>
    <g id="ytick_43">
     <g id="line2d_61">
      <path d="M 87.05625 419.749606 
L 986.450142 419.749606 
" clip-path="url(#p063f92b036)" style="fill: none; stroke-dasharray: 0.5,0.825; stroke-dashoffset: 0; stroke: #ffffff; stroke-opacity: 0.2; stroke-width: 0.5"/>
     </g>
    </g>
    <g id="ytick_44">
     <g id="line2d_62">
      <path d="M 87.05625 412.062724 
L 986.450142 412.062724 
" clip-path="url(#p063f92b036)" style="fill: none; stroke-dasharray: 0.5,0.825; stroke-dashoffset: 0; stroke: #ffffff; stroke-opacity: 0.2; stroke-width: 0.5"/>
     </g>
    </g>
    <g id="ytick_45">
     <g id="line2d_63">
      <path d="M 87.05625 405.782084 
L 986.450142 405.782084 
" clip-path="url(#p063f92b036)" style="fill: none; stroke-dasharray: 0.5,0.825; stroke-dashoffset: 0; stroke: #ffffff; stroke-opacity: 0.2; stroke-width: 0.5"/>
     </g>
    </g>
    <g id="ytick_46">
     <g id="line2d_64">
      <path d="M 87.05625 400.471879 
L 986.450142 400.471879 
" clip-path="url(#p063f92b036)" style="fill: none; stroke-dasharray: 0.5,0.825; stroke-dashoffset: 0; stroke: #ffffff; stroke-opacity: 0.2; stroke-width: 0.5"/>
     </g>
    </g>
    <g id="ytick_47">
     <g id="line2d_65">
      <path d="M 87.05625 395.87197 
L 986.450142 395.87197 
" clip-path="url(#p063f92b036)" style="fill: none; stroke-dasharray: 0.5,0.825; stroke-dashoffset: 0; stroke: #ffffff; stroke-opacity: 0.2; stroke-width: 0.5"/>
     </g>
    </g>
    <g id="ytick_48">
     <g id="line2d_66">
      <path d="M 87.05625 391.814563 
L 986.450142 391.814563 
" clip-path="url(#p063f92b036)" style="fill: none; stroke-dasharray: 0.5,0.825; stroke-dashoffset: 0; stroke: #ffffff; stroke-opacity: 0.2; stroke-width: 0.5"/>
     </g>
    </g>
    <g id="ytick_49">
     <g id="line2d_67">
      <path d="M 87.05625 364.307452 
L 986.450142 364.307452 
" clip-path="url(#p063f92b036)" style="fill: none; stroke-dasharray: 0.5,0.825; stroke-dashoffset: 0; stroke: #ffffff; stroke-opacity: 0.2; stroke-width: 0.5"/>
     </g>
    </g>
    <g id="ytick_50">
     <g id="line2d_68">
      <path d="M 87.05625 350.339931 
L 986.450142 350.339931 
" clip-path="url(#p063f92b036)" style="fill: none; stroke-dasharray: 0.5,0.825; stroke-dashoffset: 0; stroke: #ffffff; stroke-opacity: 0.2; stroke-width: 0.5"/>
     </g>
    </g>
    <g id="text_13">
     <!-- Double Pendulum -->
     <g style="fill: #ffffff" transform="translate(34.196875 582.150326) rotate(-90) scale(0.2 -0.2)">
      <defs>
       <path id="DejaVuSans-Bold-44" d="M 1791 3756 
L 1791 909 
L 2222 909 
Q 2959 909 3348 1275 
Q 3738 1641 3738 2338 
Q 3738 3031 3350 3393 
Q 2963 3756 2222 3756 
L 1791 3756 
z
M 588 4666 
L 1856 4666 
Q 2919 4666 3439 4514 
Q 3959 4363 4331 4000 
Q 4659 3684 4818 3271 
Q 4978 2859 4978 2338 
Q 4978 1809 4818 1395 
Q 4659 981 4331 666 
Q 3956 303 3431 151 
Q 2906 0 1856 0 
L 588 0 
L 588 4666 
z
" transform="scale(0.015625)"/>
       <path id="DejaVuSans-Bold-75" d="M 500 1363 
L 500 3500 
L 1625 3500 
L 1625 3150 
Q 1625 2866 1622 2436 
Q 1619 2006 1619 1863 
Q 1619 1441 1641 1255 
Q 1663 1069 1716 984 
Q 1784 875 1895 815 
Q 2006 756 2150 756 
Q 2500 756 2700 1025 
Q 2900 1294 2900 1772 
L 2900 3500 
L 4019 3500 
L 4019 0 
L 2900 0 
L 2900 506 
Q 2647 200 2364 54 
Q 2081 -91 1741 -91 
Q 1134 -91 817 281 
Q 500 653 500 1363 
z
" transform="scale(0.015625)"/>
       <path id="DejaVuSans-Bold-62" d="M 2400 722 
Q 2759 722 2948 984 
Q 3138 1247 3138 1747 
Q 3138 2247 2948 2509 
Q 2759 2772 2400 2772 
Q 2041 2772 1848 2508 
Q 1656 2244 1656 1747 
Q 1656 1250 1848 986 
Q 2041 722 2400 722 
z
M 1656 2988 
Q 1888 3294 2169 3439 
Q 2450 3584 2816 3584 
Q 3463 3584 3878 3070 
Q 4294 2556 4294 1747 
Q 4294 938 3878 423 
Q 3463 -91 2816 -91 
Q 2450 -91 2169 54 
Q 1888 200 1656 506 
L 1656 0 
L 538 0 
L 538 4863 
L 1656 4863 
L 1656 2988 
z
" transform="scale(0.015625)"/>
       <path id="DejaVuSans-Bold-20" transform="scale(0.015625)"/>
       <path id="DejaVuSans-Bold-50" d="M 588 4666 
L 2584 4666 
Q 3475 4666 3951 4270 
Q 4428 3875 4428 3144 
Q 4428 2409 3951 2014 
Q 3475 1619 2584 1619 
L 1791 1619 
L 1791 0 
L 588 0 
L 588 4666 
z
M 1791 3794 
L 1791 2491 
L 2456 2491 
Q 2806 2491 2997 2661 
Q 3188 2831 3188 3144 
Q 3188 3456 2997 3625 
Q 2806 3794 2456 3794 
L 1791 3794 
z
" transform="scale(0.015625)"/>
       <path id="DejaVuSans-Bold-6e" d="M 4056 2131 
L 4056 0 
L 2931 0 
L 2931 347 
L 2931 1631 
Q 2931 2084 2911 2256 
Q 2891 2428 2841 2509 
Q 2775 2619 2662 2680 
Q 2550 2741 2406 2741 
Q 2056 2741 1856 2470 
Q 1656 2200 1656 1722 
L 1656 0 
L 538 0 
L 538 3500 
L 1656 3500 
L 1656 2988 
Q 1909 3294 2193 3439 
Q 2478 3584 2822 3584 
Q 3428 3584 3742 3212 
Q 4056 2841 4056 2131 
z
" transform="scale(0.015625)"/>
       <path id="DejaVuSans-Bold-64" d="M 2919 2988 
L 2919 4863 
L 4044 4863 
L 4044 0 
L 2919 0 
L 2919 506 
Q 2688 197 2409 53 
Q 2131 -91 1766 -91 
Q 1119 -91 703 423 
Q 288 938 288 1747 
Q 288 2556 703 3070 
Q 1119 3584 1766 3584 
Q 2128 3584 2408 3439 
Q 2688 3294 2919 2988 
z
M 2181 722 
Q 2541 722 2730 984 
Q 2919 1247 2919 1747 
Q 2919 2247 2730 2509 
Q 2541 2772 2181 2772 
Q 1825 2772 1636 2509 
Q 1447 2247 1447 1747 
Q 1447 1247 1636 984 
Q 1825 722 2181 722 
z
" transform="scale(0.015625)"/>
       <path id="DejaVuSans-Bold-6d" d="M 3781 2919 
Q 3994 3244 4286 3414 
Q 4578 3584 4928 3584 
Q 5531 3584 5847 3212 
Q 6163 2841 6163 2131 
L 6163 0 
L 5038 0 
L 5038 1825 
Q 5041 1866 5042 1909 
Q 5044 1953 5044 2034 
Q 5044 2406 4934 2573 
Q 4825 2741 4581 2741 
Q 4263 2741 4089 2478 
Q 3916 2216 3909 1719 
L 3909 0 
L 2784 0 
L 2784 1825 
Q 2784 2406 2684 2573 
Q 2584 2741 2328 2741 
Q 2006 2741 1831 2477 
Q 1656 2213 1656 1722 
L 1656 0 
L 531 0 
L 531 3500 
L 1656 3500 
L 1656 2988 
Q 1863 3284 2130 3434 
Q 2397 3584 2719 3584 
Q 3081 3584 3359 3409 
Q 3638 3234 3781 2919 
z
" transform="scale(0.015625)"/>
      </defs>
      <use xlink:href="#DejaVuSans-Bold-44"/>
      <use xlink:href="#DejaVuSans-Bold-6f" transform="translate(83.007812 0)"/>
      <use xlink:href="#DejaVuSans-Bold-75" transform="translate(151.708984 0)"/>
      <use xlink:href="#DejaVuSans-Bold-62" transform="translate(222.900391 0)"/>
      <use xlink:href="#DejaVuSans-Bold-6c" transform="translate(294.482422 0)"/>
      <use xlink:href="#DejaVuSans-Bold-65" transform="translate(328.759766 0)"/>
      <use xlink:href="#DejaVuSans-Bold-20" transform="translate(396.582031 0)"/>
      <use xlink:href="#DejaVuSans-Bold-50" transform="translate(431.396484 0)"/>
      <use xlink:href="#DejaVuSans-Bold-65" transform="translate(504.6875 0)"/>
      <use xlink:href="#DejaVuSans-Bold-6e" transform="translate(572.509766 0)"/>
      <use xlink:href="#DejaVuSans-Bold-64" transform="translate(643.701172 0)"/>
      <use xlink:href="#DejaVuSans-Bold-75" transform="translate(715.283203 0)"/>
      <use xlink:href="#DejaVuSans-Bold-6c" transform="translate(786.474609 0)"/>
      <use xlink:href="#DejaVuSans-Bold-75" transform="translate(820.751953 0)"/>
      <use xlink:href="#DejaVuSans-Bold-6d" transform="translate(891.943359 0)"/>
     </g>
    </g>
   </g>
   <g id="patch_16">
    <path d="M 144.874429 579.408886 
L 200.551194 579.408886 
L 200.551194 509.351971 
L 144.874429 509.351971 
L 144.874429 579.408886 
z
" clip-path="url(#p063f92b036)" style="fill: #c9d5e7; opacity: 0.75; stroke: #2c3e50; stroke-width: 1.2; stroke-linejoin: miter"/>
   </g>
   <g id="line2d_69">
    <path d="M 172.712811 579.408886 
L 172.712811 608.509234 
" clip-path="url(#p063f92b036)" style="fill: none; stroke: #ffffff; stroke-width: 1.5; stroke-linecap: round"/>
   </g>
   <g id="line2d_70">
    <path d="M 172.712811 509.351971 
L 172.712811 509.351971 
" clip-path="url(#p063f92b036)" style="fill: none; stroke: #ffffff; stroke-width: 1.5; stroke-linecap: round"/>
   </g>
   <g id="line2d_71">
    <path d="M 158.79362 608.509234 
L 186.632002 608.509234 
" clip-path="url(#p063f92b036)" style="fill: none; stroke: #ffffff; stroke-width: 1.5; stroke-linecap: round"/>
   </g>
   <g id="line2d_72">
    <path d="M 158.79362 509.351971 
L 186.632002 509.351971 
" clip-path="url(#p063f92b036)" style="fill: none; stroke: #ffffff; stroke-width: 1.5; stroke-linecap: round"/>
   </g>
   <g id="line2d_73">
    <defs>
     <path id="md482235644" d="M 0 3 
C 0.795609 3 1.55874 2.683901 2.12132 2.12132 
C 2.683901 1.55874 3 0.795609 3 0 
C 3 -0.795609 2.683901 -1.55874 2.12132 -2.12132 
C 1.55874 -2.683901 0.795609 -3 0 -3 
C -0.795609 -3 -1.55874 -2.683901 -2.12132 -2.12132 
C -2.683901 -1.55874 -3 -0.795609 -3 0 
C -3 0.795609 -2.683901 1.55874 -2.12132 2.12132 
C -1.55874 2.683901 -0.795609 3 0 3 
z
" style="stroke: #ffffff"/>
    </defs>
    <g clip-path="url(#p063f92b036)">
     <use xlink:href="#md482235644" x="172.712811" y="473.772084" style="fill-opacity: 0; stroke: #ffffff"/>
     <use xlink:href="#md482235644" x="172.712811" y="450.333337" style="fill-opacity: 0; stroke: #ffffff"/>
     <use xlink:href="#md482235644" x="172.712811" y="388.504064" style="fill-opacity: 0; stroke: #ffffff"/>
    </g>
   </g>
   <g id="patch_17">
    <path d="M 230.53099 425.560943 
L 286.207755 425.560943 
L 286.207755 394.494871 
L 230.53099 394.494871 
L 230.53099 425.560943 
z
" clip-path="url(#p063f92b036)" style="fill: #8ba3cc; opacity: 0.75; stroke: #2c3e50; stroke-width: 1.2; stroke-linejoin: miter"/>
   </g>
   <g id="line2d_74">
    <path d="M 258.369372 425.560943 
L 258.369372 467.975563 
" clip-path="url(#p063f92b036)" style="fill: none; stroke: #ffffff; stroke-width: 1.5; stroke-linecap: round"/>
   </g>
   <g id="line2d_75">
    <path d="M 258.369372 394.494871 
L 258.369372 385.276872 
" clip-path="url(#p063f92b036)" style="fill: none; stroke: #ffffff; stroke-width: 1.5; stroke-linecap: round"/>
   </g>
   <g id="line2d_76">
    <path d="M 244.450181 467.975563 
L 272.288564 467.975563 
" clip-path="url(#p063f92b036)" style="fill: none; stroke: #ffffff; stroke-width: 1.5; stroke-linecap: round"/>
   </g>
   <g id="line2d_77">
    <path d="M 244.450181 385.276872 
L 272.288564 385.276872 
" clip-path="url(#p063f92b036)" style="fill: none; stroke: #ffffff; stroke-width: 1.5; stroke-linecap: round"/>
   </g>
   <g id="line2d_78"/>
   <g id="patch_18">
    <path d="M 316.187551 450.714235 
L 371.864316 450.714235 
L 371.864316 377.866243 
L 316.187551 377.866243 
L 316.187551 450.714235 
z
" clip-path="url(#p063f92b036)" style="fill: #4c72b0; opacity: 0.75; stroke: #2c3e50; stroke-width: 1.2; stroke-linejoin: miter"/>
   </g>
   <g id="line2d_79">
    <path d="M 344.025933 450.714235 
L 344.025933 458.068198 
" clip-path="url(#p063f92b036)" style="fill: none; stroke: #ffffff; stroke-width: 1.5; stroke-linecap: round"/>
   </g>
   <g id="line2d_80">
    <path d="M 344.025933 377.866243 
L 344.025933 356.560167 
" clip-path="url(#p063f92b036)" style="fill: none; stroke: #ffffff; stroke-width: 1.5; stroke-linecap: round"/>
   </g>
   <g id="line2d_81">
    <path d="M 330.106742 458.068198 
L 357.945125 458.068198 
" clip-path="url(#p063f92b036)" style="fill: none; stroke: #ffffff; stroke-width: 1.5; stroke-linecap: round"/>
   </g>
   <g id="line2d_82">
    <path d="M 330.106742 356.560167 
L 357.945125 356.560167 
" clip-path="url(#p063f92b036)" style="fill: none; stroke: #ffffff; stroke-width: 1.5; stroke-linecap: round"/>
   </g>
   <g id="line2d_83"/>
   <g id="line2d_84">
    <path d="M 144.874429 549.020594 
L 200.551194 549.020594 
" clip-path="url(#p063f92b036)" style="fill: none; stroke: #ffffff; stroke-width: 2.5"/>
   </g>
   <g id="line2d_85">
    <g clip-path="url(#p063f92b036)">
     <use xlink:href="#m341f79c576" x="172.712811" y="464.81304" style="fill: #2c3e50; stroke: #ffffff; stroke-linejoin: miter"/>
    </g>
   </g>
   <g id="line2d_86">
    <path d="M 230.53099 407.118533 
L 286.207755 407.118533 
" clip-path="url(#p063f92b036)" style="fill: none; stroke: #ffffff; stroke-width: 2.5"/>
   </g>
   <g id="line2d_87">
    <g clip-path="url(#p063f92b036)">
     <use xlink:href="#m341f79c576" x="258.369372" y="406.479979" style="fill: #2c3e50; stroke: #ffffff; stroke-linejoin: miter"/>
    </g>
   </g>
   <g id="line2d_88">
    <path d="M 316.187551 444.657343 
L 371.864316 444.657343 
" clip-path="url(#p063f92b036)" style="fill: none; stroke: #ffffff; stroke-width: 2.5"/>
   </g>
   <g id="line2d_89">
    <g clip-path="url(#p063f92b036)">
     <use xlink:href="#m341f79c576" x="344.025933" y="390.194533" style="fill: #2c3e50; stroke: #ffffff; stroke-linejoin: miter"/>
    </g>
   </g>
   <g id="patch_19">
    <path d="M 87.05625 621.106687 
L 87.05625 343.962714 
" style="fill: none; stroke: #ffffff; stroke-width: 1.25; stroke-linejoin: miter; stroke-linecap: square"/>
   </g>
   <g id="patch_20">
    <path d="M 986.450142 621.106687 
L 986.450142 343.962714 
" style="fill: none; stroke: #ffffff; stroke-width: 1.25; stroke-linejoin: miter; stroke-linecap: square"/>
   </g>
   <g id="patch_21">
    <path d="M 87.05625 621.106687 
L 986.450142 621.106687 
" style="fill: none; stroke: #ffffff; stroke-width: 1.25; stroke-linejoin: miter; stroke-linecap: square"/>
   </g>
   <g id="patch_22">
    <path d="M 87.05625 343.962714 
L 986.450142 343.962714 
" style="fill: none; stroke: #ffffff; stroke-width: 1.25; stroke-linejoin: miter; stroke-linecap: square"/>
   </g>
   <g id="text_14">
    <g id="patch_23">
     <path d="M 893.422264 612.478049 
L 968.462264 612.478049 
Q 976.462264 612.478049 976.462264 604.478049 
L 976.462264 588.993049 
Q 976.462264 580.993049 968.462264 580.993049 
L 893.422264 580.993049 
Q 885.422264 580.993049 885.422264 588.993049 
L 885.422264 604.478049 
Q 885.422264 612.478049 893.422264 612.478049 
z
" style="fill: #2c3e50; opacity: 0.95; stroke: #7f8c8d; stroke-width: 1.5; stroke-linejoin: miter"/>
    </g>
    <!-- $n_{max}=12$ -->
    <g style="fill: #ffffff" transform="translate(893.422264 601.150549) scale(0.16 -0.16)">
     <use xlink:href="#DejaVuSans-Oblique-6e" transform="translate(0 0.78125)"/>
     <use xlink:href="#DejaVuSans-Oblique-6d" transform="translate(63.378906 -15.625) scale(0.7)"/>
     <use xlink:href="#DejaVuSans-Oblique-61" transform="translate(131.567383 -15.625) scale(0.7)"/>
     <use xlink:href="#DejaVuSans-Oblique-78" transform="translate(174.462891 -15.625) scale(0.7)"/>
     <use xlink:href="#DejaVuSans-3d" transform="translate(238.105469 0.78125)"/>
     <use xlink:href="#DejaVuSans-31" transform="translate(341.376953 0.78125)"/>
     <use xlink:href="#DejaVuSans-32" transform="translate(405 0.78125)"/>
    </g>
   </g>
  </g>
  <g id="text_15">
   <!-- Validation Error Comparison (Log Scale) -->
   <g style="fill: #ffffff" transform="translate(270.92333 22.396875) scale(0.2 -0.2)">
    <defs>
     <path id="DejaVuSans-Bold-56" d="M 31 4666 
L 1241 4666 
L 2478 1222 
L 3713 4666 
L 4922 4666 
L 3194 0 
L 1759 0 
L 31 4666 
z
" transform="scale(0.015625)"/>
     <path id="DejaVuSans-Bold-69" d="M 538 3500 
L 1656 3500 
L 1656 0 
L 538 0 
L 538 3500 
z
M 538 4863 
L 1656 4863 
L 1656 3950 
L 538 3950 
L 538 4863 
z
" transform="scale(0.015625)"/>
     <path id="DejaVuSans-Bold-45" d="M 588 4666 
L 3834 4666 
L 3834 3756 
L 1791 3756 
L 1791 2888 
L 3713 2888 
L 3713 1978 
L 1791 1978 
L 1791 909 
L 3903 909 
L 3903 0 
L 588 0 
L 588 4666 
z
" transform="scale(0.015625)"/>
     <path id="DejaVuSans-Bold-73" d="M 3272 3391 
L 3272 2541 
Q 2913 2691 2578 2766 
Q 2244 2841 1947 2841 
Q 1628 2841 1473 2761 
Q 1319 2681 1319 2516 
Q 1319 2381 1436 2309 
Q 1553 2238 1856 2203 
L 2053 2175 
Q 2913 2066 3209 1816 
Q 3506 1566 3506 1031 
Q 3506 472 3093 190 
Q 2681 -91 1863 -91 
Q 1516 -91 1145 -36 
Q 775 19 384 128 
L 384 978 
Q 719 816 1070 734 
Q 1422 653 1784 653 
Q 2113 653 2278 743 
Q 2444 834 2444 1013 
Q 2444 1163 2330 1236 
Q 2216 1309 1875 1350 
L 1678 1375 
Q 931 1469 631 1722 
Q 331 1975 331 2491 
Q 331 3047 712 3315 
Q 1094 3584 1881 3584 
Q 2191 3584 2531 3537 
Q 2872 3491 3272 3391 
z
" transform="scale(0.015625)"/>
     <path id="DejaVuSans-Bold-28" d="M 2413 -844 
L 1484 -844 
Q 1006 -72 778 623 
Q 550 1319 550 2003 
Q 550 2688 779 3389 
Q 1009 4091 1484 4856 
L 2413 4856 
Q 2013 4116 1813 3408 
Q 1613 2700 1613 2009 
Q 1613 1319 1811 609 
Q 2009 -100 2413 -844 
z
" transform="scale(0.015625)"/>
     <path id="DejaVuSans-Bold-4c" d="M 588 4666 
L 1791 4666 
L 1791 909 
L 3903 909 
L 3903 0 
L 588 0 
L 588 4666 
z
" transform="scale(0.015625)"/>
     <path id="DejaVuSans-Bold-67" d="M 2919 594 
Q 2688 288 2409 144 
Q 2131 0 1766 0 
Q 1125 0 706 504 
Q 288 1009 288 1791 
Q 288 2575 706 3076 
Q 1125 3578 1766 3578 
Q 2131 3578 2409 3434 
Q 2688 3291 2919 2981 
L 2919 3500 
L 4044 3500 
L 4044 353 
Q 4044 -491 3511 -936 
Q 2978 -1381 1966 -1381 
Q 1638 -1381 1331 -1331 
Q 1025 -1281 716 -1178 
L 716 -306 
Q 1009 -475 1290 -558 
Q 1572 -641 1856 -641 
Q 2406 -641 2662 -400 
Q 2919 -159 2919 353 
L 2919 594 
z
M 2181 2772 
Q 1834 2772 1640 2515 
Q 1447 2259 1447 1791 
Q 1447 1309 1634 1061 
Q 1822 813 2181 813 
Q 2531 813 2725 1069 
Q 2919 1325 2919 1791 
Q 2919 2259 2725 2515 
Q 2531 2772 2181 2772 
z
" transform="scale(0.015625)"/>
     <path id="DejaVuSans-Bold-53" d="M 3834 4519 
L 3834 3531 
Q 3450 3703 3084 3790 
Q 2719 3878 2394 3878 
Q 1963 3878 1756 3759 
Q 1550 3641 1550 3391 
Q 1550 3203 1689 3098 
Q 1828 2994 2194 2919 
L 2706 2816 
Q 3484 2659 3812 2340 
Q 4141 2022 4141 1434 
Q 4141 663 3683 286 
Q 3225 -91 2284 -91 
Q 1841 -91 1394 -6 
Q 947 78 500 244 
L 500 1259 
Q 947 1022 1364 901 
Q 1781 781 2169 781 
Q 2563 781 2772 912 
Q 2981 1044 2981 1288 
Q 2981 1506 2839 1625 
Q 2697 1744 2272 1838 
L 1806 1941 
Q 1106 2091 782 2419 
Q 459 2747 459 3303 
Q 459 4000 909 4375 
Q 1359 4750 2203 4750 
Q 2588 4750 2994 4692 
Q 3400 4634 3834 4519 
z
" transform="scale(0.015625)"/>
     <path id="DejaVuSans-Bold-63" d="M 3366 3391 
L 3366 2478 
Q 3138 2634 2908 2709 
Q 2678 2784 2431 2784 
Q 1963 2784 1702 2511 
Q 1441 2238 1441 1747 
Q 1441 1256 1702 982 
Q 1963 709 2431 709 
Q 2694 709 2930 787 
Q 3166 866 3366 1019 
L 3366 103 
Q 3103 6 2833 -42 
Q 2563 -91 2291 -91 
Q 1344 -91 809 395 
Q 275 881 275 1747 
Q 275 2613 809 3098 
Q 1344 3584 2291 3584 
Q 2566 3584 2833 3536 
Q 3100 3488 3366 3391 
z
" transform="scale(0.015625)"/>
     <path id="DejaVuSans-Bold-29" d="M 513 -844 
Q 913 -100 1113 609 
Q 1313 1319 1313 2009 
Q 1313 2700 1113 3408 
Q 913 4116 513 4856 
L 1441 4856 
Q 1916 4091 2145 3389 
Q 2375 2688 2375 2003 
Q 2375 1319 2147 623 
Q 1919 -72 1441 -844 
L 513 -844 
z
" transform="scale(0.015625)"/>
    </defs>
    <use xlink:href="#DejaVuSans-Bold-56"/>
    <use xlink:href="#DejaVuSans-Bold-61" transform="translate(71.892578 0)"/>
    <use xlink:href="#DejaVuSans-Bold-6c" transform="translate(139.373047 0)"/>
    <use xlink:href="#DejaVuSans-Bold-69" transform="translate(173.650391 0)"/>
    <use xlink:href="#DejaVuSans-Bold-64" transform="translate(207.927734 0)"/>
    <use xlink:href="#DejaVuSans-Bold-61" transform="translate(279.509766 0)"/>
    <use xlink:href="#DejaVuSans-Bold-74" transform="translate(346.990234 0)"/>
    <use xlink:href="#DejaVuSans-Bold-69" transform="translate(394.792969 0)"/>
    <use xlink:href="#DejaVuSans-Bold-6f" transform="translate(429.070312 0)"/>
    <use xlink:href="#DejaVuSans-Bold-6e" transform="translate(497.771484 0)"/>
    <use xlink:href="#DejaVuSans-Bold-20" transform="translate(568.962891 0)"/>
    <use xlink:href="#DejaVuSans-Bold-45" transform="translate(603.777344 0)"/>
    <use xlink:href="#DejaVuSans-Bold-72" transform="translate(672.087891 0)"/>
    <use xlink:href="#DejaVuSans-Bold-72" transform="translate(721.404297 0)"/>
    <use xlink:href="#DejaVuSans-Bold-6f" transform="translate(770.720703 0)"/>
    <use xlink:href="#DejaVuSans-Bold-72" transform="translate(839.421875 0)"/>
    <use xlink:href="#DejaVuSans-Bold-20" transform="translate(888.738281 0)"/>
    <use xlink:href="#DejaVuSans-Bold-43" transform="translate(923.552734 0)"/>
    <use xlink:href="#DejaVuSans-Bold-6f" transform="translate(996.941406 0)"/>
    <use xlink:href="#DejaVuSans-Bold-6d" transform="translate(1065.642578 0)"/>
    <use xlink:href="#DejaVuSans-Bold-70" transform="translate(1169.841797 0)"/>
    <use xlink:href="#DejaVuSans-Bold-61" transform="translate(1241.423828 0)"/>
    <use xlink:href="#DejaVuSans-Bold-72" transform="translate(1308.904297 0)"/>
    <use xlink:href="#DejaVuSans-Bold-69" transform="translate(1358.220703 0)"/>
    <use xlink:href="#DejaVuSans-Bold-73" transform="translate(1392.498047 0)"/>
    <use xlink:href="#DejaVuSans-Bold-6f" transform="translate(1452.019531 0)"/>
    <use xlink:href="#DejaVuSans-Bold-6e" transform="translate(1520.720703 0)"/>
    <use xlink:href="#DejaVuSans-Bold-20" transform="translate(1591.912109 0)"/>
    <use xlink:href="#DejaVuSans-Bold-28" transform="translate(1626.726562 0)"/>
    <use xlink:href="#DejaVuSans-Bold-4c" transform="translate(1672.429688 0)"/>
    <use xlink:href="#DejaVuSans-Bold-6f" transform="translate(1736.150391 0)"/>
    <use xlink:href="#DejaVuSans-Bold-67" transform="translate(1804.851562 0)"/>
    <use xlink:href="#DejaVuSans-Bold-20" transform="translate(1876.433594 0)"/>
    <use xlink:href="#DejaVuSans-Bold-53" transform="translate(1911.248047 0)"/>
    <use xlink:href="#DejaVuSans-Bold-63" transform="translate(1983.269531 0)"/>
    <use xlink:href="#DejaVuSans-Bold-61" transform="translate(2042.546875 0)"/>
    <use xlink:href="#DejaVuSans-Bold-6c" transform="translate(2110.027344 0)"/>
    <use xlink:href="#DejaVuSans-Bold-65" transform="translate(2144.304688 0)"/>
    <use xlink:href="#DejaVuSans-Bold-29" transform="translate(2212.126953 0)"/>
   </g>
  </g>
 </g>
 <defs>
  <clipPath id="p7f6f76a3b4">
   <rect x="87.05625" y="52.56274" width="899.393892" height="277.143974"/>
  </clipPath>
  <clipPath id="p063f92b036">
   <rect x="87.05625" y="343.962714" width="899.393892" height="277.143974"/>
  </clipPath>
 </defs>
</svg>
