<?xml version="1.0" encoding="utf-8" standalone="no"?>
<!DOCTYPE svg PUBLIC "-//W3C//DTD SVG 1.1//EN"
  "http://www.w3.org/Graphics/SVG/1.1/DTD/svg11.dtd">
<svg xmlns:xlink="http://www.w3.org/1999/xlink" width="993.72513pt" height="466.215875pt" viewBox="0 0 993.72513 466.215875" xmlns="http://www.w3.org/2000/svg" version="1.1">
 <metadata>
  <rdf:RDF xmlns:dc="http://purl.org/dc/elements/1.1/" xmlns:cc="http://creativecommons.org/ns#" xmlns:rdf="http://www.w3.org/1999/02/22-rdf-syntax-ns#">
   <cc:Work>
    <dc:type rdf:resource="http://purl.org/dc/dcmitype/StillImage"/>
    <dc:date>2026-01-21T20:00:42.969750</dc:date>
    <dc:format>image/svg+xml</dc:format>
    <dc:creator>
     <cc:Agent>
      <dc:title>Matplotlib v3.10.8, https://matplotlib.org/</dc:title>
     </cc:Agent>
    </dc:creator>
   </cc:Work>
  </rdf:RDF>
 </metadata>
 <defs>
  <style type="text/css">*{stroke-linejoin: round; stroke-linecap: butt}</style>
 </defs>
 <g id="figure_1">
  <g id="patch_1">
   <path d="M 0 466.215875 
L 993.72513 466.215875 
L 993.72513 0 
L 0 0 
L 0 466.215875 
z
" style="fill: none"/>
  </g>
  <g id="axes_1">
   <g id="patch_2">
    <path d="M 75.4125 428.224 
L 986.52513 428.224 
L 986.52513 53.532 
L 75.4125 53.532 
L 75.4125 428.224 
z
" style="fill: none"/>
   </g>
   <g id="matplotlib.axis_1">
    <g id="xtick_1">
     <g id="line2d_1">
      <path d="M 205.571447 428.224 
L 205.571447 53.532 
" clip-path="url(#p3e074c2f1c)" style="fill: none; stroke: #ffffff; stroke-linecap: round"/>
     </g>
     <g id="text_1">
      <!-- UNI-SINDy (new) -->
      <g style="fill: #ffffff" transform="translate(113.824572 454.440562) scale(0.22 -0.22)">
       <defs>
        <path id="DejaVuSans-55" d="M 556 4666 
L 1191 4666 
L 1191 1831 
Q 1191 1081 1462 751 
Q 1734 422 2344 422 
Q 2950 422 3222 751 
Q 3494 1081 3494 1831 
L 3494 4666 
L 4128 4666 
L 4128 1753 
Q 4128 841 3676 375 
Q 3225 -91 2344 -91 
Q 1459 -91 1007 375 
Q 556 841 556 1753 
L 556 4666 
z
" transform="scale(0.015625)"/>
        <path id="DejaVuSans-4e" d="M 628 4666 
L 1478 4666 
L 3547 763 
L 3547 4666 
L 4159 4666 
L 4159 0 
L 3309 0 
L 1241 3903 
L 1241 0 
L 628 0 
L 628 4666 
z
" transform="scale(0.015625)"/>
        <path id="DejaVuSans-49" d="M 628 4666 
L 1259 4666 
L 1259 0 
L 628 0 
L 628 4666 
z
" transform="scale(0.015625)"/>
        <path id="DejaVuSans-2d" d="M 313 2009 
L 1997 2009 
L 1997 1497 
L 313 1497 
L 313 2009 
z
" transform="scale(0.015625)"/>
        <path id="DejaVuSans-53" d="M 3425 4513 
L 3425 3897 
Q 3066 4069 2747 4153 
Q 2428 4238 2131 4238 
Q 1616 4238 1336 4038 
Q 1056 3838 1056 3469 
Q 1056 3159 1242 3001 
Q 1428 2844 1947 2747 
L 2328 2669 
Q 3034 2534 3370 2195 
Q 3706 1856 3706 1288 
Q 3706 609 3251 259 
Q 2797 -91 1919 -91 
Q 1588 -91 1214 -16 
Q 841 59 441 206 
L 441 856 
Q 825 641 1194 531 
Q 1563 422 1919 422 
Q 2459 422 2753 634 
Q 3047 847 3047 1241 
Q 3047 1584 2836 1778 
Q 2625 1972 2144 2069 
L 1759 2144 
Q 1053 2284 737 2584 
Q 422 2884 422 3419 
Q 422 4038 858 4394 
Q 1294 4750 2059 4750 
Q 2388 4750 2728 4690 
Q 3069 4631 3425 4513 
z
" transform="scale(0.015625)"/>
        <path id="DejaVuSans-44" d="M 1259 4147 
L 1259 519 
L 2022 519 
Q 2988 519 3436 956 
Q 3884 1394 3884 2338 
Q 3884 3275 3436 3711 
Q 2988 4147 2022 4147 
L 1259 4147 
z
M 628 4666 
L 1925 4666 
Q 3281 4666 3915 4102 
Q 4550 3538 4550 2338 
Q 4550 1131 3912 565 
Q 3275 0 1925 0 
L 628 0 
L 628 4666 
z
" transform="scale(0.015625)"/>
        <path id="DejaVuSans-79" d="M 2059 -325 
Q 1816 -950 1584 -1140 
Q 1353 -1331 966 -1331 
L 506 -1331 
L 506 -850 
L 844 -850 
Q 1081 -850 1212 -737 
Q 1344 -625 1503 -206 
L 1606 56 
L 191 3500 
L 800 3500 
L 1894 763 
L 2988 3500 
L 3597 3500 
L 2059 -325 
z
" transform="scale(0.015625)"/>
        <path id="DejaVuSans-20" transform="scale(0.015625)"/>
        <path id="DejaVuSans-28" d="M 1984 4856 
Q 1566 4138 1362 3434 
Q 1159 2731 1159 2009 
Q 1159 1288 1364 580 
Q 1569 -128 1984 -844 
L 1484 -844 
Q 1016 -109 783 600 
Q 550 1309 550 2009 
Q 550 2706 781 3412 
Q 1013 4119 1484 4856 
L 1984 4856 
z
" transform="scale(0.015625)"/>
        <path id="DejaVuSans-6e" d="M 3513 2113 
L 3513 0 
L 2938 0 
L 2938 2094 
Q 2938 2591 2744 2837 
Q 2550 3084 2163 3084 
Q 1697 3084 1428 2787 
Q 1159 2491 1159 1978 
L 1159 0 
L 581 0 
L 581 3500 
L 1159 3500 
L 1159 2956 
Q 1366 3272 1645 3428 
Q 1925 3584 2291 3584 
Q 2894 3584 3203 3211 
Q 3513 2838 3513 2113 
z
" transform="scale(0.015625)"/>
        <path id="DejaVuSans-65" d="M 3597 1894 
L 3597 1613 
L 953 1613 
Q 991 1019 1311 708 
Q 1631 397 2203 397 
Q 2534 397 2845 478 
Q 3156 559 3463 722 
L 3463 178 
Q 3153 47 2828 -22 
Q 2503 -91 2169 -91 
Q 1331 -91 842 396 
Q 353 884 353 1716 
Q 353 2575 817 3079 
Q 1281 3584 2069 3584 
Q 2775 3584 3186 3129 
Q 3597 2675 3597 1894 
z
M 3022 2063 
Q 3016 2534 2758 2815 
Q 2500 3097 2075 3097 
Q 1594 3097 1305 2825 
Q 1016 2553 972 2059 
L 3022 2063 
z
" transform="scale(0.015625)"/>
        <path id="DejaVuSans-77" d="M 269 3500 
L 844 3500 
L 1563 769 
L 2278 3500 
L 2956 3500 
L 3675 769 
L 4391 3500 
L 4966 3500 
L 4050 0 
L 3372 0 
L 2619 2869 
L 1863 0 
L 1184 0 
L 269 3500 
z
" transform="scale(0.015625)"/>
        <path id="DejaVuSans-29" d="M 513 4856 
L 1013 4856 
Q 1481 4119 1714 3412 
Q 1947 2706 1947 2009 
Q 1947 1309 1714 600 
Q 1481 -109 1013 -844 
L 513 -844 
Q 928 -128 1133 580 
Q 1338 1288 1338 2009 
Q 1338 2731 1133 3434 
Q 928 4138 513 4856 
z
" transform="scale(0.015625)"/>
       </defs>
       <use xlink:href="#DejaVuSans-55"/>
       <use xlink:href="#DejaVuSans-4e" transform="translate(73.193359 0)"/>
       <use xlink:href="#DejaVuSans-49" transform="translate(147.998047 0)"/>
       <use xlink:href="#DejaVuSans-2d" transform="translate(177.490234 0)"/>
       <use xlink:href="#DejaVuSans-53" transform="translate(213.574219 0)"/>
       <use xlink:href="#DejaVuSans-49" transform="translate(277.050781 0)"/>
       <use xlink:href="#DejaVuSans-4e" transform="translate(306.542969 0)"/>
       <use xlink:href="#DejaVuSans-44" transform="translate(381.347656 0)"/>
       <use xlink:href="#DejaVuSans-79" transform="translate(458.349609 0)"/>
       <use xlink:href="#DejaVuSans-20" transform="translate(517.529297 0)"/>
       <use xlink:href="#DejaVuSans-28" transform="translate(549.316406 0)"/>
       <use xlink:href="#DejaVuSans-6e" transform="translate(588.330078 0)"/>
       <use xlink:href="#DejaVuSans-65" transform="translate(651.708984 0)"/>
       <use xlink:href="#DejaVuSans-77" transform="translate(713.232422 0)"/>
       <use xlink:href="#DejaVuSans-29" transform="translate(795.019531 0)"/>
      </g>
     </g>
    </g>
    <g id="xtick_2">
     <g id="line2d_2">
      <path d="M 465.889342 428.224 
L 465.889342 53.532 
" clip-path="url(#p3e074c2f1c)" style="fill: none; stroke: #ffffff; stroke-linecap: round"/>
     </g>
     <g id="text_2">
      <!-- XlSINDy -->
      <g style="fill: #ffffff" transform="translate(421.860123 454.440562) scale(0.22 -0.22)">
       <defs>
        <path id="DejaVuSans-58" d="M 403 4666 
L 1081 4666 
L 2241 2931 
L 3406 4666 
L 4084 4666 
L 2584 2425 
L 4184 0 
L 3506 0 
L 2194 1984 
L 872 0 
L 191 0 
L 1856 2491 
L 403 4666 
z
" transform="scale(0.015625)"/>
        <path id="DejaVuSans-6c" d="M 603 4863 
L 1178 4863 
L 1178 0 
L 603 0 
L 603 4863 
z
" transform="scale(0.015625)"/>
       </defs>
       <use xlink:href="#DejaVuSans-58"/>
       <use xlink:href="#DejaVuSans-6c" transform="translate(68.505859 0)"/>
       <use xlink:href="#DejaVuSans-53" transform="translate(96.289062 0)"/>
       <use xlink:href="#DejaVuSans-49" transform="translate(159.765625 0)"/>
       <use xlink:href="#DejaVuSans-4e" transform="translate(189.257812 0)"/>
       <use xlink:href="#DejaVuSans-44" transform="translate(264.0625 0)"/>
       <use xlink:href="#DejaVuSans-79" transform="translate(341.064453 0)"/>
      </g>
     </g>
    </g>
    <g id="xtick_3">
     <g id="line2d_3">
      <path d="M 726.207236 428.224 
L 726.207236 53.532 
" clip-path="url(#p3e074c2f1c)" style="fill: none; stroke: #ffffff; stroke-linecap: round"/>
     </g>
     <g id="text_3">
      <!-- SINDy -->
      <g style="fill: #ffffff" transform="translate(692.768955 454.440562) scale(0.22 -0.22)">
       <use xlink:href="#DejaVuSans-53"/>
       <use xlink:href="#DejaVuSans-49" transform="translate(63.476562 0)"/>
       <use xlink:href="#DejaVuSans-4e" transform="translate(92.96875 0)"/>
       <use xlink:href="#DejaVuSans-44" transform="translate(167.773438 0)"/>
       <use xlink:href="#DejaVuSans-79" transform="translate(244.775391 0)"/>
      </g>
     </g>
    </g>
   </g>
   <g id="matplotlib.axis_2">
    <g id="ytick_1">
     <g id="line2d_4">
      <path d="M 75.4125 260.411367 
L 986.52513 260.411367 
" clip-path="url(#p3e074c2f1c)" style="fill: none; stroke: #ffffff; stroke-opacity: 0.4; stroke-width: 0.8; stroke-linecap: round"/>
     </g>
     <g id="text_4">
      <!-- $\mathdefault{10^{1}}$ -->
      <g style="fill: #ffffff" transform="translate(30.7125 268.009804) scale(0.2 -0.2)">
       <defs>
        <path id="DejaVuSans-31" d="M 794 531 
L 1825 531 
L 1825 4091 
L 703 3866 
L 703 4441 
L 1819 4666 
L 2450 4666 
L 2450 531 
L 3481 531 
L 3481 0 
L 794 0 
L 794 531 
z
" transform="scale(0.015625)"/>
        <path id="DejaVuSans-30" d="M 2034 4250 
Q 1547 4250 1301 3770 
Q 1056 3291 1056 2328 
Q 1056 1369 1301 889 
Q 1547 409 2034 409 
Q 2525 409 2770 889 
Q 3016 1369 3016 2328 
Q 3016 3291 2770 3770 
Q 2525 4250 2034 4250 
z
M 2034 4750 
Q 2819 4750 3233 4129 
Q 3647 3509 3647 2328 
Q 3647 1150 3233 529 
Q 2819 -91 2034 -91 
Q 1250 -91 836 529 
Q 422 1150 422 2328 
Q 422 3509 836 4129 
Q 1250 4750 2034 4750 
z
" transform="scale(0.015625)"/>
       </defs>
       <use xlink:href="#DejaVuSans-31" transform="translate(0 0.684375)"/>
       <use xlink:href="#DejaVuSans-30" transform="translate(63.623047 0.684375)"/>
       <use xlink:href="#DejaVuSans-31" transform="translate(128.203125 38.965625) scale(0.7)"/>
      </g>
     </g>
    </g>
    <g id="ytick_2">
     <g id="line2d_5">
      <path d="M 75.4125 406.270687 
L 986.52513 406.270687 
" clip-path="url(#p3e074c2f1c)" style="fill: none; stroke-dasharray: 0.5,0.825; stroke-dashoffset: 0; stroke: #ffffff; stroke-opacity: 0.2; stroke-width: 0.5"/>
     </g>
    </g>
    <g id="ytick_3">
     <g id="line2d_6">
      <path d="M 75.4125 369.524402 
L 986.52513 369.524402 
" clip-path="url(#p3e074c2f1c)" style="fill: none; stroke-dasharray: 0.5,0.825; stroke-dashoffset: 0; stroke: #ffffff; stroke-opacity: 0.2; stroke-width: 0.5"/>
     </g>
    </g>
    <g id="ytick_4">
     <g id="line2d_7">
      <path d="M 75.4125 343.452497 
L 986.52513 343.452497 
" clip-path="url(#p3e074c2f1c)" style="fill: none; stroke-dasharray: 0.5,0.825; stroke-dashoffset: 0; stroke: #ffffff; stroke-opacity: 0.2; stroke-width: 0.5"/>
     </g>
    </g>
    <g id="ytick_5">
     <g id="line2d_8">
      <path d="M 75.4125 323.229557 
L 986.52513 323.229557 
" clip-path="url(#p3e074c2f1c)" style="fill: none; stroke-dasharray: 0.5,0.825; stroke-dashoffset: 0; stroke: #ffffff; stroke-opacity: 0.2; stroke-width: 0.5"/>
     </g>
    </g>
    <g id="ytick_6">
     <g id="line2d_9">
      <path d="M 75.4125 306.706212 
L 986.52513 306.706212 
" clip-path="url(#p3e074c2f1c)" style="fill: none; stroke-dasharray: 0.5,0.825; stroke-dashoffset: 0; stroke: #ffffff; stroke-opacity: 0.2; stroke-width: 0.5"/>
     </g>
    </g>
    <g id="ytick_7">
     <g id="line2d_10">
      <path d="M 75.4125 292.735922 
L 986.52513 292.735922 
" clip-path="url(#p3e074c2f1c)" style="fill: none; stroke-dasharray: 0.5,0.825; stroke-dashoffset: 0; stroke: #ffffff; stroke-opacity: 0.2; stroke-width: 0.5"/>
     </g>
    </g>
    <g id="ytick_8">
     <g id="line2d_11">
      <path d="M 75.4125 280.634307 
L 986.52513 280.634307 
" clip-path="url(#p3e074c2f1c)" style="fill: none; stroke-dasharray: 0.5,0.825; stroke-dashoffset: 0; stroke: #ffffff; stroke-opacity: 0.2; stroke-width: 0.5"/>
     </g>
    </g>
    <g id="ytick_9">
     <g id="line2d_12">
      <path d="M 75.4125 269.959926 
L 986.52513 269.959926 
" clip-path="url(#p3e074c2f1c)" style="fill: none; stroke-dasharray: 0.5,0.825; stroke-dashoffset: 0; stroke: #ffffff; stroke-opacity: 0.2; stroke-width: 0.5"/>
     </g>
    </g>
    <g id="ytick_10">
     <g id="line2d_13">
      <path d="M 75.4125 197.593177 
L 986.52513 197.593177 
" clip-path="url(#p3e074c2f1c)" style="fill: none; stroke-dasharray: 0.5,0.825; stroke-dashoffset: 0; stroke: #ffffff; stroke-opacity: 0.2; stroke-width: 0.5"/>
     </g>
    </g>
    <g id="ytick_11">
     <g id="line2d_14">
      <path d="M 75.4125 160.846891 
L 986.52513 160.846891 
" clip-path="url(#p3e074c2f1c)" style="fill: none; stroke-dasharray: 0.5,0.825; stroke-dashoffset: 0; stroke: #ffffff; stroke-opacity: 0.2; stroke-width: 0.5"/>
     </g>
    </g>
    <g id="ytick_12">
     <g id="line2d_15">
      <path d="M 75.4125 134.774986 
L 986.52513 134.774986 
" clip-path="url(#p3e074c2f1c)" style="fill: none; stroke-dasharray: 0.5,0.825; stroke-dashoffset: 0; stroke: #ffffff; stroke-opacity: 0.2; stroke-width: 0.5"/>
     </g>
    </g>
    <g id="ytick_13">
     <g id="line2d_16">
      <path d="M 75.4125 114.552046 
L 986.52513 114.552046 
" clip-path="url(#p3e074c2f1c)" style="fill: none; stroke-dasharray: 0.5,0.825; stroke-dashoffset: 0; stroke: #ffffff; stroke-opacity: 0.2; stroke-width: 0.5"/>
     </g>
    </g>
    <g id="ytick_14">
     <g id="line2d_17">
      <path d="M 75.4125 98.028701 
L 986.52513 98.028701 
" clip-path="url(#p3e074c2f1c)" style="fill: none; stroke-dasharray: 0.5,0.825; stroke-dashoffset: 0; stroke: #ffffff; stroke-opacity: 0.2; stroke-width: 0.5"/>
     </g>
    </g>
    <g id="ytick_15">
     <g id="line2d_18">
      <path d="M 75.4125 84.058411 
L 986.52513 84.058411 
" clip-path="url(#p3e074c2f1c)" style="fill: none; stroke-dasharray: 0.5,0.825; stroke-dashoffset: 0; stroke: #ffffff; stroke-opacity: 0.2; stroke-width: 0.5"/>
     </g>
    </g>
    <g id="ytick_16">
     <g id="line2d_19">
      <path d="M 75.4125 71.956796 
L 986.52513 71.956796 
" clip-path="url(#p3e074c2f1c)" style="fill: none; stroke-dasharray: 0.5,0.825; stroke-dashoffset: 0; stroke: #ffffff; stroke-opacity: 0.2; stroke-width: 0.5"/>
     </g>
    </g>
    <g id="ytick_17">
     <g id="line2d_20">
      <path d="M 75.4125 61.282415 
L 986.52513 61.282415 
" clip-path="url(#p3e074c2f1c)" style="fill: none; stroke-dasharray: 0.5,0.825; stroke-dashoffset: 0; stroke: #ffffff; stroke-opacity: 0.2; stroke-width: 0.5"/>
     </g>
    </g>
    <g id="text_5">
     <!-- All Systems -->
     <g style="fill: #ffffff" transform="translate(22.396875 306.560812) rotate(-90) scale(0.2 -0.2)">
      <defs>
       <path id="DejaVuSans-Bold-41" d="M 3419 850 
L 1538 850 
L 1241 0 
L 31 0 
L 1759 4666 
L 3194 4666 
L 4922 0 
L 3713 0 
L 3419 850 
z
M 1838 1716 
L 3116 1716 
L 2478 3572 
L 1838 1716 
z
" transform="scale(0.015625)"/>
       <path id="DejaVuSans-Bold-6c" d="M 538 4863 
L 1656 4863 
L 1656 0 
L 538 0 
L 538 4863 
z
" transform="scale(0.015625)"/>
       <path id="DejaVuSans-Bold-20" transform="scale(0.015625)"/>
       <path id="DejaVuSans-Bold-53" d="M 3834 4519 
L 3834 3531 
Q 3450 3703 3084 3790 
Q 2719 3878 2394 3878 
Q 1963 3878 1756 3759 
Q 1550 3641 1550 3391 
Q 1550 3203 1689 3098 
Q 1828 2994 2194 2919 
L 2706 2816 
Q 3484 2659 3812 2340 
Q 4141 2022 4141 1434 
Q 4141 663 3683 286 
Q 3225 -91 2284 -91 
Q 1841 -91 1394 -6 
Q 947 78 500 244 
L 500 1259 
Q 947 1022 1364 901 
Q 1781 781 2169 781 
Q 2563 781 2772 912 
Q 2981 1044 2981 1288 
Q 2981 1506 2839 1625 
Q 2697 1744 2272 1838 
L 1806 1941 
Q 1106 2091 782 2419 
Q 459 2747 459 3303 
Q 459 4000 909 4375 
Q 1359 4750 2203 4750 
Q 2588 4750 2994 4692 
Q 3400 4634 3834 4519 
z
" transform="scale(0.015625)"/>
       <path id="DejaVuSans-Bold-79" d="M 78 3500 
L 1197 3500 
L 2138 1125 
L 2938 3500 
L 4056 3500 
L 2584 -331 
Q 2363 -916 2067 -1148 
Q 1772 -1381 1288 -1381 
L 641 -1381 
L 641 -647 
L 991 -647 
Q 1275 -647 1404 -556 
Q 1534 -466 1606 -231 
L 1638 -134 
L 78 3500 
z
" transform="scale(0.015625)"/>
       <path id="DejaVuSans-Bold-73" d="M 3272 3391 
L 3272 2541 
Q 2913 2691 2578 2766 
Q 2244 2841 1947 2841 
Q 1628 2841 1473 2761 
Q 1319 2681 1319 2516 
Q 1319 2381 1436 2309 
Q 1553 2238 1856 2203 
L 2053 2175 
Q 2913 2066 3209 1816 
Q 3506 1566 3506 1031 
Q 3506 472 3093 190 
Q 2681 -91 1863 -91 
Q 1516 -91 1145 -36 
Q 775 19 384 128 
L 384 978 
Q 719 816 1070 734 
Q 1422 653 1784 653 
Q 2113 653 2278 743 
Q 2444 834 2444 1013 
Q 2444 1163 2330 1236 
Q 2216 1309 1875 1350 
L 1678 1375 
Q 931 1469 631 1722 
Q 331 1975 331 2491 
Q 331 3047 712 3315 
Q 1094 3584 1881 3584 
Q 2191 3584 2531 3537 
Q 2872 3491 3272 3391 
z
" transform="scale(0.015625)"/>
       <path id="DejaVuSans-Bold-74" d="M 1759 4494 
L 1759 3500 
L 2913 3500 
L 2913 2700 
L 1759 2700 
L 1759 1216 
Q 1759 972 1856 886 
Q 1953 800 2241 800 
L 2816 800 
L 2816 0 
L 1856 0 
Q 1194 0 917 276 
Q 641 553 641 1216 
L 641 2700 
L 84 2700 
L 84 3500 
L 641 3500 
L 641 4494 
L 1759 4494 
z
" transform="scale(0.015625)"/>
       <path id="DejaVuSans-Bold-65" d="M 4031 1759 
L 4031 1441 
L 1416 1441 
Q 1456 1047 1700 850 
Q 1944 653 2381 653 
Q 2734 653 3104 758 
Q 3475 863 3866 1075 
L 3866 213 
Q 3469 63 3072 -14 
Q 2675 -91 2278 -91 
Q 1328 -91 801 392 
Q 275 875 275 1747 
Q 275 2603 792 3093 
Q 1309 3584 2216 3584 
Q 3041 3584 3536 3087 
Q 4031 2591 4031 1759 
z
M 2881 2131 
Q 2881 2450 2695 2645 
Q 2509 2841 2209 2841 
Q 1884 2841 1681 2658 
Q 1478 2475 1428 2131 
L 2881 2131 
z
" transform="scale(0.015625)"/>
       <path id="DejaVuSans-Bold-6d" d="M 3781 2919 
Q 3994 3244 4286 3414 
Q 4578 3584 4928 3584 
Q 5531 3584 5847 3212 
Q 6163 2841 6163 2131 
L 6163 0 
L 5038 0 
L 5038 1825 
Q 5041 1866 5042 1909 
Q 5044 1953 5044 2034 
Q 5044 2406 4934 2573 
Q 4825 2741 4581 2741 
Q 4263 2741 4089 2478 
Q 3916 2216 3909 1719 
L 3909 0 
L 2784 0 
L 2784 1825 
Q 2784 2406 2684 2573 
Q 2584 2741 2328 2741 
Q 2006 2741 1831 2477 
Q 1656 2213 1656 1722 
L 1656 0 
L 531 0 
L 531 3500 
L 1656 3500 
L 1656 2988 
Q 1863 3284 2130 3434 
Q 2397 3584 2719 3584 
Q 3081 3584 3359 3409 
Q 3638 3234 3781 2919 
z
" transform="scale(0.015625)"/>
      </defs>
      <use xlink:href="#DejaVuSans-Bold-41"/>
      <use xlink:href="#DejaVuSans-Bold-6c" transform="translate(77.392578 0)"/>
      <use xlink:href="#DejaVuSans-Bold-6c" transform="translate(111.669922 0)"/>
      <use xlink:href="#DejaVuSans-Bold-20" transform="translate(145.947266 0)"/>
      <use xlink:href="#DejaVuSans-Bold-53" transform="translate(180.761719 0)"/>
      <use xlink:href="#DejaVuSans-Bold-79" transform="translate(252.783203 0)"/>
      <use xlink:href="#DejaVuSans-Bold-73" transform="translate(317.96875 0)"/>
      <use xlink:href="#DejaVuSans-Bold-74" transform="translate(377.490234 0)"/>
      <use xlink:href="#DejaVuSans-Bold-65" transform="translate(425.292969 0)"/>
      <use xlink:href="#DejaVuSans-Bold-6d" transform="translate(493.115234 0)"/>
      <use xlink:href="#DejaVuSans-Bold-73" transform="translate(597.314453 0)"/>
     </g>
    </g>
   </g>
   <g id="patch_3">
    <path d="M 110.555416 307.875912 
L 144.396742 307.875912 
L 144.396742 179.482859 
L 110.555416 179.482859 
L 110.555416 307.875912 
z
" clip-path="url(#p3e074c2f1c)" style="fill: #c9d5e7; opacity: 0.75; stroke: #2c3e50; stroke-width: 1.2; stroke-linejoin: miter"/>
   </g>
   <g id="line2d_21">
    <path d="M 127.476079 307.875912 
L 127.476079 339.858115 
" clip-path="url(#p3e074c2f1c)" style="fill: none; stroke: #ffffff; stroke-width: 1.5; stroke-linecap: round"/>
   </g>
   <g id="line2d_22">
    <path d="M 127.476079 179.482859 
L 127.476079 151.87824 
" clip-path="url(#p3e074c2f1c)" style="fill: none; stroke: #ffffff; stroke-width: 1.5; stroke-linecap: round"/>
   </g>
   <g id="line2d_23">
    <path d="M 119.015747 339.858115 
L 135.93641 339.858115 
" clip-path="url(#p3e074c2f1c)" style="fill: none; stroke: #ffffff; stroke-width: 1.5; stroke-linecap: round"/>
   </g>
   <g id="line2d_24">
    <path d="M 119.015747 151.87824 
L 135.93641 151.87824 
" clip-path="url(#p3e074c2f1c)" style="fill: none; stroke: #ffffff; stroke-width: 1.5; stroke-linecap: round"/>
   </g>
   <g id="line2d_25"/>
   <g id="patch_4">
    <path d="M 162.618995 320.250389 
L 196.460321 320.250389 
L 196.460321 191.614011 
L 162.618995 191.614011 
L 162.618995 320.250389 
z
" clip-path="url(#p3e074c2f1c)" style="fill: #a0b4d5; opacity: 0.75; stroke: #2c3e50; stroke-width: 1.2; stroke-linejoin: miter"/>
   </g>
   <g id="line2d_26">
    <path d="M 179.539658 320.250389 
L 179.539658 411.192545 
" clip-path="url(#p3e074c2f1c)" style="fill: none; stroke: #ffffff; stroke-width: 1.5; stroke-linecap: round"/>
   </g>
   <g id="line2d_27">
    <path d="M 179.539658 191.614011 
L 179.539658 188.454567 
" clip-path="url(#p3e074c2f1c)" style="fill: none; stroke: #ffffff; stroke-width: 1.5; stroke-linecap: round"/>
   </g>
   <g id="line2d_28">
    <path d="M 171.079326 411.192545 
L 187.999989 411.192545 
" clip-path="url(#p3e074c2f1c)" style="fill: none; stroke: #ffffff; stroke-width: 1.5; stroke-linecap: round"/>
   </g>
   <g id="line2d_29">
    <path d="M 171.079326 188.454567 
L 187.999989 188.454567 
" clip-path="url(#p3e074c2f1c)" style="fill: none; stroke: #ffffff; stroke-width: 1.5; stroke-linecap: round"/>
   </g>
   <g id="line2d_30"/>
   <g id="patch_5">
    <path d="M 214.682574 232.783127 
L 248.5239 232.783127 
L 248.5239 212.066171 
L 214.682574 212.066171 
L 214.682574 232.783127 
z
" clip-path="url(#p3e074c2f1c)" style="fill: #7693c2; opacity: 0.75; stroke: #2c3e50; stroke-width: 1.2; stroke-linejoin: miter"/>
   </g>
   <g id="line2d_31">
    <path d="M 231.603237 232.783127 
L 231.603237 245.239266 
" clip-path="url(#p3e074c2f1c)" style="fill: none; stroke: #ffffff; stroke-width: 1.5; stroke-linecap: round"/>
   </g>
   <g id="line2d_32">
    <path d="M 231.603237 212.066171 
L 231.603237 203.249471 
" clip-path="url(#p3e074c2f1c)" style="fill: none; stroke: #ffffff; stroke-width: 1.5; stroke-linecap: round"/>
   </g>
   <g id="line2d_33">
    <path d="M 223.142905 245.239266 
L 240.063568 245.239266 
" clip-path="url(#p3e074c2f1c)" style="fill: none; stroke: #ffffff; stroke-width: 1.5; stroke-linecap: round"/>
   </g>
   <g id="line2d_34">
    <path d="M 223.142905 203.249471 
L 240.063568 203.249471 
" clip-path="url(#p3e074c2f1c)" style="fill: none; stroke: #ffffff; stroke-width: 1.5; stroke-linecap: round"/>
   </g>
   <g id="line2d_35"/>
   <g id="patch_6">
    <path d="M 370.87331 294.989453 
L 404.714636 294.989453 
L 404.714636 172.565948 
L 370.87331 172.565948 
L 370.87331 294.989453 
z
" clip-path="url(#p3e074c2f1c)" style="fill: #edcacb; opacity: 0.75; stroke: #2c3e50; stroke-width: 1.2; stroke-linejoin: miter"/>
   </g>
   <g id="line2d_36">
    <path d="M 387.793973 294.989453 
L 387.793973 342.447663 
" clip-path="url(#p3e074c2f1c)" style="fill: none; stroke: #ffffff; stroke-width: 1.5; stroke-linecap: round"/>
   </g>
   <g id="line2d_37">
    <path d="M 387.793973 172.565948 
L 387.793973 132.952581 
" clip-path="url(#p3e074c2f1c)" style="fill: none; stroke: #ffffff; stroke-width: 1.5; stroke-linecap: round"/>
   </g>
   <g id="line2d_38">
    <path d="M 379.333642 342.447663 
L 396.254305 342.447663 
" clip-path="url(#p3e074c2f1c)" style="fill: none; stroke: #ffffff; stroke-width: 1.5; stroke-linecap: round"/>
   </g>
   <g id="line2d_39">
    <path d="M 379.333642 132.952581 
L 396.254305 132.952581 
" clip-path="url(#p3e074c2f1c)" style="fill: none; stroke: #ffffff; stroke-width: 1.5; stroke-linecap: round"/>
   </g>
   <g id="line2d_40"/>
   <g id="patch_7">
    <path d="M 422.936889 211.093105 
L 456.778215 211.093105 
L 456.778215 136.413332 
L 422.936889 136.413332 
L 422.936889 211.093105 
z
" clip-path="url(#p3e074c2f1c)" style="fill: #e0a1a3; opacity: 0.75; stroke: #2c3e50; stroke-width: 1.2; stroke-linejoin: miter"/>
   </g>
   <g id="line2d_41">
    <path d="M 439.857552 211.093105 
L 439.857552 361.822531 
" clip-path="url(#p3e074c2f1c)" style="fill: none; stroke: #ffffff; stroke-width: 1.5; stroke-linecap: round"/>
   </g>
   <g id="line2d_42">
    <path d="M 439.857552 136.413332 
L 439.857552 136.413332 
" clip-path="url(#p3e074c2f1c)" style="fill: none; stroke: #ffffff; stroke-width: 1.5; stroke-linecap: round"/>
   </g>
   <g id="line2d_43">
    <path d="M 431.397221 361.822531 
L 448.317884 361.822531 
" clip-path="url(#p3e074c2f1c)" style="fill: none; stroke: #ffffff; stroke-width: 1.5; stroke-linecap: round"/>
   </g>
   <g id="line2d_44">
    <path d="M 431.397221 136.413332 
L 448.317884 136.413332 
" clip-path="url(#p3e074c2f1c)" style="fill: none; stroke: #ffffff; stroke-width: 1.5; stroke-linecap: round"/>
   </g>
   <g id="line2d_45">
    <defs>
     <path id="md095350d9d" d="M 0 3 
C 0.795609 3 1.55874 2.683901 2.12132 2.12132 
C 2.683901 1.55874 3 0.795609 3 0 
C 3 -0.795609 2.683901 -1.55874 2.12132 -2.12132 
C 1.55874 -2.683901 0.795609 -3 0 -3 
C -0.795609 -3 -1.55874 -2.683901 -2.12132 -2.12132 
C -2.683901 -1.55874 -3 -0.795609 -3 0 
C -3 0.795609 -2.683901 1.55874 -2.12132 2.12132 
C -1.55874 2.683901 -0.795609 3 0 3 
z
" style="stroke: #ffffff"/>
    </defs>
    <g clip-path="url(#p3e074c2f1c)">
     <use xlink:href="#md095350d9d" x="439.857552" y="70.563455" style="fill-opacity: 0; stroke: #ffffff"/>
    </g>
   </g>
   <g id="patch_8">
    <path d="M 475.000468 304.344192 
L 508.841794 304.344192 
L 508.841794 218.038837 
L 475.000468 218.038837 
L 475.000468 304.344192 
z
" clip-path="url(#p3e074c2f1c)" style="fill: #d2777a; opacity: 0.75; stroke: #2c3e50; stroke-width: 1.2; stroke-linejoin: miter"/>
   </g>
   <g id="line2d_46">
    <path d="M 491.921131 304.344192 
L 491.921131 327.837119 
" clip-path="url(#p3e074c2f1c)" style="fill: none; stroke: #ffffff; stroke-width: 1.5; stroke-linecap: round"/>
   </g>
   <g id="line2d_47">
    <path d="M 491.921131 218.038837 
L 491.921131 179.732645 
" clip-path="url(#p3e074c2f1c)" style="fill: none; stroke: #ffffff; stroke-width: 1.5; stroke-linecap: round"/>
   </g>
   <g id="line2d_48">
    <path d="M 483.4608 327.837119 
L 500.381463 327.837119 
" clip-path="url(#p3e074c2f1c)" style="fill: none; stroke: #ffffff; stroke-width: 1.5; stroke-linecap: round"/>
   </g>
   <g id="line2d_49">
    <path d="M 483.4608 179.732645 
L 500.381463 179.732645 
" clip-path="url(#p3e074c2f1c)" style="fill: none; stroke: #ffffff; stroke-width: 1.5; stroke-linecap: round"/>
   </g>
   <g id="line2d_50"/>
   <g id="patch_9">
    <path d="M 527.064047 167.677355 
L 560.905373 167.677355 
L 560.905373 167.677355 
L 527.064047 167.677355 
L 527.064047 167.677355 
z
" clip-path="url(#p3e074c2f1c)" style="fill: #c44e52; opacity: 0.75; stroke: #2c3e50; stroke-width: 1.2; stroke-linejoin: miter"/>
   </g>
   <g id="line2d_51">
    <path d="M 543.98471 167.677355 
L 543.98471 167.677355 
" clip-path="url(#p3e074c2f1c)" style="fill: none; stroke: #ffffff; stroke-width: 1.5; stroke-linecap: round"/>
   </g>
   <g id="line2d_52">
    <path d="M 543.98471 167.677355 
L 543.98471 167.677355 
" clip-path="url(#p3e074c2f1c)" style="fill: none; stroke: #ffffff; stroke-width: 1.5; stroke-linecap: round"/>
   </g>
   <g id="line2d_53">
    <path d="M 535.524378 167.677355 
L 552.445042 167.677355 
" clip-path="url(#p3e074c2f1c)" style="fill: none; stroke: #ffffff; stroke-width: 1.5; stroke-linecap: round"/>
   </g>
   <g id="line2d_54">
    <path d="M 535.524378 167.677355 
L 552.445042 167.677355 
" clip-path="url(#p3e074c2f1c)" style="fill: none; stroke: #ffffff; stroke-width: 1.5; stroke-linecap: round"/>
   </g>
   <g id="line2d_55"/>
   <g id="patch_10">
    <path d="M 631.191205 266.926934 
L 665.032531 266.926934 
L 665.032531 216.219921 
L 631.191205 216.219921 
L 631.191205 266.926934 
z
" clip-path="url(#p3e074c2f1c)" style="fill: #cce5d2; opacity: 0.75; stroke: #2c3e50; stroke-width: 1.2; stroke-linejoin: miter"/>
   </g>
   <g id="line2d_56">
    <path d="M 648.111868 266.926934 
L 648.111868 309.5088 
" clip-path="url(#p3e074c2f1c)" style="fill: none; stroke: #ffffff; stroke-width: 1.5; stroke-linecap: round"/>
   </g>
   <g id="line2d_57">
    <path d="M 648.111868 216.219921 
L 648.111868 198.626298 
" clip-path="url(#p3e074c2f1c)" style="fill: none; stroke: #ffffff; stroke-width: 1.5; stroke-linecap: round"/>
   </g>
   <g id="line2d_58">
    <path d="M 639.651536 309.5088 
L 656.572199 309.5088 
" clip-path="url(#p3e074c2f1c)" style="fill: none; stroke: #ffffff; stroke-width: 1.5; stroke-linecap: round"/>
   </g>
   <g id="line2d_59">
    <path d="M 639.651536 198.626298 
L 656.572199 198.626298 
" clip-path="url(#p3e074c2f1c)" style="fill: none; stroke: #ffffff; stroke-width: 1.5; stroke-linecap: round"/>
   </g>
   <g id="line2d_60"/>
   <g id="patch_11">
    <path d="M 683.254783 253.932682 
L 717.09611 253.932682 
L 717.09611 193.582207 
L 683.254783 193.582207 
L 683.254783 253.932682 
z
" clip-path="url(#p3e074c2f1c)" style="fill: #a4d1ae; opacity: 0.75; stroke: #2c3e50; stroke-width: 1.2; stroke-linejoin: miter"/>
   </g>
   <g id="line2d_61">
    <path d="M 700.175447 253.932682 
L 700.175447 312.008312 
" clip-path="url(#p3e074c2f1c)" style="fill: none; stroke: #ffffff; stroke-width: 1.5; stroke-linecap: round"/>
   </g>
   <g id="line2d_62">
    <path d="M 700.175447 193.582207 
L 700.175447 173.860977 
" clip-path="url(#p3e074c2f1c)" style="fill: none; stroke: #ffffff; stroke-width: 1.5; stroke-linecap: round"/>
   </g>
   <g id="line2d_63">
    <path d="M 691.715115 312.008312 
L 708.635778 312.008312 
" clip-path="url(#p3e074c2f1c)" style="fill: none; stroke: #ffffff; stroke-width: 1.5; stroke-linecap: round"/>
   </g>
   <g id="line2d_64">
    <path d="M 691.715115 173.860977 
L 708.635778 173.860977 
" clip-path="url(#p3e074c2f1c)" style="fill: none; stroke: #ffffff; stroke-width: 1.5; stroke-linecap: round"/>
   </g>
   <g id="line2d_65"/>
   <g id="line2d_66">
    <path d="M 110.555416 208.134461 
L 144.396742 208.134461 
" clip-path="url(#p3e074c2f1c)" style="fill: none; stroke: #ffffff; stroke-width: 2.5"/>
   </g>
   <g id="line2d_67">
    <defs>
     <path id="m183658e2e3" d="M -0 4.242641 
L 4.242641 0 
L 0 -4.242641 
L -4.242641 -0 
z
" style="stroke: #ffffff; stroke-linejoin: miter"/>
    </defs>
    <g clip-path="url(#p3e074c2f1c)">
     <use xlink:href="#m183658e2e3" x="127.476079" y="211.860856" style="fill: #2c3e50; stroke: #ffffff; stroke-linejoin: miter"/>
    </g>
   </g>
   <g id="line2d_68">
    <path d="M 162.618995 279.717755 
L 196.460321 279.717755 
" clip-path="url(#p3e074c2f1c)" style="fill: none; stroke: #ffffff; stroke-width: 2.5"/>
   </g>
   <g id="line2d_69">
    <g clip-path="url(#p3e074c2f1c)">
     <use xlink:href="#m183658e2e3" x="179.539658" y="245.983467" style="fill: #2c3e50; stroke: #ffffff; stroke-linejoin: miter"/>
    </g>
   </g>
   <g id="line2d_70">
    <path d="M 214.682574 221.83396 
L 248.5239 221.83396 
" clip-path="url(#p3e074c2f1c)" style="fill: none; stroke: #ffffff; stroke-width: 2.5"/>
   </g>
   <g id="line2d_71">
    <g clip-path="url(#p3e074c2f1c)">
     <use xlink:href="#m183658e2e3" x="231.603237" y="221.83396" style="fill: #2c3e50; stroke: #ffffff; stroke-linejoin: miter"/>
    </g>
   </g>
   <g id="line2d_72">
    <path d="M 370.87331 191.232743 
L 404.714636 191.232743 
" clip-path="url(#p3e074c2f1c)" style="fill: none; stroke: #ffffff; stroke-width: 2.5"/>
   </g>
   <g id="line2d_73">
    <g clip-path="url(#p3e074c2f1c)">
     <use xlink:href="#m183658e2e3" x="387.793973" y="198.04719" style="fill: #2c3e50; stroke: #ffffff; stroke-linejoin: miter"/>
    </g>
   </g>
   <g id="line2d_74">
    <path d="M 422.936889 200.45583 
L 456.778215 200.45583 
" clip-path="url(#p3e074c2f1c)" style="fill: none; stroke: #ffffff; stroke-width: 2.5"/>
   </g>
   <g id="line2d_75">
    <g clip-path="url(#p3e074c2f1c)">
     <use xlink:href="#m183658e2e3" x="439.857552" y="154.772132" style="fill: #2c3e50; stroke: #ffffff; stroke-linejoin: miter"/>
    </g>
   </g>
   <g id="line2d_76">
    <path d="M 475.000468 285.704616 
L 508.841794 285.704616 
" clip-path="url(#p3e074c2f1c)" style="fill: none; stroke: #ffffff; stroke-width: 2.5"/>
   </g>
   <g id="line2d_77">
    <g clip-path="url(#p3e074c2f1c)">
     <use xlink:href="#m183658e2e3" x="491.921131" y="242.207935" style="fill: #2c3e50; stroke: #ffffff; stroke-linejoin: miter"/>
    </g>
   </g>
   <g id="line2d_78">
    <path d="M 527.064047 167.677355 
L 560.905373 167.677355 
" clip-path="url(#p3e074c2f1c)" style="fill: none; stroke: #ffffff; stroke-width: 2.5"/>
   </g>
   <g id="line2d_79">
    <g clip-path="url(#p3e074c2f1c)">
     <use xlink:href="#m183658e2e3" x="543.98471" y="167.677355" style="fill: #2c3e50; stroke: #ffffff; stroke-linejoin: miter"/>
    </g>
   </g>
   <g id="line2d_80">
    <path d="M 631.191205 238.072356 
L 665.032531 238.072356 
" clip-path="url(#p3e074c2f1c)" style="fill: none; stroke: #ffffff; stroke-width: 2.5"/>
   </g>
   <g id="line2d_81">
    <g clip-path="url(#p3e074c2f1c)">
     <use xlink:href="#m183658e2e3" x="648.111868" y="238.072356" style="fill: #2c3e50; stroke: #ffffff; stroke-linejoin: miter"/>
    </g>
   </g>
   <g id="line2d_82">
    <path d="M 683.254783 218.824051 
L 717.09611 218.824051 
" clip-path="url(#p3e074c2f1c)" style="fill: none; stroke: #ffffff; stroke-width: 2.5"/>
   </g>
   <g id="line2d_83">
    <g clip-path="url(#p3e074c2f1c)">
     <use xlink:href="#m183658e2e3" x="700.175447" y="218.824051" style="fill: #2c3e50; stroke: #ffffff; stroke-linejoin: miter"/>
    </g>
   </g>
   <g id="patch_12">
    <path d="M 75.4125 428.224 
L 75.4125 53.532 
" style="fill: none; stroke: #ffffff; stroke-width: 1.25; stroke-linejoin: miter; stroke-linecap: square"/>
   </g>
   <g id="patch_13">
    <path d="M 986.52513 428.224 
L 986.52513 53.532 
" style="fill: none; stroke: #ffffff; stroke-width: 1.25; stroke-linejoin: miter; stroke-linecap: square"/>
   </g>
   <g id="patch_14">
    <path d="M 75.4125 428.224 
L 986.52513 428.224 
" style="fill: none; stroke: #ffffff; stroke-width: 1.25; stroke-linejoin: miter; stroke-linecap: square"/>
   </g>
   <g id="patch_15">
    <path d="M 75.4125 53.532 
L 986.52513 53.532 
" style="fill: none; stroke: #ffffff; stroke-width: 1.25; stroke-linejoin: miter; stroke-linecap: square"/>
   </g>
   <g id="text_6">
    <g id="patch_16">
     <path d="M 903.502878 413.74248 
L 968.302878 413.74248 
Q 976.302878 413.74248 976.302878 405.74248 
L 976.302878 390.25748 
Q 976.302878 382.25748 968.302878 382.25748 
L 903.502878 382.25748 
Q 895.502878 382.25748 895.502878 390.25748 
L 895.502878 405.74248 
Q 895.502878 413.74248 903.502878 413.74248 
z
" style="fill: #2c3e50; opacity: 0.95; stroke: #7f8c8d; stroke-width: 1.5; stroke-linejoin: miter"/>
    </g>
    <!-- $n_{max}=5$ -->
    <g style="fill: #ffffff" transform="translate(903.502878 402.41498) scale(0.16 -0.16)">
     <defs>
      <path id="DejaVuSans-Oblique-6e" d="M 3566 2113 
L 3156 0 
L 2578 0 
L 2988 2091 
Q 3016 2238 3031 2350 
Q 3047 2463 3047 2528 
Q 3047 2791 2881 2937 
Q 2716 3084 2419 3084 
Q 1956 3084 1622 2776 
Q 1288 2469 1184 1941 
L 800 0 
L 225 0 
L 903 3500 
L 1478 3500 
L 1363 2950 
Q 1603 3253 1940 3418 
Q 2278 3584 2650 3584 
Q 3113 3584 3367 3334 
Q 3622 3084 3622 2631 
Q 3622 2519 3608 2391 
Q 3594 2263 3566 2113 
z
" transform="scale(0.015625)"/>
      <path id="DejaVuSans-Oblique-6d" d="M 5747 2113 
L 5338 0 
L 4763 0 
L 5166 2094 
Q 5191 2228 5203 2325 
Q 5216 2422 5216 2491 
Q 5216 2772 5059 2928 
Q 4903 3084 4622 3084 
Q 4203 3084 3875 2770 
Q 3547 2456 3450 1953 
L 3066 0 
L 2491 0 
L 2900 2094 
Q 2925 2209 2937 2307 
Q 2950 2406 2950 2484 
Q 2950 2769 2794 2926 
Q 2638 3084 2363 3084 
Q 1938 3084 1609 2770 
Q 1281 2456 1184 1953 
L 800 0 
L 225 0 
L 909 3500 
L 1484 3500 
L 1375 2956 
Q 1609 3263 1923 3423 
Q 2238 3584 2597 3584 
Q 2978 3584 3223 3384 
Q 3469 3184 3519 2828 
Q 3781 3197 4126 3390 
Q 4472 3584 4856 3584 
Q 5306 3584 5551 3325 
Q 5797 3066 5797 2591 
Q 5797 2488 5784 2364 
Q 5772 2241 5747 2113 
z
" transform="scale(0.015625)"/>
      <path id="DejaVuSans-Oblique-61" d="M 3438 1997 
L 3047 0 
L 2472 0 
L 2578 531 
Q 2325 219 2001 64 
Q 1678 -91 1281 -91 
Q 834 -91 548 182 
Q 263 456 263 884 
Q 263 1497 752 1853 
Q 1241 2209 2100 2209 
L 2900 2209 
L 2931 2363 
Q 2938 2388 2941 2417 
Q 2944 2447 2944 2509 
Q 2944 2788 2717 2942 
Q 2491 3097 2081 3097 
Q 1800 3097 1504 3025 
Q 1209 2953 897 2809 
L 997 3341 
Q 1322 3463 1633 3523 
Q 1944 3584 2234 3584 
Q 2853 3584 3176 3315 
Q 3500 3047 3500 2534 
Q 3500 2431 3484 2292 
Q 3469 2153 3438 1997 
z
M 2816 1759 
L 2241 1759 
Q 1534 1759 1195 1570 
Q 856 1381 856 984 
Q 856 709 1029 553 
Q 1203 397 1509 397 
Q 1978 397 2328 733 
Q 2678 1069 2791 1631 
L 2816 1759 
z
" transform="scale(0.015625)"/>
      <path id="DejaVuSans-Oblique-78" d="M 3841 3500 
L 2234 1784 
L 3219 0 
L 2559 0 
L 1819 1388 
L 531 0 
L -166 0 
L 1556 1844 
L 641 3500 
L 1300 3500 
L 1972 2234 
L 3144 3500 
L 3841 3500 
z
" transform="scale(0.015625)"/>
      <path id="DejaVuSans-3d" d="M 678 2906 
L 4684 2906 
L 4684 2381 
L 678 2381 
L 678 2906 
z
M 678 1631 
L 4684 1631 
L 4684 1100 
L 678 1100 
L 678 1631 
z
" transform="scale(0.015625)"/>
      <path id="DejaVuSans-35" d="M 691 4666 
L 3169 4666 
L 3169 4134 
L 1269 4134 
L 1269 2991 
Q 1406 3038 1543 3061 
Q 1681 3084 1819 3084 
Q 2600 3084 3056 2656 
Q 3513 2228 3513 1497 
Q 3513 744 3044 326 
Q 2575 -91 1722 -91 
Q 1428 -91 1123 -41 
Q 819 9 494 109 
L 494 744 
Q 775 591 1075 516 
Q 1375 441 1709 441 
Q 2250 441 2565 725 
Q 2881 1009 2881 1497 
Q 2881 1984 2565 2268 
Q 2250 2553 1709 2553 
Q 1456 2553 1204 2497 
Q 953 2441 691 2322 
L 691 4666 
z
" transform="scale(0.015625)"/>
     </defs>
     <use xlink:href="#DejaVuSans-Oblique-6e" transform="translate(0 0.09375)"/>
     <use xlink:href="#DejaVuSans-Oblique-6d" transform="translate(63.378906 -16.3125) scale(0.7)"/>
     <use xlink:href="#DejaVuSans-Oblique-61" transform="translate(131.567383 -16.3125) scale(0.7)"/>
     <use xlink:href="#DejaVuSans-Oblique-78" transform="translate(174.462891 -16.3125) scale(0.7)"/>
     <use xlink:href="#DejaVuSans-3d" transform="translate(238.105469 0.09375)"/>
     <use xlink:href="#DejaVuSans-35" transform="translate(341.376953 0.09375)"/>
    </g>
   </g>
   <g id="legend_1">
    <g id="patch_17">
     <path d="M 835.64013 162.272 
L 977.32513 162.272 
Q 980.52513 162.272 980.52513 159.072 
L 980.52513 66.732 
Q 980.52513 63.532 977.32513 63.532 
L 835.64013 63.532 
Q 832.44013 63.532 832.44013 66.732 
L 832.44013 159.072 
Q 832.44013 162.272 835.64013 162.272 
z
" style="opacity: 0.5; stroke: #000000; stroke-linejoin: miter"/>
    </g>
    <g id="patch_18">
     <path d="M 833.64013 160.272 
L 975.32513 160.272 
Q 978.52513 160.272 978.52513 157.072 
L 978.52513 64.732 
Q 978.52513 61.532 975.32513 61.532 
L 833.64013 61.532 
Q 830.44013 61.532 830.44013 64.732 
L 830.44013 157.072 
Q 830.44013 160.272 833.64013 160.272 
z
" style="opacity: 0.95; stroke: #cccccc; stroke-linejoin: miter"/>
    </g>
    <g id="patch_19">
     <path d="M 836.84013 80.0895 
L 868.84013 80.0895 
L 868.84013 68.8895 
L 836.84013 68.8895 
z
" style="fill: #d1d1d1; opacity: 0.8; stroke: #000000; stroke-width: 0.5; stroke-linejoin: miter"/>
    </g>
    <g id="text_7">
     <!-- Noise: 0.0 -->
     <g style="fill: #ffffff" transform="translate(881.64013 80.0895) scale(0.16 -0.16)">
      <defs>
       <path id="DejaVuSans-6f" d="M 1959 3097 
Q 1497 3097 1228 2736 
Q 959 2375 959 1747 
Q 959 1119 1226 758 
Q 1494 397 1959 397 
Q 2419 397 2687 759 
Q 2956 1122 2956 1747 
Q 2956 2369 2687 2733 
Q 2419 3097 1959 3097 
z
M 1959 3584 
Q 2709 3584 3137 3096 
Q 3566 2609 3566 1747 
Q 3566 888 3137 398 
Q 2709 -91 1959 -91 
Q 1206 -91 779 398 
Q 353 888 353 1747 
Q 353 2609 779 3096 
Q 1206 3584 1959 3584 
z
" transform="scale(0.015625)"/>
       <path id="DejaVuSans-69" d="M 603 3500 
L 1178 3500 
L 1178 0 
L 603 0 
L 603 3500 
z
M 603 4863 
L 1178 4863 
L 1178 4134 
L 603 4134 
L 603 4863 
z
" transform="scale(0.015625)"/>
       <path id="DejaVuSans-73" d="M 2834 3397 
L 2834 2853 
Q 2591 2978 2328 3040 
Q 2066 3103 1784 3103 
Q 1356 3103 1142 2972 
Q 928 2841 928 2578 
Q 928 2378 1081 2264 
Q 1234 2150 1697 2047 
L 1894 2003 
Q 2506 1872 2764 1633 
Q 3022 1394 3022 966 
Q 3022 478 2636 193 
Q 2250 -91 1575 -91 
Q 1294 -91 989 -36 
Q 684 19 347 128 
L 347 722 
Q 666 556 975 473 
Q 1284 391 1588 391 
Q 1994 391 2212 530 
Q 2431 669 2431 922 
Q 2431 1156 2273 1281 
Q 2116 1406 1581 1522 
L 1381 1569 
Q 847 1681 609 1914 
Q 372 2147 372 2553 
Q 372 3047 722 3315 
Q 1072 3584 1716 3584 
Q 2034 3584 2315 3537 
Q 2597 3491 2834 3397 
z
" transform="scale(0.015625)"/>
       <path id="DejaVuSans-3a" d="M 750 794 
L 1409 794 
L 1409 0 
L 750 0 
L 750 794 
z
M 750 3309 
L 1409 3309 
L 1409 2516 
L 750 2516 
L 750 3309 
z
" transform="scale(0.015625)"/>
       <path id="DejaVuSans-2e" d="M 684 794 
L 1344 794 
L 1344 0 
L 684 0 
L 684 794 
z
" transform="scale(0.015625)"/>
      </defs>
      <use xlink:href="#DejaVuSans-4e"/>
      <use xlink:href="#DejaVuSans-6f" transform="translate(74.804688 0)"/>
      <use xlink:href="#DejaVuSans-69" transform="translate(135.986328 0)"/>
      <use xlink:href="#DejaVuSans-73" transform="translate(163.769531 0)"/>
      <use xlink:href="#DejaVuSans-65" transform="translate(215.869141 0)"/>
      <use xlink:href="#DejaVuSans-3a" transform="translate(277.392578 0)"/>
      <use xlink:href="#DejaVuSans-20" transform="translate(311.083984 0)"/>
      <use xlink:href="#DejaVuSans-30" transform="translate(342.871094 0)"/>
      <use xlink:href="#DejaVuSans-2e" transform="translate(406.494141 0)"/>
      <use xlink:href="#DejaVuSans-30" transform="translate(438.28125 0)"/>
     </g>
    </g>
    <g id="patch_20">
     <path d="M 836.84013 103.5745 
L 868.84013 103.5745 
L 868.84013 92.3745 
L 836.84013 92.3745 
z
" style="fill: #adadad; opacity: 0.8; stroke: #000000; stroke-width: 0.5; stroke-linejoin: miter"/>
    </g>
    <g id="text_8">
     <!-- Noise: 0.01 -->
     <g style="fill: #ffffff" transform="translate(881.64013 103.5745) scale(0.16 -0.16)">
      <use xlink:href="#DejaVuSans-4e"/>
      <use xlink:href="#DejaVuSans-6f" transform="translate(74.804688 0)"/>
      <use xlink:href="#DejaVuSans-69" transform="translate(135.986328 0)"/>
      <use xlink:href="#DejaVuSans-73" transform="translate(163.769531 0)"/>
      <use xlink:href="#DejaVuSans-65" transform="translate(215.869141 0)"/>
      <use xlink:href="#DejaVuSans-3a" transform="translate(277.392578 0)"/>
      <use xlink:href="#DejaVuSans-20" transform="translate(311.083984 0)"/>
      <use xlink:href="#DejaVuSans-30" transform="translate(342.871094 0)"/>
      <use xlink:href="#DejaVuSans-2e" transform="translate(406.494141 0)"/>
      <use xlink:href="#DejaVuSans-30" transform="translate(438.28125 0)"/>
      <use xlink:href="#DejaVuSans-31" transform="translate(501.904297 0)"/>
     </g>
    </g>
    <g id="patch_21">
     <path d="M 836.84013 127.0595 
L 868.84013 127.0595 
L 868.84013 115.8595 
L 836.84013 115.8595 
z
" style="fill: #8a8a8a; opacity: 0.8; stroke: #000000; stroke-width: 0.5; stroke-linejoin: miter"/>
    </g>
    <g id="text_9">
     <!-- Noise: 0.1 -->
     <g style="fill: #ffffff" transform="translate(881.64013 127.0595) scale(0.16 -0.16)">
      <use xlink:href="#DejaVuSans-4e"/>
      <use xlink:href="#DejaVuSans-6f" transform="translate(74.804688 0)"/>
      <use xlink:href="#DejaVuSans-69" transform="translate(135.986328 0)"/>
      <use xlink:href="#DejaVuSans-73" transform="translate(163.769531 0)"/>
      <use xlink:href="#DejaVuSans-65" transform="translate(215.869141 0)"/>
      <use xlink:href="#DejaVuSans-3a" transform="translate(277.392578 0)"/>
      <use xlink:href="#DejaVuSans-20" transform="translate(311.083984 0)"/>
      <use xlink:href="#DejaVuSans-30" transform="translate(342.871094 0)"/>
      <use xlink:href="#DejaVuSans-2e" transform="translate(406.494141 0)"/>
      <use xlink:href="#DejaVuSans-31" transform="translate(438.28125 0)"/>
     </g>
    </g>
    <g id="patch_22">
     <path d="M 836.84013 150.5445 
L 868.84013 150.5445 
L 868.84013 139.3445 
L 836.84013 139.3445 
z
" style="fill: #666666; opacity: 0.8; stroke: #000000; stroke-width: 0.5; stroke-linejoin: miter"/>
    </g>
    <g id="text_10">
     <!-- Noise: 0.2 -->
     <g style="fill: #ffffff" transform="translate(881.64013 150.5445) scale(0.16 -0.16)">
      <defs>
       <path id="DejaVuSans-32" d="M 1228 531 
L 3431 531 
L 3431 0 
L 469 0 
L 469 531 
Q 828 903 1448 1529 
Q 2069 2156 2228 2338 
Q 2531 2678 2651 2914 
Q 2772 3150 2772 3378 
Q 2772 3750 2511 3984 
Q 2250 4219 1831 4219 
Q 1534 4219 1204 4116 
Q 875 4013 500 3803 
L 500 4441 
Q 881 4594 1212 4672 
Q 1544 4750 1819 4750 
Q 2544 4750 2975 4387 
Q 3406 4025 3406 3419 
Q 3406 3131 3298 2873 
Q 3191 2616 2906 2266 
Q 2828 2175 2409 1742 
Q 1991 1309 1228 531 
z
" transform="scale(0.015625)"/>
      </defs>
      <use xlink:href="#DejaVuSans-4e"/>
      <use xlink:href="#DejaVuSans-6f" transform="translate(74.804688 0)"/>
      <use xlink:href="#DejaVuSans-69" transform="translate(135.986328 0)"/>
      <use xlink:href="#DejaVuSans-73" transform="translate(163.769531 0)"/>
      <use xlink:href="#DejaVuSans-65" transform="translate(215.869141 0)"/>
      <use xlink:href="#DejaVuSans-3a" transform="translate(277.392578 0)"/>
      <use xlink:href="#DejaVuSans-20" transform="translate(311.083984 0)"/>
      <use xlink:href="#DejaVuSans-30" transform="translate(342.871094 0)"/>
      <use xlink:href="#DejaVuSans-2e" transform="translate(406.494141 0)"/>
      <use xlink:href="#DejaVuSans-32" transform="translate(438.28125 0)"/>
     </g>
    </g>
   </g>
  </g>
  <g id="text_11">
   <!-- Validation Error Comparison (Log Scale) -->
   <g style="fill: #ffffff" transform="translate(270.998318 22.396875) scale(0.2 -0.2)">
    <defs>
     <path id="DejaVuSans-Bold-56" d="M 31 4666 
L 1241 4666 
L 2478 1222 
L 3713 4666 
L 4922 4666 
L 3194 0 
L 1759 0 
L 31 4666 
z
" transform="scale(0.015625)"/>
     <path id="DejaVuSans-Bold-61" d="M 2106 1575 
Q 1756 1575 1579 1456 
Q 1403 1338 1403 1106 
Q 1403 894 1545 773 
Q 1688 653 1941 653 
Q 2256 653 2472 879 
Q 2688 1106 2688 1447 
L 2688 1575 
L 2106 1575 
z
M 3816 1997 
L 3816 0 
L 2688 0 
L 2688 519 
Q 2463 200 2181 54 
Q 1900 -91 1497 -91 
Q 953 -91 614 226 
Q 275 544 275 1050 
Q 275 1666 698 1953 
Q 1122 2241 2028 2241 
L 2688 2241 
L 2688 2328 
Q 2688 2594 2478 2717 
Q 2269 2841 1825 2841 
Q 1466 2841 1156 2769 
Q 847 2697 581 2553 
L 581 3406 
Q 941 3494 1303 3539 
Q 1666 3584 2028 3584 
Q 2975 3584 3395 3211 
Q 3816 2838 3816 1997 
z
" transform="scale(0.015625)"/>
     <path id="DejaVuSans-Bold-69" d="M 538 3500 
L 1656 3500 
L 1656 0 
L 538 0 
L 538 3500 
z
M 538 4863 
L 1656 4863 
L 1656 3950 
L 538 3950 
L 538 4863 
z
" transform="scale(0.015625)"/>
     <path id="DejaVuSans-Bold-64" d="M 2919 2988 
L 2919 4863 
L 4044 4863 
L 4044 0 
L 2919 0 
L 2919 506 
Q 2688 197 2409 53 
Q 2131 -91 1766 -91 
Q 1119 -91 703 423 
Q 288 938 288 1747 
Q 288 2556 703 3070 
Q 1119 3584 1766 3584 
Q 2128 3584 2408 3439 
Q 2688 3294 2919 2988 
z
M 2181 722 
Q 2541 722 2730 984 
Q 2919 1247 2919 1747 
Q 2919 2247 2730 2509 
Q 2541 2772 2181 2772 
Q 1825 2772 1636 2509 
Q 1447 2247 1447 1747 
Q 1447 1247 1636 984 
Q 1825 722 2181 722 
z
" transform="scale(0.015625)"/>
     <path id="DejaVuSans-Bold-6f" d="M 2203 2784 
Q 1831 2784 1636 2517 
Q 1441 2250 1441 1747 
Q 1441 1244 1636 976 
Q 1831 709 2203 709 
Q 2569 709 2762 976 
Q 2956 1244 2956 1747 
Q 2956 2250 2762 2517 
Q 2569 2784 2203 2784 
z
M 2203 3584 
Q 3106 3584 3614 3096 
Q 4122 2609 4122 1747 
Q 4122 884 3614 396 
Q 3106 -91 2203 -91 
Q 1297 -91 786 396 
Q 275 884 275 1747 
Q 275 2609 786 3096 
Q 1297 3584 2203 3584 
z
" transform="scale(0.015625)"/>
     <path id="DejaVuSans-Bold-6e" d="M 4056 2131 
L 4056 0 
L 2931 0 
L 2931 347 
L 2931 1631 
Q 2931 2084 2911 2256 
Q 2891 2428 2841 2509 
Q 2775 2619 2662 2680 
Q 2550 2741 2406 2741 
Q 2056 2741 1856 2470 
Q 1656 2200 1656 1722 
L 1656 0 
L 538 0 
L 538 3500 
L 1656 3500 
L 1656 2988 
Q 1909 3294 2193 3439 
Q 2478 3584 2822 3584 
Q 3428 3584 3742 3212 
Q 4056 2841 4056 2131 
z
" transform="scale(0.015625)"/>
     <path id="DejaVuSans-Bold-45" d="M 588 4666 
L 3834 4666 
L 3834 3756 
L 1791 3756 
L 1791 2888 
L 3713 2888 
L 3713 1978 
L 1791 1978 
L 1791 909 
L 3903 909 
L 3903 0 
L 588 0 
L 588 4666 
z
" transform="scale(0.015625)"/>
     <path id="DejaVuSans-Bold-72" d="M 3138 2547 
Q 2991 2616 2845 2648 
Q 2700 2681 2553 2681 
Q 2122 2681 1889 2404 
Q 1656 2128 1656 1613 
L 1656 0 
L 538 0 
L 538 3500 
L 1656 3500 
L 1656 2925 
Q 1872 3269 2151 3426 
Q 2431 3584 2822 3584 
Q 2878 3584 2943 3579 
Q 3009 3575 3134 3559 
L 3138 2547 
z
" transform="scale(0.015625)"/>
     <path id="DejaVuSans-Bold-43" d="M 4288 256 
Q 3956 84 3597 -3 
Q 3238 -91 2847 -91 
Q 1681 -91 1000 561 
Q 319 1213 319 2328 
Q 319 3447 1000 4098 
Q 1681 4750 2847 4750 
Q 3238 4750 3597 4662 
Q 3956 4575 4288 4403 
L 4288 3438 
Q 3953 3666 3628 3772 
Q 3303 3878 2944 3878 
Q 2300 3878 1931 3465 
Q 1563 3053 1563 2328 
Q 1563 1606 1931 1193 
Q 2300 781 2944 781 
Q 3303 781 3628 887 
Q 3953 994 4288 1222 
L 4288 256 
z
" transform="scale(0.015625)"/>
     <path id="DejaVuSans-Bold-70" d="M 1656 506 
L 1656 -1331 
L 538 -1331 
L 538 3500 
L 1656 3500 
L 1656 2988 
Q 1888 3294 2169 3439 
Q 2450 3584 2816 3584 
Q 3463 3584 3878 3070 
Q 4294 2556 4294 1747 
Q 4294 938 3878 423 
Q 3463 -91 2816 -91 
Q 2450 -91 2169 54 
Q 1888 200 1656 506 
z
M 2400 2772 
Q 2041 2772 1848 2508 
Q 1656 2244 1656 1747 
Q 1656 1250 1848 986 
Q 2041 722 2400 722 
Q 2759 722 2948 984 
Q 3138 1247 3138 1747 
Q 3138 2247 2948 2509 
Q 2759 2772 2400 2772 
z
" transform="scale(0.015625)"/>
     <path id="DejaVuSans-Bold-28" d="M 2413 -844 
L 1484 -844 
Q 1006 -72 778 623 
Q 550 1319 550 2003 
Q 550 2688 779 3389 
Q 1009 4091 1484 4856 
L 2413 4856 
Q 2013 4116 1813 3408 
Q 1613 2700 1613 2009 
Q 1613 1319 1811 609 
Q 2009 -100 2413 -844 
z
" transform="scale(0.015625)"/>
     <path id="DejaVuSans-Bold-4c" d="M 588 4666 
L 1791 4666 
L 1791 909 
L 3903 909 
L 3903 0 
L 588 0 
L 588 4666 
z
" transform="scale(0.015625)"/>
     <path id="DejaVuSans-Bold-67" d="M 2919 594 
Q 2688 288 2409 144 
Q 2131 0 1766 0 
Q 1125 0 706 504 
Q 288 1009 288 1791 
Q 288 2575 706 3076 
Q 1125 3578 1766 3578 
Q 2131 3578 2409 3434 
Q 2688 3291 2919 2981 
L 2919 3500 
L 4044 3500 
L 4044 353 
Q 4044 -491 3511 -936 
Q 2978 -1381 1966 -1381 
Q 1638 -1381 1331 -1331 
Q 1025 -1281 716 -1178 
L 716 -306 
Q 1009 -475 1290 -558 
Q 1572 -641 1856 -641 
Q 2406 -641 2662 -400 
Q 2919 -159 2919 353 
L 2919 594 
z
M 2181 2772 
Q 1834 2772 1640 2515 
Q 1447 2259 1447 1791 
Q 1447 1309 1634 1061 
Q 1822 813 2181 813 
Q 2531 813 2725 1069 
Q 2919 1325 2919 1791 
Q 2919 2259 2725 2515 
Q 2531 2772 2181 2772 
z
" transform="scale(0.015625)"/>
     <path id="DejaVuSans-Bold-63" d="M 3366 3391 
L 3366 2478 
Q 3138 2634 2908 2709 
Q 2678 2784 2431 2784 
Q 1963 2784 1702 2511 
Q 1441 2238 1441 1747 
Q 1441 1256 1702 982 
Q 1963 709 2431 709 
Q 2694 709 2930 787 
Q 3166 866 3366 1019 
L 3366 103 
Q 3103 6 2833 -42 
Q 2563 -91 2291 -91 
Q 1344 -91 809 395 
Q 275 881 275 1747 
Q 275 2613 809 3098 
Q 1344 3584 2291 3584 
Q 2566 3584 2833 3536 
Q 3100 3488 3366 3391 
z
" transform="scale(0.015625)"/>
     <path id="DejaVuSans-Bold-29" d="M 513 -844 
Q 913 -100 1113 609 
Q 1313 1319 1313 2009 
Q 1313 2700 1113 3408 
Q 913 4116 513 4856 
L 1441 4856 
Q 1916 4091 2145 3389 
Q 2375 2688 2375 2003 
Q 2375 1319 2147 623 
Q 1919 -72 1441 -844 
L 513 -844 
z
" transform="scale(0.015625)"/>
    </defs>
    <use xlink:href="#DejaVuSans-Bold-56"/>
    <use xlink:href="#DejaVuSans-Bold-61" transform="translate(71.892578 0)"/>
    <use xlink:href="#DejaVuSans-Bold-6c" transform="translate(139.373047 0)"/>
    <use xlink:href="#DejaVuSans-Bold-69" transform="translate(173.650391 0)"/>
    <use xlink:href="#DejaVuSans-Bold-64" transform="translate(207.927734 0)"/>
    <use xlink:href="#DejaVuSans-Bold-61" transform="translate(279.509766 0)"/>
    <use xlink:href="#DejaVuSans-Bold-74" transform="translate(346.990234 0)"/>
    <use xlink:href="#DejaVuSans-Bold-69" transform="translate(394.792969 0)"/>
    <use xlink:href="#DejaVuSans-Bold-6f" transform="translate(429.070312 0)"/>
    <use xlink:href="#DejaVuSans-Bold-6e" transform="translate(497.771484 0)"/>
    <use xlink:href="#DejaVuSans-Bold-20" transform="translate(568.962891 0)"/>
    <use xlink:href="#DejaVuSans-Bold-45" transform="translate(603.777344 0)"/>
    <use xlink:href="#DejaVuSans-Bold-72" transform="translate(672.087891 0)"/>
    <use xlink:href="#DejaVuSans-Bold-72" transform="translate(721.404297 0)"/>
    <use xlink:href="#DejaVuSans-Bold-6f" transform="translate(770.720703 0)"/>
    <use xlink:href="#DejaVuSans-Bold-72" transform="translate(839.421875 0)"/>
    <use xlink:href="#DejaVuSans-Bold-20" transform="translate(888.738281 0)"/>
    <use xlink:href="#DejaVuSans-Bold-43" transform="translate(923.552734 0)"/>
    <use xlink:href="#DejaVuSans-Bold-6f" transform="translate(996.941406 0)"/>
    <use xlink:href="#DejaVuSans-Bold-6d" transform="translate(1065.642578 0)"/>
    <use xlink:href="#DejaVuSans-Bold-70" transform="translate(1169.841797 0)"/>
    <use xlink:href="#DejaVuSans-Bold-61" transform="translate(1241.423828 0)"/>
    <use xlink:href="#DejaVuSans-Bold-72" transform="translate(1308.904297 0)"/>
    <use xlink:href="#DejaVuSans-Bold-69" transform="translate(1358.220703 0)"/>
    <use xlink:href="#DejaVuSans-Bold-73" transform="translate(1392.498047 0)"/>
    <use xlink:href="#DejaVuSans-Bold-6f" transform="translate(1452.019531 0)"/>
    <use xlink:href="#DejaVuSans-Bold-6e" transform="translate(1520.720703 0)"/>
    <use xlink:href="#DejaVuSans-Bold-20" transform="translate(1591.912109 0)"/>
    <use xlink:href="#DejaVuSans-Bold-28" transform="translate(1626.726562 0)"/>
    <use xlink:href="#DejaVuSans-Bold-4c" transform="translate(1672.429688 0)"/>
    <use xlink:href="#DejaVuSans-Bold-6f" transform="translate(1736.150391 0)"/>
    <use xlink:href="#DejaVuSans-Bold-67" transform="translate(1804.851562 0)"/>
    <use xlink:href="#DejaVuSans-Bold-20" transform="translate(1876.433594 0)"/>
    <use xlink:href="#DejaVuSans-Bold-53" transform="translate(1911.248047 0)"/>
    <use xlink:href="#DejaVuSans-Bold-63" transform="translate(1983.269531 0)"/>
    <use xlink:href="#DejaVuSans-Bold-61" transform="translate(2042.546875 0)"/>
    <use xlink:href="#DejaVuSans-Bold-6c" transform="translate(2110.027344 0)"/>
    <use xlink:href="#DejaVuSans-Bold-65" transform="translate(2144.304688 0)"/>
    <use xlink:href="#DejaVuSans-Bold-29" transform="translate(2212.126953 0)"/>
   </g>
  </g>
 </g>
 <defs>
  <clipPath id="p3e074c2f1c">
   <rect x="75.4125" y="53.532" width="911.11263" height="374.692"/>
  </clipPath>
 </defs>
</svg>
