<?xml version="1.0" encoding="utf-8" standalone="no"?>
<!DOCTYPE svg PUBLIC "-//W3C//DTD SVG 1.1//EN"
  "http://www.w3.org/Graphics/SVG/1.1/DTD/svg11.dtd">
<svg xmlns:xlink="http://www.w3.org/1999/xlink" width="1000.63713pt" height="469.671875pt" viewBox="0 0 1000.63713 469.671875" xmlns="http://www.w3.org/2000/svg" version="1.1">
 <metadata>
  <rdf:RDF xmlns:dc="http://purl.org/dc/elements/1.1/" xmlns:cc="http://creativecommons.org/ns#" xmlns:rdf="http://www.w3.org/1999/02/22-rdf-syntax-ns#">
   <cc:Work>
    <dc:type rdf:resource="http://purl.org/dc/dcmitype/StillImage"/>
    <dc:date>2026-01-21T20:00:46.488241</dc:date>
    <dc:format>image/svg+xml</dc:format>
    <dc:creator>
     <cc:Agent>
      <dc:title>Matplotlib v3.10.8, https://matplotlib.org/</dc:title>
     </cc:Agent>
    </dc:creator>
   </cc:Work>
  </rdf:RDF>
 </metadata>
 <defs>
  <style type="text/css">*{stroke-linejoin: round; stroke-linecap: butt}</style>
 </defs>
 <g id="figure_1">
  <g id="patch_1">
   <path d="M 0 469.671875 
L 1000.63713 469.671875 
L 1000.63713 -0 
L 0 -0 
L 0 469.671875 
z
" style="fill: none"/>
  </g>
  <g id="axes_1">
   <g id="patch_2">
    <path d="M 72.9125 434.18 
L 993.43713 434.18 
L 993.43713 46.62 
L 72.9125 46.62 
L 72.9125 434.18 
z
" style="fill: none"/>
   </g>
   <g id="matplotlib.axis_1">
    <g id="xtick_1">
     <g id="line2d_1">
      <defs>
       <path id="mca6119e1ab" d="M 0 0 
L 0 3.5 
" style="stroke: #000000; stroke-width: 0.8"/>
      </defs>
      <g>
       <use xlink:href="#mca6119e1ab" x="204.416019" y="434.18" style="stroke: #000000; stroke-width: 0.8"/>
      </g>
     </g>
     <g id="text_1">
      <!-- UNI-SINDy (new) -->
      <g transform="translate(112.669144 457.896563) scale(0.22 -0.22)">
       <defs>
        <path id="DejaVuSans-55" d="M 556 4666 
L 1191 4666 
L 1191 1831 
Q 1191 1081 1462 751 
Q 1734 422 2344 422 
Q 2950 422 3222 751 
Q 3494 1081 3494 1831 
L 3494 4666 
L 4128 4666 
L 4128 1753 
Q 4128 841 3676 375 
Q 3225 -91 2344 -91 
Q 1459 -91 1007 375 
Q 556 841 556 1753 
L 556 4666 
z
" transform="scale(0.015625)"/>
        <path id="DejaVuSans-4e" d="M 628 4666 
L 1478 4666 
L 3547 763 
L 3547 4666 
L 4159 4666 
L 4159 0 
L 3309 0 
L 1241 3903 
L 1241 0 
L 628 0 
L 628 4666 
z
" transform="scale(0.015625)"/>
        <path id="DejaVuSans-49" d="M 628 4666 
L 1259 4666 
L 1259 0 
L 628 0 
L 628 4666 
z
" transform="scale(0.015625)"/>
        <path id="DejaVuSans-2d" d="M 313 2009 
L 1997 2009 
L 1997 1497 
L 313 1497 
L 313 2009 
z
" transform="scale(0.015625)"/>
        <path id="DejaVuSans-53" d="M 3425 4513 
L 3425 3897 
Q 3066 4069 2747 4153 
Q 2428 4238 2131 4238 
Q 1616 4238 1336 4038 
Q 1056 3838 1056 3469 
Q 1056 3159 1242 3001 
Q 1428 2844 1947 2747 
L 2328 2669 
Q 3034 2534 3370 2195 
Q 3706 1856 3706 1288 
Q 3706 609 3251 259 
Q 2797 -91 1919 -91 
Q 1588 -91 1214 -16 
Q 841 59 441 206 
L 441 856 
Q 825 641 1194 531 
Q 1563 422 1919 422 
Q 2459 422 2753 634 
Q 3047 847 3047 1241 
Q 3047 1584 2836 1778 
Q 2625 1972 2144 2069 
L 1759 2144 
Q 1053 2284 737 2584 
Q 422 2884 422 3419 
Q 422 4038 858 4394 
Q 1294 4750 2059 4750 
Q 2388 4750 2728 4690 
Q 3069 4631 3425 4513 
z
" transform="scale(0.015625)"/>
        <path id="DejaVuSans-44" d="M 1259 4147 
L 1259 519 
L 2022 519 
Q 2988 519 3436 956 
Q 3884 1394 3884 2338 
Q 3884 3275 3436 3711 
Q 2988 4147 2022 4147 
L 1259 4147 
z
M 628 4666 
L 1925 4666 
Q 3281 4666 3915 4102 
Q 4550 3538 4550 2338 
Q 4550 1131 3912 565 
Q 3275 0 1925 0 
L 628 0 
L 628 4666 
z
" transform="scale(0.015625)"/>
        <path id="DejaVuSans-79" d="M 2059 -325 
Q 1816 -950 1584 -1140 
Q 1353 -1331 966 -1331 
L 506 -1331 
L 506 -850 
L 844 -850 
Q 1081 -850 1212 -737 
Q 1344 -625 1503 -206 
L 1606 56 
L 191 3500 
L 800 3500 
L 1894 763 
L 2988 3500 
L 3597 3500 
L 2059 -325 
z
" transform="scale(0.015625)"/>
        <path id="DejaVuSans-20" transform="scale(0.015625)"/>
        <path id="DejaVuSans-28" d="M 1984 4856 
Q 1566 4138 1362 3434 
Q 1159 2731 1159 2009 
Q 1159 1288 1364 580 
Q 1569 -128 1984 -844 
L 1484 -844 
Q 1016 -109 783 600 
Q 550 1309 550 2009 
Q 550 2706 781 3412 
Q 1013 4119 1484 4856 
L 1984 4856 
z
" transform="scale(0.015625)"/>
        <path id="DejaVuSans-6e" d="M 3513 2113 
L 3513 0 
L 2938 0 
L 2938 2094 
Q 2938 2591 2744 2837 
Q 2550 3084 2163 3084 
Q 1697 3084 1428 2787 
Q 1159 2491 1159 1978 
L 1159 0 
L 581 0 
L 581 3500 
L 1159 3500 
L 1159 2956 
Q 1366 3272 1645 3428 
Q 1925 3584 2291 3584 
Q 2894 3584 3203 3211 
Q 3513 2838 3513 2113 
z
" transform="scale(0.015625)"/>
        <path id="DejaVuSans-65" d="M 3597 1894 
L 3597 1613 
L 953 1613 
Q 991 1019 1311 708 
Q 1631 397 2203 397 
Q 2534 397 2845 478 
Q 3156 559 3463 722 
L 3463 178 
Q 3153 47 2828 -22 
Q 2503 -91 2169 -91 
Q 1331 -91 842 396 
Q 353 884 353 1716 
Q 353 2575 817 3079 
Q 1281 3584 2069 3584 
Q 2775 3584 3186 3129 
Q 3597 2675 3597 1894 
z
M 3022 2063 
Q 3016 2534 2758 2815 
Q 2500 3097 2075 3097 
Q 1594 3097 1305 2825 
Q 1016 2553 972 2059 
L 3022 2063 
z
" transform="scale(0.015625)"/>
        <path id="DejaVuSans-77" d="M 269 3500 
L 844 3500 
L 1563 769 
L 2278 3500 
L 2956 3500 
L 3675 769 
L 4391 3500 
L 4966 3500 
L 4050 0 
L 3372 0 
L 2619 2869 
L 1863 0 
L 1184 0 
L 269 3500 
z
" transform="scale(0.015625)"/>
        <path id="DejaVuSans-29" d="M 513 4856 
L 1013 4856 
Q 1481 4119 1714 3412 
Q 1947 2706 1947 2009 
Q 1947 1309 1714 600 
Q 1481 -109 1013 -844 
L 513 -844 
Q 928 -128 1133 580 
Q 1338 1288 1338 2009 
Q 1338 2731 1133 3434 
Q 928 4138 513 4856 
z
" transform="scale(0.015625)"/>
       </defs>
       <use xlink:href="#DejaVuSans-55"/>
       <use xlink:href="#DejaVuSans-4e" transform="translate(73.193359 0)"/>
       <use xlink:href="#DejaVuSans-49" transform="translate(147.998047 0)"/>
       <use xlink:href="#DejaVuSans-2d" transform="translate(177.490234 0)"/>
       <use xlink:href="#DejaVuSans-53" transform="translate(213.574219 0)"/>
       <use xlink:href="#DejaVuSans-49" transform="translate(277.050781 0)"/>
       <use xlink:href="#DejaVuSans-4e" transform="translate(306.542969 0)"/>
       <use xlink:href="#DejaVuSans-44" transform="translate(381.347656 0)"/>
       <use xlink:href="#DejaVuSans-79" transform="translate(458.349609 0)"/>
       <use xlink:href="#DejaVuSans-20" transform="translate(517.529297 0)"/>
       <use xlink:href="#DejaVuSans-28" transform="translate(549.316406 0)"/>
       <use xlink:href="#DejaVuSans-6e" transform="translate(588.330078 0)"/>
       <use xlink:href="#DejaVuSans-65" transform="translate(651.708984 0)"/>
       <use xlink:href="#DejaVuSans-77" transform="translate(713.232422 0)"/>
       <use xlink:href="#DejaVuSans-29" transform="translate(795.019531 0)"/>
      </g>
     </g>
    </g>
    <g id="xtick_2">
     <g id="line2d_2">
      <g>
       <use xlink:href="#mca6119e1ab" x="467.423056" y="434.18" style="stroke: #000000; stroke-width: 0.8"/>
      </g>
     </g>
     <g id="text_2">
      <!-- XlSINDy -->
      <g transform="translate(423.393837 457.896563) scale(0.22 -0.22)">
       <defs>
        <path id="DejaVuSans-58" d="M 403 4666 
L 1081 4666 
L 2241 2931 
L 3406 4666 
L 4084 4666 
L 2584 2425 
L 4184 0 
L 3506 0 
L 2194 1984 
L 872 0 
L 191 0 
L 1856 2491 
L 403 4666 
z
" transform="scale(0.015625)"/>
        <path id="DejaVuSans-6c" d="M 603 4863 
L 1178 4863 
L 1178 0 
L 603 0 
L 603 4863 
z
" transform="scale(0.015625)"/>
       </defs>
       <use xlink:href="#DejaVuSans-58"/>
       <use xlink:href="#DejaVuSans-6c" transform="translate(68.505859 0)"/>
       <use xlink:href="#DejaVuSans-53" transform="translate(96.289062 0)"/>
       <use xlink:href="#DejaVuSans-49" transform="translate(159.765625 0)"/>
       <use xlink:href="#DejaVuSans-4e" transform="translate(189.257812 0)"/>
       <use xlink:href="#DejaVuSans-44" transform="translate(264.0625 0)"/>
       <use xlink:href="#DejaVuSans-79" transform="translate(341.064453 0)"/>
      </g>
     </g>
    </g>
    <g id="xtick_3">
     <g id="line2d_3">
      <g>
       <use xlink:href="#mca6119e1ab" x="730.430093" y="434.18" style="stroke: #000000; stroke-width: 0.8"/>
      </g>
     </g>
     <g id="text_3">
      <!-- SINDy -->
      <g transform="translate(696.991812 457.896563) scale(0.22 -0.22)">
       <use xlink:href="#DejaVuSans-53"/>
       <use xlink:href="#DejaVuSans-49" transform="translate(63.476562 0)"/>
       <use xlink:href="#DejaVuSans-4e" transform="translate(92.96875 0)"/>
       <use xlink:href="#DejaVuSans-44" transform="translate(167.773438 0)"/>
       <use xlink:href="#DejaVuSans-79" transform="translate(244.775391 0)"/>
      </g>
     </g>
    </g>
   </g>
   <g id="matplotlib.axis_2">
    <g id="ytick_1">
     <g id="line2d_4">
      <path d="M 72.9125 260.604199 
L 993.43713 260.604199 
" clip-path="url(#p0b48d83212)" style="fill: none; stroke: #b0b0b0; stroke-opacity: 0.4; stroke-width: 0.8; stroke-linecap: square"/>
     </g>
     <g id="line2d_5">
      <defs>
       <path id="mce7c4356bc" d="M 0 0 
L -3.5 0 
" style="stroke: #000000; stroke-width: 0.8"/>
      </defs>
      <g>
       <use xlink:href="#mce7c4356bc" x="72.9125" y="260.604199" style="stroke: #000000; stroke-width: 0.8"/>
      </g>
     </g>
     <g id="text_4">
      <!-- $\mathdefault{10^{1}}$ -->
      <g transform="translate(30.7125 268.202636) scale(0.2 -0.2)">
       <defs>
        <path id="DejaVuSans-31" d="M 794 531 
L 1825 531 
L 1825 4091 
L 703 3866 
L 703 4441 
L 1819 4666 
L 2450 4666 
L 2450 531 
L 3481 531 
L 3481 0 
L 794 0 
L 794 531 
z
" transform="scale(0.015625)"/>
        <path id="DejaVuSans-30" d="M 2034 4250 
Q 1547 4250 1301 3770 
Q 1056 3291 1056 2328 
Q 1056 1369 1301 889 
Q 1547 409 2034 409 
Q 2525 409 2770 889 
Q 3016 1369 3016 2328 
Q 3016 3291 2770 3770 
Q 2525 4250 2034 4250 
z
M 2034 4750 
Q 2819 4750 3233 4129 
Q 3647 3509 3647 2328 
Q 3647 1150 3233 529 
Q 2819 -91 2034 -91 
Q 1250 -91 836 529 
Q 422 1150 422 2328 
Q 422 3509 836 4129 
Q 1250 4750 2034 4750 
z
" transform="scale(0.015625)"/>
       </defs>
       <use xlink:href="#DejaVuSans-31" transform="translate(0 0.684375)"/>
       <use xlink:href="#DejaVuSans-30" transform="translate(63.623047 0.684375)"/>
       <use xlink:href="#DejaVuSans-31" transform="translate(128.203125 38.965625) scale(0.7)"/>
      </g>
     </g>
    </g>
    <g id="ytick_2">
     <g id="line2d_6">
      <path d="M 72.9125 411.472748 
L 993.43713 411.472748 
" clip-path="url(#p0b48d83212)" style="fill: none; stroke-dasharray: 0.5,0.825; stroke-dashoffset: 0; stroke: #b0b0b0; stroke-opacity: 0.2; stroke-width: 0.5"/>
     </g>
     <g id="line2d_7">
      <defs>
       <path id="me11f18a428" d="M 0 0 
L -2 0 
" style="stroke: #000000; stroke-width: 0.6"/>
      </defs>
      <g>
       <use xlink:href="#me11f18a428" x="72.9125" y="411.472748" style="stroke: #000000; stroke-width: 0.6"/>
      </g>
     </g>
    </g>
    <g id="ytick_3">
     <g id="line2d_8">
      <path d="M 72.9125 373.464489 
L 993.43713 373.464489 
" clip-path="url(#p0b48d83212)" style="fill: none; stroke-dasharray: 0.5,0.825; stroke-dashoffset: 0; stroke: #b0b0b0; stroke-opacity: 0.2; stroke-width: 0.5"/>
     </g>
     <g id="line2d_9">
      <g>
       <use xlink:href="#me11f18a428" x="72.9125" y="373.464489" style="stroke: #000000; stroke-width: 0.6"/>
      </g>
     </g>
    </g>
    <g id="ytick_4">
     <g id="line2d_10">
      <path d="M 72.9125 346.4972 
L 993.43713 346.4972 
" clip-path="url(#p0b48d83212)" style="fill: none; stroke-dasharray: 0.5,0.825; stroke-dashoffset: 0; stroke: #b0b0b0; stroke-opacity: 0.2; stroke-width: 0.5"/>
     </g>
     <g id="line2d_11">
      <g>
       <use xlink:href="#me11f18a428" x="72.9125" y="346.4972" style="stroke: #000000; stroke-width: 0.6"/>
      </g>
     </g>
    </g>
    <g id="ytick_5">
     <g id="line2d_12">
      <path d="M 72.9125 325.579746 
L 993.43713 325.579746 
" clip-path="url(#p0b48d83212)" style="fill: none; stroke-dasharray: 0.5,0.825; stroke-dashoffset: 0; stroke: #b0b0b0; stroke-opacity: 0.2; stroke-width: 0.5"/>
     </g>
     <g id="line2d_13">
      <g>
       <use xlink:href="#me11f18a428" x="72.9125" y="325.579746" style="stroke: #000000; stroke-width: 0.6"/>
      </g>
     </g>
    </g>
    <g id="ytick_6">
     <g id="line2d_14">
      <path d="M 72.9125 308.488942 
L 993.43713 308.488942 
" clip-path="url(#p0b48d83212)" style="fill: none; stroke-dasharray: 0.5,0.825; stroke-dashoffset: 0; stroke: #b0b0b0; stroke-opacity: 0.2; stroke-width: 0.5"/>
     </g>
     <g id="line2d_15">
      <g>
       <use xlink:href="#me11f18a428" x="72.9125" y="308.488942" style="stroke: #000000; stroke-width: 0.6"/>
      </g>
     </g>
    </g>
    <g id="ytick_7">
     <g id="line2d_16">
      <path d="M 72.9125 294.038872 
L 993.43713 294.038872 
" clip-path="url(#p0b48d83212)" style="fill: none; stroke-dasharray: 0.5,0.825; stroke-dashoffset: 0; stroke: #b0b0b0; stroke-opacity: 0.2; stroke-width: 0.5"/>
     </g>
     <g id="line2d_17">
      <g>
       <use xlink:href="#me11f18a428" x="72.9125" y="294.038872" style="stroke: #000000; stroke-width: 0.6"/>
      </g>
     </g>
    </g>
    <g id="ytick_8">
     <g id="line2d_18">
      <path d="M 72.9125 281.521653 
L 993.43713 281.521653 
" clip-path="url(#p0b48d83212)" style="fill: none; stroke-dasharray: 0.5,0.825; stroke-dashoffset: 0; stroke: #b0b0b0; stroke-opacity: 0.2; stroke-width: 0.5"/>
     </g>
     <g id="line2d_19">
      <g>
       <use xlink:href="#me11f18a428" x="72.9125" y="281.521653" style="stroke: #000000; stroke-width: 0.6"/>
      </g>
     </g>
    </g>
    <g id="ytick_9">
     <g id="line2d_20">
      <path d="M 72.9125 270.480683 
L 993.43713 270.480683 
" clip-path="url(#p0b48d83212)" style="fill: none; stroke-dasharray: 0.5,0.825; stroke-dashoffset: 0; stroke: #b0b0b0; stroke-opacity: 0.2; stroke-width: 0.5"/>
     </g>
     <g id="line2d_21">
      <g>
       <use xlink:href="#me11f18a428" x="72.9125" y="270.480683" style="stroke: #000000; stroke-width: 0.6"/>
      </g>
     </g>
    </g>
    <g id="ytick_10">
     <g id="line2d_22">
      <path d="M 72.9125 195.628651 
L 993.43713 195.628651 
" clip-path="url(#p0b48d83212)" style="fill: none; stroke-dasharray: 0.5,0.825; stroke-dashoffset: 0; stroke: #b0b0b0; stroke-opacity: 0.2; stroke-width: 0.5"/>
     </g>
     <g id="line2d_23">
      <g>
       <use xlink:href="#me11f18a428" x="72.9125" y="195.628651" style="stroke: #000000; stroke-width: 0.6"/>
      </g>
     </g>
    </g>
    <g id="ytick_11">
     <g id="line2d_24">
      <path d="M 72.9125 157.620393 
L 993.43713 157.620393 
" clip-path="url(#p0b48d83212)" style="fill: none; stroke-dasharray: 0.5,0.825; stroke-dashoffset: 0; stroke: #b0b0b0; stroke-opacity: 0.2; stroke-width: 0.5"/>
     </g>
     <g id="line2d_25">
      <g>
       <use xlink:href="#me11f18a428" x="72.9125" y="157.620393" style="stroke: #000000; stroke-width: 0.6"/>
      </g>
     </g>
    </g>
    <g id="ytick_12">
     <g id="line2d_26">
      <path d="M 72.9125 130.653104 
L 993.43713 130.653104 
" clip-path="url(#p0b48d83212)" style="fill: none; stroke-dasharray: 0.5,0.825; stroke-dashoffset: 0; stroke: #b0b0b0; stroke-opacity: 0.2; stroke-width: 0.5"/>
     </g>
     <g id="line2d_27">
      <g>
       <use xlink:href="#me11f18a428" x="72.9125" y="130.653104" style="stroke: #000000; stroke-width: 0.6"/>
      </g>
     </g>
    </g>
    <g id="ytick_13">
     <g id="line2d_28">
      <path d="M 72.9125 109.73565 
L 993.43713 109.73565 
" clip-path="url(#p0b48d83212)" style="fill: none; stroke-dasharray: 0.5,0.825; stroke-dashoffset: 0; stroke: #b0b0b0; stroke-opacity: 0.2; stroke-width: 0.5"/>
     </g>
     <g id="line2d_29">
      <g>
       <use xlink:href="#me11f18a428" x="72.9125" y="109.73565" style="stroke: #000000; stroke-width: 0.6"/>
      </g>
     </g>
    </g>
    <g id="ytick_14">
     <g id="line2d_30">
      <path d="M 72.9125 92.644845 
L 993.43713 92.644845 
" clip-path="url(#p0b48d83212)" style="fill: none; stroke-dasharray: 0.5,0.825; stroke-dashoffset: 0; stroke: #b0b0b0; stroke-opacity: 0.2; stroke-width: 0.5"/>
     </g>
     <g id="line2d_31">
      <g>
       <use xlink:href="#me11f18a428" x="72.9125" y="92.644845" style="stroke: #000000; stroke-width: 0.6"/>
      </g>
     </g>
    </g>
    <g id="ytick_15">
     <g id="line2d_32">
      <path d="M 72.9125 78.194776 
L 993.43713 78.194776 
" clip-path="url(#p0b48d83212)" style="fill: none; stroke-dasharray: 0.5,0.825; stroke-dashoffset: 0; stroke: #b0b0b0; stroke-opacity: 0.2; stroke-width: 0.5"/>
     </g>
     <g id="line2d_33">
      <g>
       <use xlink:href="#me11f18a428" x="72.9125" y="78.194776" style="stroke: #000000; stroke-width: 0.6"/>
      </g>
     </g>
    </g>
    <g id="ytick_16">
     <g id="line2d_34">
      <path d="M 72.9125 65.677557 
L 993.43713 65.677557 
" clip-path="url(#p0b48d83212)" style="fill: none; stroke-dasharray: 0.5,0.825; stroke-dashoffset: 0; stroke: #b0b0b0; stroke-opacity: 0.2; stroke-width: 0.5"/>
     </g>
     <g id="line2d_35">
      <g>
       <use xlink:href="#me11f18a428" x="72.9125" y="65.677557" style="stroke: #000000; stroke-width: 0.6"/>
      </g>
     </g>
    </g>
    <g id="ytick_17">
     <g id="line2d_36">
      <path d="M 72.9125 54.636587 
L 993.43713 54.636587 
" clip-path="url(#p0b48d83212)" style="fill: none; stroke-dasharray: 0.5,0.825; stroke-dashoffset: 0; stroke: #b0b0b0; stroke-opacity: 0.2; stroke-width: 0.5"/>
     </g>
     <g id="line2d_37">
      <g>
       <use xlink:href="#me11f18a428" x="72.9125" y="54.636587" style="stroke: #000000; stroke-width: 0.6"/>
      </g>
     </g>
    </g>
    <g id="text_5">
     <!-- All Systems -->
     <g transform="translate(22.396875 306.082813) rotate(-90) scale(0.2 -0.2)">
      <defs>
       <path id="DejaVuSans-Bold-41" d="M 3419 850 
L 1538 850 
L 1241 0 
L 31 0 
L 1759 4666 
L 3194 4666 
L 4922 0 
L 3713 0 
L 3419 850 
z
M 1838 1716 
L 3116 1716 
L 2478 3572 
L 1838 1716 
z
" transform="scale(0.015625)"/>
       <path id="DejaVuSans-Bold-6c" d="M 538 4863 
L 1656 4863 
L 1656 0 
L 538 0 
L 538 4863 
z
" transform="scale(0.015625)"/>
       <path id="DejaVuSans-Bold-20" transform="scale(0.015625)"/>
       <path id="DejaVuSans-Bold-53" d="M 3834 4519 
L 3834 3531 
Q 3450 3703 3084 3790 
Q 2719 3878 2394 3878 
Q 1963 3878 1756 3759 
Q 1550 3641 1550 3391 
Q 1550 3203 1689 3098 
Q 1828 2994 2194 2919 
L 2706 2816 
Q 3484 2659 3812 2340 
Q 4141 2022 4141 1434 
Q 4141 663 3683 286 
Q 3225 -91 2284 -91 
Q 1841 -91 1394 -6 
Q 947 78 500 244 
L 500 1259 
Q 947 1022 1364 901 
Q 1781 781 2169 781 
Q 2563 781 2772 912 
Q 2981 1044 2981 1288 
Q 2981 1506 2839 1625 
Q 2697 1744 2272 1838 
L 1806 1941 
Q 1106 2091 782 2419 
Q 459 2747 459 3303 
Q 459 4000 909 4375 
Q 1359 4750 2203 4750 
Q 2588 4750 2994 4692 
Q 3400 4634 3834 4519 
z
" transform="scale(0.015625)"/>
       <path id="DejaVuSans-Bold-79" d="M 78 3500 
L 1197 3500 
L 2138 1125 
L 2938 3500 
L 4056 3500 
L 2584 -331 
Q 2363 -916 2067 -1148 
Q 1772 -1381 1288 -1381 
L 641 -1381 
L 641 -647 
L 991 -647 
Q 1275 -647 1404 -556 
Q 1534 -466 1606 -231 
L 1638 -134 
L 78 3500 
z
" transform="scale(0.015625)"/>
       <path id="DejaVuSans-Bold-73" d="M 3272 3391 
L 3272 2541 
Q 2913 2691 2578 2766 
Q 2244 2841 1947 2841 
Q 1628 2841 1473 2761 
Q 1319 2681 1319 2516 
Q 1319 2381 1436 2309 
Q 1553 2238 1856 2203 
L 2053 2175 
Q 2913 2066 3209 1816 
Q 3506 1566 3506 1031 
Q 3506 472 3093 190 
Q 2681 -91 1863 -91 
Q 1516 -91 1145 -36 
Q 775 19 384 128 
L 384 978 
Q 719 816 1070 734 
Q 1422 653 1784 653 
Q 2113 653 2278 743 
Q 2444 834 2444 1013 
Q 2444 1163 2330 1236 
Q 2216 1309 1875 1350 
L 1678 1375 
Q 931 1469 631 1722 
Q 331 1975 331 2491 
Q 331 3047 712 3315 
Q 1094 3584 1881 3584 
Q 2191 3584 2531 3537 
Q 2872 3491 3272 3391 
z
" transform="scale(0.015625)"/>
       <path id="DejaVuSans-Bold-74" d="M 1759 4494 
L 1759 3500 
L 2913 3500 
L 2913 2700 
L 1759 2700 
L 1759 1216 
Q 1759 972 1856 886 
Q 1953 800 2241 800 
L 2816 800 
L 2816 0 
L 1856 0 
Q 1194 0 917 276 
Q 641 553 641 1216 
L 641 2700 
L 84 2700 
L 84 3500 
L 641 3500 
L 641 4494 
L 1759 4494 
z
" transform="scale(0.015625)"/>
       <path id="DejaVuSans-Bold-65" d="M 4031 1759 
L 4031 1441 
L 1416 1441 
Q 1456 1047 1700 850 
Q 1944 653 2381 653 
Q 2734 653 3104 758 
Q 3475 863 3866 1075 
L 3866 213 
Q 3469 63 3072 -14 
Q 2675 -91 2278 -91 
Q 1328 -91 801 392 
Q 275 875 275 1747 
Q 275 2603 792 3093 
Q 1309 3584 2216 3584 
Q 3041 3584 3536 3087 
Q 4031 2591 4031 1759 
z
M 2881 2131 
Q 2881 2450 2695 2645 
Q 2509 2841 2209 2841 
Q 1884 2841 1681 2658 
Q 1478 2475 1428 2131 
L 2881 2131 
z
" transform="scale(0.015625)"/>
       <path id="DejaVuSans-Bold-6d" d="M 3781 2919 
Q 3994 3244 4286 3414 
Q 4578 3584 4928 3584 
Q 5531 3584 5847 3212 
Q 6163 2841 6163 2131 
L 6163 0 
L 5038 0 
L 5038 1825 
Q 5041 1866 5042 1909 
Q 5044 1953 5044 2034 
Q 5044 2406 4934 2573 
Q 4825 2741 4581 2741 
Q 4263 2741 4089 2478 
Q 3916 2216 3909 1719 
L 3909 0 
L 2784 0 
L 2784 1825 
Q 2784 2406 2684 2573 
Q 2584 2741 2328 2741 
Q 2006 2741 1831 2477 
Q 1656 2213 1656 1722 
L 1656 0 
L 531 0 
L 531 3500 
L 1656 3500 
L 1656 2988 
Q 1863 3284 2130 3434 
Q 2397 3584 2719 3584 
Q 3081 3584 3359 3409 
Q 3638 3234 3781 2919 
z
" transform="scale(0.015625)"/>
      </defs>
      <use xlink:href="#DejaVuSans-Bold-41"/>
      <use xlink:href="#DejaVuSans-Bold-6c" transform="translate(77.392578 0)"/>
      <use xlink:href="#DejaVuSans-Bold-6c" transform="translate(111.669922 0)"/>
      <use xlink:href="#DejaVuSans-Bold-20" transform="translate(145.947266 0)"/>
      <use xlink:href="#DejaVuSans-Bold-53" transform="translate(180.761719 0)"/>
      <use xlink:href="#DejaVuSans-Bold-79" transform="translate(252.783203 0)"/>
      <use xlink:href="#DejaVuSans-Bold-73" transform="translate(317.96875 0)"/>
      <use xlink:href="#DejaVuSans-Bold-74" transform="translate(377.490234 0)"/>
      <use xlink:href="#DejaVuSans-Bold-65" transform="translate(425.292969 0)"/>
      <use xlink:href="#DejaVuSans-Bold-6d" transform="translate(493.115234 0)"/>
      <use xlink:href="#DejaVuSans-Bold-73" transform="translate(597.314453 0)"/>
     </g>
    </g>
   </g>
   <g id="patch_3">
    <path d="M 108.41845 309.698812 
L 142.609365 309.698812 
L 142.609365 176.896373 
L 108.41845 176.896373 
L 108.41845 309.698812 
z
" clip-path="url(#p0b48d83212)" style="fill: #c9d5e7; opacity: 0.75; stroke: #2c3e50; stroke-width: 1.2; stroke-linejoin: miter"/>
   </g>
   <g id="line2d_38">
    <path d="M 125.513907 309.698812 
L 125.513907 342.779376 
" clip-path="url(#p0b48d83212)" style="fill: none; stroke: #000000; stroke-width: 1.5; stroke-linecap: square"/>
   </g>
   <g id="line2d_39">
    <path d="M 125.513907 176.896373 
L 125.513907 148.343733 
" clip-path="url(#p0b48d83212)" style="fill: none; stroke: #000000; stroke-width: 1.5; stroke-linecap: square"/>
   </g>
   <g id="line2d_40">
    <path d="M 116.966179 342.779376 
L 134.061636 342.779376 
" clip-path="url(#p0b48d83212)" style="fill: none; stroke: #000000; stroke-width: 1.5; stroke-linecap: square"/>
   </g>
   <g id="line2d_41">
    <path d="M 116.966179 148.343733 
L 134.061636 148.343733 
" clip-path="url(#p0b48d83212)" style="fill: none; stroke: #000000; stroke-width: 1.5; stroke-linecap: square"/>
   </g>
   <g id="line2d_42"/>
   <g id="patch_4">
    <path d="M 161.019857 322.498265 
L 195.210772 322.498265 
L 195.210772 189.444144 
L 161.019857 189.444144 
L 161.019857 322.498265 
z
" clip-path="url(#p0b48d83212)" style="fill: #a0b4d5; opacity: 0.75; stroke: #2c3e50; stroke-width: 1.2; stroke-linejoin: miter"/>
   </g>
   <g id="line2d_43">
    <path d="M 178.115315 322.498265 
L 178.115315 416.563636 
" clip-path="url(#p0b48d83212)" style="fill: none; stroke: #000000; stroke-width: 1.5; stroke-linecap: square"/>
   </g>
   <g id="line2d_44">
    <path d="M 178.115315 189.444144 
L 178.115315 186.176195 
" clip-path="url(#p0b48d83212)" style="fill: none; stroke: #000000; stroke-width: 1.5; stroke-linecap: square"/>
   </g>
   <g id="line2d_45">
    <path d="M 169.567586 416.563636 
L 186.663044 416.563636 
" clip-path="url(#p0b48d83212)" style="fill: none; stroke: #000000; stroke-width: 1.5; stroke-linecap: square"/>
   </g>
   <g id="line2d_46">
    <path d="M 169.567586 186.176195 
L 186.663044 186.176195 
" clip-path="url(#p0b48d83212)" style="fill: none; stroke: #000000; stroke-width: 1.5; stroke-linecap: square"/>
   </g>
   <g id="line2d_47"/>
   <g id="patch_5">
    <path d="M 213.621265 232.027125 
L 247.81218 232.027125 
L 247.81218 210.59869 
L 213.621265 210.59869 
L 213.621265 232.027125 
z
" clip-path="url(#p0b48d83212)" style="fill: #7693c2; opacity: 0.75; stroke: #2c3e50; stroke-width: 1.2; stroke-linejoin: miter"/>
   </g>
   <g id="line2d_48">
    <path d="M 230.716722 232.027125 
L 230.716722 244.911045 
" clip-path="url(#p0b48d83212)" style="fill: none; stroke: #000000; stroke-width: 1.5; stroke-linecap: square"/>
   </g>
   <g id="line2d_49">
    <path d="M 230.716722 210.59869 
L 230.716722 201.4792 
" clip-path="url(#p0b48d83212)" style="fill: none; stroke: #000000; stroke-width: 1.5; stroke-linecap: square"/>
   </g>
   <g id="line2d_50">
    <path d="M 222.168994 244.911045 
L 239.264451 244.911045 
" clip-path="url(#p0b48d83212)" style="fill: none; stroke: #000000; stroke-width: 1.5; stroke-linecap: square"/>
   </g>
   <g id="line2d_51">
    <path d="M 222.168994 201.4792 
L 239.264451 201.4792 
" clip-path="url(#p0b48d83212)" style="fill: none; stroke: #000000; stroke-width: 1.5; stroke-linecap: square"/>
   </g>
   <g id="line2d_52"/>
   <g id="patch_6">
    <path d="M 371.425487 296.369796 
L 405.616402 296.369796 
L 405.616402 169.741915 
L 371.425487 169.741915 
L 371.425487 296.369796 
z
" clip-path="url(#p0b48d83212)" style="fill: #edcacb; opacity: 0.75; stroke: #2c3e50; stroke-width: 1.2; stroke-linejoin: miter"/>
   </g>
   <g id="line2d_53">
    <path d="M 388.520945 296.369796 
L 388.520945 345.457858 
" clip-path="url(#p0b48d83212)" style="fill: none; stroke: #000000; stroke-width: 1.5; stroke-linecap: square"/>
   </g>
   <g id="line2d_54">
    <path d="M 388.520945 169.741915 
L 388.520945 128.768112 
" clip-path="url(#p0b48d83212)" style="fill: none; stroke: #000000; stroke-width: 1.5; stroke-linecap: square"/>
   </g>
   <g id="line2d_55">
    <path d="M 379.973216 345.457858 
L 397.068673 345.457858 
" clip-path="url(#p0b48d83212)" style="fill: none; stroke: #000000; stroke-width: 1.5; stroke-linecap: square"/>
   </g>
   <g id="line2d_56">
    <path d="M 379.973216 128.768112 
L 397.068673 128.768112 
" clip-path="url(#p0b48d83212)" style="fill: none; stroke: #000000; stroke-width: 1.5; stroke-linecap: square"/>
   </g>
   <g id="line2d_57"/>
   <g id="patch_7">
    <path d="M 424.026895 209.592206 
L 458.21781 209.592206 
L 458.21781 132.347716 
L 424.026895 132.347716 
L 424.026895 209.592206 
z
" clip-path="url(#p0b48d83212)" style="fill: #e0a1a3; opacity: 0.75; stroke: #2c3e50; stroke-width: 1.2; stroke-linejoin: miter"/>
   </g>
   <g id="line2d_58">
    <path d="M 441.122352 209.592206 
L 441.122352 365.498114 
" clip-path="url(#p0b48d83212)" style="fill: none; stroke: #000000; stroke-width: 1.5; stroke-linecap: square"/>
   </g>
   <g id="line2d_59">
    <path d="M 441.122352 132.347716 
L 441.122352 132.347716 
" clip-path="url(#p0b48d83212)" style="fill: none; stroke: #000000; stroke-width: 1.5; stroke-linecap: square"/>
   </g>
   <g id="line2d_60">
    <path d="M 432.574623 365.498114 
L 449.670081 365.498114 
" clip-path="url(#p0b48d83212)" style="fill: none; stroke: #000000; stroke-width: 1.5; stroke-linecap: square"/>
   </g>
   <g id="line2d_61">
    <path d="M 432.574623 132.347716 
L 449.670081 132.347716 
" clip-path="url(#p0b48d83212)" style="fill: none; stroke: #000000; stroke-width: 1.5; stroke-linecap: square"/>
   </g>
   <g id="line2d_62">
    <defs>
     <path id="md024497184" d="M 0 3 
C 0.795609 3 1.55874 2.683901 2.12132 2.12132 
C 2.683901 1.55874 3 0.795609 3 0 
C 3 -0.795609 2.683901 -1.55874 2.12132 -2.12132 
C 1.55874 -2.683901 0.795609 -3 0 -3 
C -0.795609 -3 -1.55874 -2.683901 -2.12132 -2.12132 
C -2.683901 -1.55874 -3 -0.795609 -3 0 
C -3 0.795609 -2.683901 1.55874 -2.12132 2.12132 
C -1.55874 2.683901 -0.795609 3 0 3 
z
" style="stroke: #000000"/>
    </defs>
    <g clip-path="url(#p0b48d83212)">
     <use xlink:href="#md024497184" x="441.122352" y="64.236364" style="fill-opacity: 0; stroke: #000000"/>
    </g>
   </g>
   <g id="patch_8">
    <path d="M 476.628302 306.045803 
L 510.819217 306.045803 
L 510.819217 216.776474 
L 476.628302 216.776474 
L 476.628302 306.045803 
z
" clip-path="url(#p0b48d83212)" style="fill: #d2777a; opacity: 0.75; stroke: #2c3e50; stroke-width: 1.2; stroke-linejoin: miter"/>
   </g>
   <g id="line2d_63">
    <path d="M 493.72376 306.045803 
L 493.72376 330.345545 
" clip-path="url(#p0b48d83212)" style="fill: none; stroke: #000000; stroke-width: 1.5; stroke-linecap: square"/>
   </g>
   <g id="line2d_64">
    <path d="M 493.72376 216.776474 
L 493.72376 177.154738 
" clip-path="url(#p0b48d83212)" style="fill: none; stroke: #000000; stroke-width: 1.5; stroke-linecap: square"/>
   </g>
   <g id="line2d_65">
    <path d="M 485.176031 330.345545 
L 502.271488 330.345545 
" clip-path="url(#p0b48d83212)" style="fill: none; stroke: #000000; stroke-width: 1.5; stroke-linecap: square"/>
   </g>
   <g id="line2d_66">
    <path d="M 485.176031 177.154738 
L 502.271488 177.154738 
" clip-path="url(#p0b48d83212)" style="fill: none; stroke: #000000; stroke-width: 1.5; stroke-linecap: square"/>
   </g>
   <g id="line2d_67"/>
   <g id="patch_9">
    <path d="M 529.22971 164.685435 
L 563.420625 164.685435 
L 563.420625 164.685435 
L 529.22971 164.685435 
L 529.22971 164.685435 
z
" clip-path="url(#p0b48d83212)" style="fill: #c44e52; opacity: 0.75; stroke: #2c3e50; stroke-width: 1.2; stroke-linejoin: miter"/>
   </g>
   <g id="line2d_68">
    <path d="M 546.325167 164.685435 
L 546.325167 164.685435 
" clip-path="url(#p0b48d83212)" style="fill: none; stroke: #000000; stroke-width: 1.5; stroke-linecap: square"/>
   </g>
   <g id="line2d_69">
    <path d="M 546.325167 164.685435 
L 546.325167 164.685435 
" clip-path="url(#p0b48d83212)" style="fill: none; stroke: #000000; stroke-width: 1.5; stroke-linecap: square"/>
   </g>
   <g id="line2d_70">
    <path d="M 537.777438 164.685435 
L 554.872896 164.685435 
" clip-path="url(#p0b48d83212)" style="fill: none; stroke: #000000; stroke-width: 1.5; stroke-linecap: square"/>
   </g>
   <g id="line2d_71">
    <path d="M 537.777438 164.685435 
L 554.872896 164.685435 
" clip-path="url(#p0b48d83212)" style="fill: none; stroke: #000000; stroke-width: 1.5; stroke-linecap: square"/>
   </g>
   <g id="line2d_72"/>
   <g id="patch_10">
    <path d="M 634.432525 267.34353 
L 668.623439 267.34353 
L 668.623439 214.895091 
L 634.432525 214.895091 
L 634.432525 267.34353 
z
" clip-path="url(#p0b48d83212)" style="fill: #cce5d2; opacity: 0.75; stroke: #2c3e50; stroke-width: 1.2; stroke-linejoin: miter"/>
   </g>
   <g id="line2d_73">
    <path d="M 651.527982 267.34353 
L 651.527982 311.387779 
" clip-path="url(#p0b48d83212)" style="fill: none; stroke: #000000; stroke-width: 1.5; stroke-linecap: square"/>
   </g>
   <g id="line2d_74">
    <path d="M 651.527982 214.895091 
L 651.527982 196.697253 
" clip-path="url(#p0b48d83212)" style="fill: none; stroke: #000000; stroke-width: 1.5; stroke-linecap: square"/>
   </g>
   <g id="line2d_75">
    <path d="M 642.980253 311.387779 
L 660.075711 311.387779 
" clip-path="url(#p0b48d83212)" style="fill: none; stroke: #000000; stroke-width: 1.5; stroke-linecap: square"/>
   </g>
   <g id="line2d_76">
    <path d="M 642.980253 196.697253 
L 660.075711 196.697253 
" clip-path="url(#p0b48d83212)" style="fill: none; stroke: #000000; stroke-width: 1.5; stroke-linecap: square"/>
   </g>
   <g id="line2d_77"/>
   <g id="patch_11">
    <path d="M 687.033932 253.903017 
L 721.224847 253.903017 
L 721.224847 191.479933 
L 687.033932 191.479933 
L 687.033932 253.903017 
z
" clip-path="url(#p0b48d83212)" style="fill: #a4d1ae; opacity: 0.75; stroke: #2c3e50; stroke-width: 1.2; stroke-linejoin: miter"/>
   </g>
   <g id="line2d_78">
    <path d="M 704.129389 253.903017 
L 704.129389 313.973131 
" clip-path="url(#p0b48d83212)" style="fill: none; stroke: #000000; stroke-width: 1.5; stroke-linecap: square"/>
   </g>
   <g id="line2d_79">
    <path d="M 704.129389 191.479933 
L 704.129389 171.081419 
" clip-path="url(#p0b48d83212)" style="fill: none; stroke: #000000; stroke-width: 1.5; stroke-linecap: square"/>
   </g>
   <g id="line2d_80">
    <path d="M 695.581661 313.973131 
L 712.677118 313.973131 
" clip-path="url(#p0b48d83212)" style="fill: none; stroke: #000000; stroke-width: 1.5; stroke-linecap: square"/>
   </g>
   <g id="line2d_81">
    <path d="M 695.581661 171.081419 
L 712.677118 171.081419 
" clip-path="url(#p0b48d83212)" style="fill: none; stroke: #000000; stroke-width: 1.5; stroke-linecap: square"/>
   </g>
   <g id="line2d_82"/>
   <g id="line2d_83">
    <path d="M 108.41845 206.531954 
L 142.609365 206.531954 
" clip-path="url(#p0b48d83212)" style="fill: none; stroke: #2c3e50; stroke-width: 2.5"/>
   </g>
   <g id="line2d_84">
    <defs>
     <path id="me25089e6c2" d="M -0 4.242641 
L 4.242641 0 
L 0 -4.242641 
L -4.242641 -0 
z
" style="stroke: #000000; stroke-linejoin: miter"/>
    </defs>
    <g clip-path="url(#p0b48d83212)">
     <use xlink:href="#me25089e6c2" x="125.513907" y="210.386324" style="fill: #ffffff; stroke: #000000; stroke-linejoin: miter"/>
    </g>
   </g>
   <g id="line2d_85">
    <path d="M 161.019857 280.573624 
L 195.210772 280.573624 
" clip-path="url(#p0b48d83212)" style="fill: none; stroke: #2c3e50; stroke-width: 2.5"/>
   </g>
   <g id="line2d_86">
    <g clip-path="url(#p0b48d83212)">
     <use xlink:href="#me25089e6c2" x="178.115315" y="245.680803" style="fill: #ffffff; stroke: #000000; stroke-linejoin: miter"/>
    </g>
   </g>
   <g id="line2d_87">
    <path d="M 213.621265 220.701933 
L 247.81218 220.701933 
" clip-path="url(#p0b48d83212)" style="fill: none; stroke: #2c3e50; stroke-width: 2.5"/>
   </g>
   <g id="line2d_88">
    <g clip-path="url(#p0b48d83212)">
     <use xlink:href="#me25089e6c2" x="230.716722" y="220.701933" style="fill: #ffffff; stroke: #000000; stroke-linejoin: miter"/>
    </g>
   </g>
   <g id="line2d_89">
    <path d="M 371.425487 189.049782 
L 405.616402 189.049782 
" clip-path="url(#p0b48d83212)" style="fill: none; stroke: #2c3e50; stroke-width: 2.5"/>
   </g>
   <g id="line2d_90">
    <g clip-path="url(#p0b48d83212)">
     <use xlink:href="#me25089e6c2" x="388.520945" y="196.098257" style="fill: #ffffff; stroke: #000000; stroke-linejoin: miter"/>
    </g>
   </g>
   <g id="line2d_91">
    <path d="M 424.026895 198.589616 
L 458.21781 198.589616 
" clip-path="url(#p0b48d83212)" style="fill: none; stroke: #2c3e50; stroke-width: 2.5"/>
   </g>
   <g id="line2d_92">
    <g clip-path="url(#p0b48d83212)">
     <use xlink:href="#me25089e6c2" x="441.122352" y="151.337009" style="fill: #ffffff; stroke: #000000; stroke-linejoin: miter"/>
    </g>
   </g>
   <g id="line2d_93">
    <path d="M 476.628302 286.766091 
L 510.819217 286.766091 
" clip-path="url(#p0b48d83212)" style="fill: none; stroke: #2c3e50; stroke-width: 2.5"/>
   </g>
   <g id="line2d_94">
    <g clip-path="url(#p0b48d83212)">
     <use xlink:href="#me25089e6c2" x="493.72376" y="241.775609" style="fill: #ffffff; stroke: #000000; stroke-linejoin: miter"/>
    </g>
   </g>
   <g id="line2d_95">
    <path d="M 529.22971 164.685435 
L 563.420625 164.685435 
" clip-path="url(#p0b48d83212)" style="fill: none; stroke: #2c3e50; stroke-width: 2.5"/>
   </g>
   <g id="line2d_96">
    <g clip-path="url(#p0b48d83212)">
     <use xlink:href="#me25089e6c2" x="546.325167" y="164.685435" style="fill: #ffffff; stroke: #000000; stroke-linejoin: miter"/>
    </g>
   </g>
   <g id="line2d_97">
    <path d="M 634.432525 237.498002 
L 668.623439 237.498002 
" clip-path="url(#p0b48d83212)" style="fill: none; stroke: #2c3e50; stroke-width: 2.5"/>
   </g>
   <g id="line2d_98">
    <g clip-path="url(#p0b48d83212)">
     <use xlink:href="#me25089e6c2" x="651.527982" y="237.498002" style="fill: #ffffff; stroke: #000000; stroke-linejoin: miter"/>
    </g>
   </g>
   <g id="line2d_99">
    <path d="M 687.033932 217.588655 
L 721.224847 217.588655 
" clip-path="url(#p0b48d83212)" style="fill: none; stroke: #2c3e50; stroke-width: 2.5"/>
   </g>
   <g id="line2d_100">
    <g clip-path="url(#p0b48d83212)">
     <use xlink:href="#me25089e6c2" x="704.129389" y="217.588655" style="fill: #ffffff; stroke: #000000; stroke-linejoin: miter"/>
    </g>
   </g>
   <g id="patch_12">
    <path d="M 72.9125 434.18 
L 72.9125 46.62 
" style="fill: none; stroke: #000000; stroke-width: 0.8; stroke-linejoin: miter; stroke-linecap: square"/>
   </g>
   <g id="patch_13">
    <path d="M 993.43713 434.18 
L 993.43713 46.62 
" style="fill: none; stroke: #000000; stroke-width: 0.8; stroke-linejoin: miter; stroke-linecap: square"/>
   </g>
   <g id="patch_14">
    <path d="M 72.9125 434.18 
L 993.43713 434.18 
" style="fill: none; stroke: #000000; stroke-width: 0.8; stroke-linejoin: miter; stroke-linecap: square"/>
   </g>
   <g id="patch_15">
    <path d="M 72.9125 46.62 
L 993.43713 46.62 
" style="fill: none; stroke: #000000; stroke-width: 0.8; stroke-linejoin: miter; stroke-linecap: square"/>
   </g>
   <g id="text_6">
    <g id="patch_16">
     <path d="M 910.226638 418.9264 
L 975.026638 418.9264 
Q 983.026638 418.9264 983.026638 410.9264 
L 983.026638 395.4414 
Q 983.026638 387.4414 975.026638 387.4414 
L 910.226638 387.4414 
Q 902.226638 387.4414 902.226638 395.4414 
L 902.226638 410.9264 
Q 902.226638 418.9264 910.226638 418.9264 
z
" style="fill: #ffffff; opacity: 0.95; stroke: #bdc3c7; stroke-width: 1.5; stroke-linejoin: miter"/>
    </g>
    <!-- $n_{max}=5$ -->
    <g transform="translate(910.226638 407.5989) scale(0.16 -0.16)">
     <defs>
      <path id="DejaVuSans-Oblique-6e" d="M 3566 2113 
L 3156 0 
L 2578 0 
L 2988 2091 
Q 3016 2238 3031 2350 
Q 3047 2463 3047 2528 
Q 3047 2791 2881 2937 
Q 2716 3084 2419 3084 
Q 1956 3084 1622 2776 
Q 1288 2469 1184 1941 
L 800 0 
L 225 0 
L 903 3500 
L 1478 3500 
L 1363 2950 
Q 1603 3253 1940 3418 
Q 2278 3584 2650 3584 
Q 3113 3584 3367 3334 
Q 3622 3084 3622 2631 
Q 3622 2519 3608 2391 
Q 3594 2263 3566 2113 
z
" transform="scale(0.015625)"/>
      <path id="DejaVuSans-Oblique-6d" d="M 5747 2113 
L 5338 0 
L 4763 0 
L 5166 2094 
Q 5191 2228 5203 2325 
Q 5216 2422 5216 2491 
Q 5216 2772 5059 2928 
Q 4903 3084 4622 3084 
Q 4203 3084 3875 2770 
Q 3547 2456 3450 1953 
L 3066 0 
L 2491 0 
L 2900 2094 
Q 2925 2209 2937 2307 
Q 2950 2406 2950 2484 
Q 2950 2769 2794 2926 
Q 2638 3084 2363 3084 
Q 1938 3084 1609 2770 
Q 1281 2456 1184 1953 
L 800 0 
L 225 0 
L 909 3500 
L 1484 3500 
L 1375 2956 
Q 1609 3263 1923 3423 
Q 2238 3584 2597 3584 
Q 2978 3584 3223 3384 
Q 3469 3184 3519 2828 
Q 3781 3197 4126 3390 
Q 4472 3584 4856 3584 
Q 5306 3584 5551 3325 
Q 5797 3066 5797 2591 
Q 5797 2488 5784 2364 
Q 5772 2241 5747 2113 
z
" transform="scale(0.015625)"/>
      <path id="DejaVuSans-Oblique-61" d="M 3438 1997 
L 3047 0 
L 2472 0 
L 2578 531 
Q 2325 219 2001 64 
Q 1678 -91 1281 -91 
Q 834 -91 548 182 
Q 263 456 263 884 
Q 263 1497 752 1853 
Q 1241 2209 2100 2209 
L 2900 2209 
L 2931 2363 
Q 2938 2388 2941 2417 
Q 2944 2447 2944 2509 
Q 2944 2788 2717 2942 
Q 2491 3097 2081 3097 
Q 1800 3097 1504 3025 
Q 1209 2953 897 2809 
L 997 3341 
Q 1322 3463 1633 3523 
Q 1944 3584 2234 3584 
Q 2853 3584 3176 3315 
Q 3500 3047 3500 2534 
Q 3500 2431 3484 2292 
Q 3469 2153 3438 1997 
z
M 2816 1759 
L 2241 1759 
Q 1534 1759 1195 1570 
Q 856 1381 856 984 
Q 856 709 1029 553 
Q 1203 397 1509 397 
Q 1978 397 2328 733 
Q 2678 1069 2791 1631 
L 2816 1759 
z
" transform="scale(0.015625)"/>
      <path id="DejaVuSans-Oblique-78" d="M 3841 3500 
L 2234 1784 
L 3219 0 
L 2559 0 
L 1819 1388 
L 531 0 
L -166 0 
L 1556 1844 
L 641 3500 
L 1300 3500 
L 1972 2234 
L 3144 3500 
L 3841 3500 
z
" transform="scale(0.015625)"/>
      <path id="DejaVuSans-3d" d="M 678 2906 
L 4684 2906 
L 4684 2381 
L 678 2381 
L 678 2906 
z
M 678 1631 
L 4684 1631 
L 4684 1100 
L 678 1100 
L 678 1631 
z
" transform="scale(0.015625)"/>
      <path id="DejaVuSans-35" d="M 691 4666 
L 3169 4666 
L 3169 4134 
L 1269 4134 
L 1269 2991 
Q 1406 3038 1543 3061 
Q 1681 3084 1819 3084 
Q 2600 3084 3056 2656 
Q 3513 2228 3513 1497 
Q 3513 744 3044 326 
Q 2575 -91 1722 -91 
Q 1428 -91 1123 -41 
Q 819 9 494 109 
L 494 744 
Q 775 591 1075 516 
Q 1375 441 1709 441 
Q 2250 441 2565 725 
Q 2881 1009 2881 1497 
Q 2881 1984 2565 2268 
Q 2250 2553 1709 2553 
Q 1456 2553 1204 2497 
Q 953 2441 691 2322 
L 691 4666 
z
" transform="scale(0.015625)"/>
     </defs>
     <use xlink:href="#DejaVuSans-Oblique-6e" transform="translate(0 0.09375)"/>
     <use xlink:href="#DejaVuSans-Oblique-6d" transform="translate(63.378906 -16.3125) scale(0.7)"/>
     <use xlink:href="#DejaVuSans-Oblique-61" transform="translate(131.567383 -16.3125) scale(0.7)"/>
     <use xlink:href="#DejaVuSans-Oblique-78" transform="translate(174.462891 -16.3125) scale(0.7)"/>
     <use xlink:href="#DejaVuSans-3d" transform="translate(238.105469 0.09375)"/>
     <use xlink:href="#DejaVuSans-35" transform="translate(341.376953 0.09375)"/>
    </g>
   </g>
   <g id="legend_1">
    <g id="patch_17">
     <path d="M 842.55213 155.36 
L 984.23713 155.36 
Q 987.43713 155.36 987.43713 152.16 
L 987.43713 59.82 
Q 987.43713 56.62 984.23713 56.62 
L 842.55213 56.62 
Q 839.35213 56.62 839.35213 59.82 
L 839.35213 152.16 
Q 839.35213 155.36 842.55213 155.36 
z
" style="fill: #4d4d4d; opacity: 0.5; stroke: #4d4d4d; stroke-linejoin: miter"/>
    </g>
    <g id="patch_18">
     <path d="M 840.55213 153.36 
L 982.23713 153.36 
Q 985.43713 153.36 985.43713 150.16 
L 985.43713 57.82 
Q 985.43713 54.62 982.23713 54.62 
L 840.55213 54.62 
Q 837.35213 54.62 837.35213 57.82 
L 837.35213 150.16 
Q 837.35213 153.36 840.55213 153.36 
z
" style="fill: #ffffff; opacity: 0.95; stroke: #cccccc; stroke-linejoin: miter"/>
    </g>
    <g id="patch_19">
     <path d="M 843.75213 73.1775 
L 875.75213 73.1775 
L 875.75213 61.9775 
L 843.75213 61.9775 
z
" style="fill: #d1d1d1; opacity: 0.8; stroke: #000000; stroke-width: 0.5; stroke-linejoin: miter"/>
    </g>
    <g id="text_7">
     <!-- Noise: 0.0 -->
     <g transform="translate(888.55213 73.1775) scale(0.16 -0.16)">
      <defs>
       <path id="DejaVuSans-6f" d="M 1959 3097 
Q 1497 3097 1228 2736 
Q 959 2375 959 1747 
Q 959 1119 1226 758 
Q 1494 397 1959 397 
Q 2419 397 2687 759 
Q 2956 1122 2956 1747 
Q 2956 2369 2687 2733 
Q 2419 3097 1959 3097 
z
M 1959 3584 
Q 2709 3584 3137 3096 
Q 3566 2609 3566 1747 
Q 3566 888 3137 398 
Q 2709 -91 1959 -91 
Q 1206 -91 779 398 
Q 353 888 353 1747 
Q 353 2609 779 3096 
Q 1206 3584 1959 3584 
z
" transform="scale(0.015625)"/>
       <path id="DejaVuSans-69" d="M 603 3500 
L 1178 3500 
L 1178 0 
L 603 0 
L 603 3500 
z
M 603 4863 
L 1178 4863 
L 1178 4134 
L 603 4134 
L 603 4863 
z
" transform="scale(0.015625)"/>
       <path id="DejaVuSans-73" d="M 2834 3397 
L 2834 2853 
Q 2591 2978 2328 3040 
Q 2066 3103 1784 3103 
Q 1356 3103 1142 2972 
Q 928 2841 928 2578 
Q 928 2378 1081 2264 
Q 1234 2150 1697 2047 
L 1894 2003 
Q 2506 1872 2764 1633 
Q 3022 1394 3022 966 
Q 3022 478 2636 193 
Q 2250 -91 1575 -91 
Q 1294 -91 989 -36 
Q 684 19 347 128 
L 347 722 
Q 666 556 975 473 
Q 1284 391 1588 391 
Q 1994 391 2212 530 
Q 2431 669 2431 922 
Q 2431 1156 2273 1281 
Q 2116 1406 1581 1522 
L 1381 1569 
Q 847 1681 609 1914 
Q 372 2147 372 2553 
Q 372 3047 722 3315 
Q 1072 3584 1716 3584 
Q 2034 3584 2315 3537 
Q 2597 3491 2834 3397 
z
" transform="scale(0.015625)"/>
       <path id="DejaVuSans-3a" d="M 750 794 
L 1409 794 
L 1409 0 
L 750 0 
L 750 794 
z
M 750 3309 
L 1409 3309 
L 1409 2516 
L 750 2516 
L 750 3309 
z
" transform="scale(0.015625)"/>
       <path id="DejaVuSans-2e" d="M 684 794 
L 1344 794 
L 1344 0 
L 684 0 
L 684 794 
z
" transform="scale(0.015625)"/>
      </defs>
      <use xlink:href="#DejaVuSans-4e"/>
      <use xlink:href="#DejaVuSans-6f" transform="translate(74.804688 0)"/>
      <use xlink:href="#DejaVuSans-69" transform="translate(135.986328 0)"/>
      <use xlink:href="#DejaVuSans-73" transform="translate(163.769531 0)"/>
      <use xlink:href="#DejaVuSans-65" transform="translate(215.869141 0)"/>
      <use xlink:href="#DejaVuSans-3a" transform="translate(277.392578 0)"/>
      <use xlink:href="#DejaVuSans-20" transform="translate(311.083984 0)"/>
      <use xlink:href="#DejaVuSans-30" transform="translate(342.871094 0)"/>
      <use xlink:href="#DejaVuSans-2e" transform="translate(406.494141 0)"/>
      <use xlink:href="#DejaVuSans-30" transform="translate(438.28125 0)"/>
     </g>
    </g>
    <g id="patch_20">
     <path d="M 843.75213 96.6625 
L 875.75213 96.6625 
L 875.75213 85.4625 
L 843.75213 85.4625 
z
" style="fill: #adadad; opacity: 0.8; stroke: #000000; stroke-width: 0.5; stroke-linejoin: miter"/>
    </g>
    <g id="text_8">
     <!-- Noise: 0.01 -->
     <g transform="translate(888.55213 96.6625) scale(0.16 -0.16)">
      <use xlink:href="#DejaVuSans-4e"/>
      <use xlink:href="#DejaVuSans-6f" transform="translate(74.804688 0)"/>
      <use xlink:href="#DejaVuSans-69" transform="translate(135.986328 0)"/>
      <use xlink:href="#DejaVuSans-73" transform="translate(163.769531 0)"/>
      <use xlink:href="#DejaVuSans-65" transform="translate(215.869141 0)"/>
      <use xlink:href="#DejaVuSans-3a" transform="translate(277.392578 0)"/>
      <use xlink:href="#DejaVuSans-20" transform="translate(311.083984 0)"/>
      <use xlink:href="#DejaVuSans-30" transform="translate(342.871094 0)"/>
      <use xlink:href="#DejaVuSans-2e" transform="translate(406.494141 0)"/>
      <use xlink:href="#DejaVuSans-30" transform="translate(438.28125 0)"/>
      <use xlink:href="#DejaVuSans-31" transform="translate(501.904297 0)"/>
     </g>
    </g>
    <g id="patch_21">
     <path d="M 843.75213 120.1475 
L 875.75213 120.1475 
L 875.75213 108.9475 
L 843.75213 108.9475 
z
" style="fill: #8a8a8a; opacity: 0.8; stroke: #000000; stroke-width: 0.5; stroke-linejoin: miter"/>
    </g>
    <g id="text_9">
     <!-- Noise: 0.1 -->
     <g transform="translate(888.55213 120.1475) scale(0.16 -0.16)">
      <use xlink:href="#DejaVuSans-4e"/>
      <use xlink:href="#DejaVuSans-6f" transform="translate(74.804688 0)"/>
      <use xlink:href="#DejaVuSans-69" transform="translate(135.986328 0)"/>
      <use xlink:href="#DejaVuSans-73" transform="translate(163.769531 0)"/>
      <use xlink:href="#DejaVuSans-65" transform="translate(215.869141 0)"/>
      <use xlink:href="#DejaVuSans-3a" transform="translate(277.392578 0)"/>
      <use xlink:href="#DejaVuSans-20" transform="translate(311.083984 0)"/>
      <use xlink:href="#DejaVuSans-30" transform="translate(342.871094 0)"/>
      <use xlink:href="#DejaVuSans-2e" transform="translate(406.494141 0)"/>
      <use xlink:href="#DejaVuSans-31" transform="translate(438.28125 0)"/>
     </g>
    </g>
    <g id="patch_22">
     <path d="M 843.75213 143.6325 
L 875.75213 143.6325 
L 875.75213 132.4325 
L 843.75213 132.4325 
z
" style="fill: #666666; opacity: 0.8; stroke: #000000; stroke-width: 0.5; stroke-linejoin: miter"/>
    </g>
    <g id="text_10">
     <!-- Noise: 0.2 -->
     <g transform="translate(888.55213 143.6325) scale(0.16 -0.16)">
      <defs>
       <path id="DejaVuSans-32" d="M 1228 531 
L 3431 531 
L 3431 0 
L 469 0 
L 469 531 
Q 828 903 1448 1529 
Q 2069 2156 2228 2338 
Q 2531 2678 2651 2914 
Q 2772 3150 2772 3378 
Q 2772 3750 2511 3984 
Q 2250 4219 1831 4219 
Q 1534 4219 1204 4116 
Q 875 4013 500 3803 
L 500 4441 
Q 881 4594 1212 4672 
Q 1544 4750 1819 4750 
Q 2544 4750 2975 4387 
Q 3406 4025 3406 3419 
Q 3406 3131 3298 2873 
Q 3191 2616 2906 2266 
Q 2828 2175 2409 1742 
Q 1991 1309 1228 531 
z
" transform="scale(0.015625)"/>
      </defs>
      <use xlink:href="#DejaVuSans-4e"/>
      <use xlink:href="#DejaVuSans-6f" transform="translate(74.804688 0)"/>
      <use xlink:href="#DejaVuSans-69" transform="translate(135.986328 0)"/>
      <use xlink:href="#DejaVuSans-73" transform="translate(163.769531 0)"/>
      <use xlink:href="#DejaVuSans-65" transform="translate(215.869141 0)"/>
      <use xlink:href="#DejaVuSans-3a" transform="translate(277.392578 0)"/>
      <use xlink:href="#DejaVuSans-20" transform="translate(311.083984 0)"/>
      <use xlink:href="#DejaVuSans-30" transform="translate(342.871094 0)"/>
      <use xlink:href="#DejaVuSans-2e" transform="translate(406.494141 0)"/>
      <use xlink:href="#DejaVuSans-32" transform="translate(438.28125 0)"/>
     </g>
    </g>
   </g>
  </g>
  <g id="text_11">
   <!-- Validation Error Comparison (Log Scale) -->
   <g transform="translate(274.454318 22.396875) scale(0.2 -0.2)">
    <defs>
     <path id="DejaVuSans-Bold-56" d="M 31 4666 
L 1241 4666 
L 2478 1222 
L 3713 4666 
L 4922 4666 
L 3194 0 
L 1759 0 
L 31 4666 
z
" transform="scale(0.015625)"/>
     <path id="DejaVuSans-Bold-61" d="M 2106 1575 
Q 1756 1575 1579 1456 
Q 1403 1338 1403 1106 
Q 1403 894 1545 773 
Q 1688 653 1941 653 
Q 2256 653 2472 879 
Q 2688 1106 2688 1447 
L 2688 1575 
L 2106 1575 
z
M 3816 1997 
L 3816 0 
L 2688 0 
L 2688 519 
Q 2463 200 2181 54 
Q 1900 -91 1497 -91 
Q 953 -91 614 226 
Q 275 544 275 1050 
Q 275 1666 698 1953 
Q 1122 2241 2028 2241 
L 2688 2241 
L 2688 2328 
Q 2688 2594 2478 2717 
Q 2269 2841 1825 2841 
Q 1466 2841 1156 2769 
Q 847 2697 581 2553 
L 581 3406 
Q 941 3494 1303 3539 
Q 1666 3584 2028 3584 
Q 2975 3584 3395 3211 
Q 3816 2838 3816 1997 
z
" transform="scale(0.015625)"/>
     <path id="DejaVuSans-Bold-69" d="M 538 3500 
L 1656 3500 
L 1656 0 
L 538 0 
L 538 3500 
z
M 538 4863 
L 1656 4863 
L 1656 3950 
L 538 3950 
L 538 4863 
z
" transform="scale(0.015625)"/>
     <path id="DejaVuSans-Bold-64" d="M 2919 2988 
L 2919 4863 
L 4044 4863 
L 4044 0 
L 2919 0 
L 2919 506 
Q 2688 197 2409 53 
Q 2131 -91 1766 -91 
Q 1119 -91 703 423 
Q 288 938 288 1747 
Q 288 2556 703 3070 
Q 1119 3584 1766 3584 
Q 2128 3584 2408 3439 
Q 2688 3294 2919 2988 
z
M 2181 722 
Q 2541 722 2730 984 
Q 2919 1247 2919 1747 
Q 2919 2247 2730 2509 
Q 2541 2772 2181 2772 
Q 1825 2772 1636 2509 
Q 1447 2247 1447 1747 
Q 1447 1247 1636 984 
Q 1825 722 2181 722 
z
" transform="scale(0.015625)"/>
     <path id="DejaVuSans-Bold-6f" d="M 2203 2784 
Q 1831 2784 1636 2517 
Q 1441 2250 1441 1747 
Q 1441 1244 1636 976 
Q 1831 709 2203 709 
Q 2569 709 2762 976 
Q 2956 1244 2956 1747 
Q 2956 2250 2762 2517 
Q 2569 2784 2203 2784 
z
M 2203 3584 
Q 3106 3584 3614 3096 
Q 4122 2609 4122 1747 
Q 4122 884 3614 396 
Q 3106 -91 2203 -91 
Q 1297 -91 786 396 
Q 275 884 275 1747 
Q 275 2609 786 3096 
Q 1297 3584 2203 3584 
z
" transform="scale(0.015625)"/>
     <path id="DejaVuSans-Bold-6e" d="M 4056 2131 
L 4056 0 
L 2931 0 
L 2931 347 
L 2931 1631 
Q 2931 2084 2911 2256 
Q 2891 2428 2841 2509 
Q 2775 2619 2662 2680 
Q 2550 2741 2406 2741 
Q 2056 2741 1856 2470 
Q 1656 2200 1656 1722 
L 1656 0 
L 538 0 
L 538 3500 
L 1656 3500 
L 1656 2988 
Q 1909 3294 2193 3439 
Q 2478 3584 2822 3584 
Q 3428 3584 3742 3212 
Q 4056 2841 4056 2131 
z
" transform="scale(0.015625)"/>
     <path id="DejaVuSans-Bold-45" d="M 588 4666 
L 3834 4666 
L 3834 3756 
L 1791 3756 
L 1791 2888 
L 3713 2888 
L 3713 1978 
L 1791 1978 
L 1791 909 
L 3903 909 
L 3903 0 
L 588 0 
L 588 4666 
z
" transform="scale(0.015625)"/>
     <path id="DejaVuSans-Bold-72" d="M 3138 2547 
Q 2991 2616 2845 2648 
Q 2700 2681 2553 2681 
Q 2122 2681 1889 2404 
Q 1656 2128 1656 1613 
L 1656 0 
L 538 0 
L 538 3500 
L 1656 3500 
L 1656 2925 
Q 1872 3269 2151 3426 
Q 2431 3584 2822 3584 
Q 2878 3584 2943 3579 
Q 3009 3575 3134 3559 
L 3138 2547 
z
" transform="scale(0.015625)"/>
     <path id="DejaVuSans-Bold-43" d="M 4288 256 
Q 3956 84 3597 -3 
Q 3238 -91 2847 -91 
Q 1681 -91 1000 561 
Q 319 1213 319 2328 
Q 319 3447 1000 4098 
Q 1681 4750 2847 4750 
Q 3238 4750 3597 4662 
Q 3956 4575 4288 4403 
L 4288 3438 
Q 3953 3666 3628 3772 
Q 3303 3878 2944 3878 
Q 2300 3878 1931 3465 
Q 1563 3053 1563 2328 
Q 1563 1606 1931 1193 
Q 2300 781 2944 781 
Q 3303 781 3628 887 
Q 3953 994 4288 1222 
L 4288 256 
z
" transform="scale(0.015625)"/>
     <path id="DejaVuSans-Bold-70" d="M 1656 506 
L 1656 -1331 
L 538 -1331 
L 538 3500 
L 1656 3500 
L 1656 2988 
Q 1888 3294 2169 3439 
Q 2450 3584 2816 3584 
Q 3463 3584 3878 3070 
Q 4294 2556 4294 1747 
Q 4294 938 3878 423 
Q 3463 -91 2816 -91 
Q 2450 -91 2169 54 
Q 1888 200 1656 506 
z
M 2400 2772 
Q 2041 2772 1848 2508 
Q 1656 2244 1656 1747 
Q 1656 1250 1848 986 
Q 2041 722 2400 722 
Q 2759 722 2948 984 
Q 3138 1247 3138 1747 
Q 3138 2247 2948 2509 
Q 2759 2772 2400 2772 
z
" transform="scale(0.015625)"/>
     <path id="DejaVuSans-Bold-28" d="M 2413 -844 
L 1484 -844 
Q 1006 -72 778 623 
Q 550 1319 550 2003 
Q 550 2688 779 3389 
Q 1009 4091 1484 4856 
L 2413 4856 
Q 2013 4116 1813 3408 
Q 1613 2700 1613 2009 
Q 1613 1319 1811 609 
Q 2009 -100 2413 -844 
z
" transform="scale(0.015625)"/>
     <path id="DejaVuSans-Bold-4c" d="M 588 4666 
L 1791 4666 
L 1791 909 
L 3903 909 
L 3903 0 
L 588 0 
L 588 4666 
z
" transform="scale(0.015625)"/>
     <path id="DejaVuSans-Bold-67" d="M 2919 594 
Q 2688 288 2409 144 
Q 2131 0 1766 0 
Q 1125 0 706 504 
Q 288 1009 288 1791 
Q 288 2575 706 3076 
Q 1125 3578 1766 3578 
Q 2131 3578 2409 3434 
Q 2688 3291 2919 2981 
L 2919 3500 
L 4044 3500 
L 4044 353 
Q 4044 -491 3511 -936 
Q 2978 -1381 1966 -1381 
Q 1638 -1381 1331 -1331 
Q 1025 -1281 716 -1178 
L 716 -306 
Q 1009 -475 1290 -558 
Q 1572 -641 1856 -641 
Q 2406 -641 2662 -400 
Q 2919 -159 2919 353 
L 2919 594 
z
M 2181 2772 
Q 1834 2772 1640 2515 
Q 1447 2259 1447 1791 
Q 1447 1309 1634 1061 
Q 1822 813 2181 813 
Q 2531 813 2725 1069 
Q 2919 1325 2919 1791 
Q 2919 2259 2725 2515 
Q 2531 2772 2181 2772 
z
" transform="scale(0.015625)"/>
     <path id="DejaVuSans-Bold-63" d="M 3366 3391 
L 3366 2478 
Q 3138 2634 2908 2709 
Q 2678 2784 2431 2784 
Q 1963 2784 1702 2511 
Q 1441 2238 1441 1747 
Q 1441 1256 1702 982 
Q 1963 709 2431 709 
Q 2694 709 2930 787 
Q 3166 866 3366 1019 
L 3366 103 
Q 3103 6 2833 -42 
Q 2563 -91 2291 -91 
Q 1344 -91 809 395 
Q 275 881 275 1747 
Q 275 2613 809 3098 
Q 1344 3584 2291 3584 
Q 2566 3584 2833 3536 
Q 3100 3488 3366 3391 
z
" transform="scale(0.015625)"/>
     <path id="DejaVuSans-Bold-29" d="M 513 -844 
Q 913 -100 1113 609 
Q 1313 1319 1313 2009 
Q 1313 2700 1113 3408 
Q 913 4116 513 4856 
L 1441 4856 
Q 1916 4091 2145 3389 
Q 2375 2688 2375 2003 
Q 2375 1319 2147 623 
Q 1919 -72 1441 -844 
L 513 -844 
z
" transform="scale(0.015625)"/>
    </defs>
    <use xlink:href="#DejaVuSans-Bold-56"/>
    <use xlink:href="#DejaVuSans-Bold-61" transform="translate(71.892578 0)"/>
    <use xlink:href="#DejaVuSans-Bold-6c" transform="translate(139.373047 0)"/>
    <use xlink:href="#DejaVuSans-Bold-69" transform="translate(173.650391 0)"/>
    <use xlink:href="#DejaVuSans-Bold-64" transform="translate(207.927734 0)"/>
    <use xlink:href="#DejaVuSans-Bold-61" transform="translate(279.509766 0)"/>
    <use xlink:href="#DejaVuSans-Bold-74" transform="translate(346.990234 0)"/>
    <use xlink:href="#DejaVuSans-Bold-69" transform="translate(394.792969 0)"/>
    <use xlink:href="#DejaVuSans-Bold-6f" transform="translate(429.070312 0)"/>
    <use xlink:href="#DejaVuSans-Bold-6e" transform="translate(497.771484 0)"/>
    <use xlink:href="#DejaVuSans-Bold-20" transform="translate(568.962891 0)"/>
    <use xlink:href="#DejaVuSans-Bold-45" transform="translate(603.777344 0)"/>
    <use xlink:href="#DejaVuSans-Bold-72" transform="translate(672.087891 0)"/>
    <use xlink:href="#DejaVuSans-Bold-72" transform="translate(721.404297 0)"/>
    <use xlink:href="#DejaVuSans-Bold-6f" transform="translate(770.720703 0)"/>
    <use xlink:href="#DejaVuSans-Bold-72" transform="translate(839.421875 0)"/>
    <use xlink:href="#DejaVuSans-Bold-20" transform="translate(888.738281 0)"/>
    <use xlink:href="#DejaVuSans-Bold-43" transform="translate(923.552734 0)"/>
    <use xlink:href="#DejaVuSans-Bold-6f" transform="translate(996.941406 0)"/>
    <use xlink:href="#DejaVuSans-Bold-6d" transform="translate(1065.642578 0)"/>
    <use xlink:href="#DejaVuSans-Bold-70" transform="translate(1169.841797 0)"/>
    <use xlink:href="#DejaVuSans-Bold-61" transform="translate(1241.423828 0)"/>
    <use xlink:href="#DejaVuSans-Bold-72" transform="translate(1308.904297 0)"/>
    <use xlink:href="#DejaVuSans-Bold-69" transform="translate(1358.220703 0)"/>
    <use xlink:href="#DejaVuSans-Bold-73" transform="translate(1392.498047 0)"/>
    <use xlink:href="#DejaVuSans-Bold-6f" transform="translate(1452.019531 0)"/>
    <use xlink:href="#DejaVuSans-Bold-6e" transform="translate(1520.720703 0)"/>
    <use xlink:href="#DejaVuSans-Bold-20" transform="translate(1591.912109 0)"/>
    <use xlink:href="#DejaVuSans-Bold-28" transform="translate(1626.726562 0)"/>
    <use xlink:href="#DejaVuSans-Bold-4c" transform="translate(1672.429688 0)"/>
    <use xlink:href="#DejaVuSans-Bold-6f" transform="translate(1736.150391 0)"/>
    <use xlink:href="#DejaVuSans-Bold-67" transform="translate(1804.851562 0)"/>
    <use xlink:href="#DejaVuSans-Bold-20" transform="translate(1876.433594 0)"/>
    <use xlink:href="#DejaVuSans-Bold-53" transform="translate(1911.248047 0)"/>
    <use xlink:href="#DejaVuSans-Bold-63" transform="translate(1983.269531 0)"/>
    <use xlink:href="#DejaVuSans-Bold-61" transform="translate(2042.546875 0)"/>
    <use xlink:href="#DejaVuSans-Bold-6c" transform="translate(2110.027344 0)"/>
    <use xlink:href="#DejaVuSans-Bold-65" transform="translate(2144.304688 0)"/>
    <use xlink:href="#DejaVuSans-Bold-29" transform="translate(2212.126953 0)"/>
   </g>
  </g>
 </g>
 <defs>
  <clipPath id="p0b48d83212">
   <rect x="72.9125" y="46.62" width="920.52463" height="387.56"/>
  </clipPath>
 </defs>
</svg>
