<?xml version="1.0" encoding="utf-8" standalone="no"?>
<!DOCTYPE svg PUBLIC "-//W3C//DTD SVG 1.1//EN"
  "http://www.w3.org/Graphics/SVG/1.1/DTD/svg11.dtd">
<svg xmlns:xlink="http://www.w3.org/1999/xlink" width="993.530765pt" height="659.098562pt" viewBox="0 0 993.530765 659.098562" xmlns="http://www.w3.org/2000/svg" version="1.1">
 <metadata>
  <rdf:RDF xmlns:dc="http://purl.org/dc/elements/1.1/" xmlns:cc="http://creativecommons.org/ns#" xmlns:rdf="http://www.w3.org/1999/02/22-rdf-syntax-ns#">
   <cc:Work>
    <dc:type rdf:resource="http://purl.org/dc/dcmitype/StillImage"/>
    <dc:date>2026-01-21T20:00:44.693030</dc:date>
    <dc:format>image/svg+xml</dc:format>
    <dc:creator>
     <cc:Agent>
      <dc:title>Matplotlib v3.10.8, https://matplotlib.org/</dc:title>
     </cc:Agent>
    </dc:creator>
   </cc:Work>
  </rdf:RDF>
 </metadata>
 <defs>
  <style type="text/css">*{stroke-linejoin: round; stroke-linecap: butt}</style>
 </defs>
 <g id="figure_1">
  <g id="patch_1">
   <path d="M 0 659.098562 
L 993.530765 659.098562 
L 993.530765 0 
L 0 0 
L 0 659.098562 
z
" style="fill: none"/>
  </g>
  <g id="axes_1">
   <g id="patch_2">
    <path d="M 110.35625 329.706714 
L 986.330765 329.706714 
L 986.330765 52.56274 
L 110.35625 52.56274 
L 110.35625 329.706714 
z
" style="fill: none"/>
   </g>
   <g id="matplotlib.axis_1">
    <g id="xtick_1">
     <g id="line2d_1">
      <path d="M 235.495466 329.706714 
L 235.495466 52.56274 
" clip-path="url(#pc8d05b4c3d)" style="fill: none; stroke: #ffffff; stroke-linecap: round"/>
     </g>
    </g>
    <g id="xtick_2">
     <g id="line2d_2">
      <path d="M 485.773899 329.706714 
L 485.773899 52.56274 
" clip-path="url(#pc8d05b4c3d)" style="fill: none; stroke: #ffffff; stroke-linecap: round"/>
     </g>
    </g>
    <g id="xtick_3">
     <g id="line2d_3">
      <path d="M 736.052332 329.706714 
L 736.052332 52.56274 
" clip-path="url(#pc8d05b4c3d)" style="fill: none; stroke: #ffffff; stroke-linecap: round"/>
     </g>
    </g>
   </g>
   <g id="matplotlib.axis_2">
    <g id="ytick_1">
     <g id="line2d_4">
      <path d="M 110.35625 161.105944 
L 986.330765 161.105944 
" clip-path="url(#pc8d05b4c3d)" style="fill: none; stroke: #ffffff; stroke-opacity: 0.4; stroke-width: 0.8; stroke-linecap: round"/>
     </g>
     <g id="text_1">
      <!-- $\mathdefault{10^{1}}$ -->
      <g style="fill: #ffffff" transform="translate(65.65625 168.704382) scale(0.2 -0.2)">
       <defs>
        <path id="DejaVuSans-31" d="M 794 531 
L 1825 531 
L 1825 4091 
L 703 3866 
L 703 4441 
L 1819 4666 
L 2450 4666 
L 2450 531 
L 3481 531 
L 3481 0 
L 794 0 
L 794 531 
z
" transform="scale(0.015625)"/>
        <path id="DejaVuSans-30" d="M 2034 4250 
Q 1547 4250 1301 3770 
Q 1056 3291 1056 2328 
Q 1056 1369 1301 889 
Q 1547 409 2034 409 
Q 2525 409 2770 889 
Q 3016 1369 3016 2328 
Q 3016 3291 2770 3770 
Q 2525 4250 2034 4250 
z
M 2034 4750 
Q 2819 4750 3233 4129 
Q 3647 3509 3647 2328 
Q 3647 1150 3233 529 
Q 2819 -91 2034 -91 
Q 1250 -91 836 529 
Q 422 1150 422 2328 
Q 422 3509 836 4129 
Q 1250 4750 2034 4750 
z
" transform="scale(0.015625)"/>
       </defs>
       <use xlink:href="#DejaVuSans-31" transform="translate(0 0.684375)"/>
       <use xlink:href="#DejaVuSans-30" transform="translate(63.623047 0.684375)"/>
       <use xlink:href="#DejaVuSans-31" transform="translate(128.203125 38.965625) scale(0.7)"/>
      </g>
     </g>
    </g>
    <g id="ytick_2">
     <g id="line2d_5">
      <path d="M 110.35625 312.016939 
L 986.330765 312.016939 
" clip-path="url(#pc8d05b4c3d)" style="fill: none; stroke-dasharray: 0.5,0.825; stroke-dashoffset: 0; stroke: #ffffff; stroke-opacity: 0.2; stroke-width: 0.5"/>
     </g>
    </g>
    <g id="ytick_3">
     <g id="line2d_6">
      <path d="M 110.35625 273.997987 
L 986.330765 273.997987 
" clip-path="url(#pc8d05b4c3d)" style="fill: none; stroke-dasharray: 0.5,0.825; stroke-dashoffset: 0; stroke: #ffffff; stroke-opacity: 0.2; stroke-width: 0.5"/>
     </g>
    </g>
    <g id="ytick_4">
     <g id="line2d_7">
      <path d="M 110.35625 247.023111 
L 986.330765 247.023111 
" clip-path="url(#pc8d05b4c3d)" style="fill: none; stroke-dasharray: 0.5,0.825; stroke-dashoffset: 0; stroke: #ffffff; stroke-opacity: 0.2; stroke-width: 0.5"/>
     </g>
    </g>
    <g id="ytick_5">
     <g id="line2d_8">
      <path d="M 110.35625 226.099772 
L 986.330765 226.099772 
" clip-path="url(#pc8d05b4c3d)" style="fill: none; stroke-dasharray: 0.5,0.825; stroke-dashoffset: 0; stroke: #ffffff; stroke-opacity: 0.2; stroke-width: 0.5"/>
     </g>
    </g>
    <g id="ytick_6">
     <g id="line2d_9">
      <path d="M 110.35625 209.004159 
L 986.330765 209.004159 
" clip-path="url(#pc8d05b4c3d)" style="fill: none; stroke-dasharray: 0.5,0.825; stroke-dashoffset: 0; stroke: #ffffff; stroke-opacity: 0.2; stroke-width: 0.5"/>
     </g>
    </g>
    <g id="ytick_7">
     <g id="line2d_10">
      <path d="M 110.35625 194.550024 
L 986.330765 194.550024 
" clip-path="url(#pc8d05b4c3d)" style="fill: none; stroke-dasharray: 0.5,0.825; stroke-dashoffset: 0; stroke: #ffffff; stroke-opacity: 0.2; stroke-width: 0.5"/>
     </g>
    </g>
    <g id="ytick_8">
     <g id="line2d_11">
      <path d="M 110.35625 182.029283 
L 986.330765 182.029283 
" clip-path="url(#pc8d05b4c3d)" style="fill: none; stroke-dasharray: 0.5,0.825; stroke-dashoffset: 0; stroke: #ffffff; stroke-opacity: 0.2; stroke-width: 0.5"/>
     </g>
    </g>
    <g id="ytick_9">
     <g id="line2d_12">
      <path d="M 110.35625 170.985207 
L 986.330765 170.985207 
" clip-path="url(#pc8d05b4c3d)" style="fill: none; stroke-dasharray: 0.5,0.825; stroke-dashoffset: 0; stroke: #ffffff; stroke-opacity: 0.2; stroke-width: 0.5"/>
     </g>
    </g>
    <g id="ytick_10">
     <g id="line2d_13">
      <path d="M 110.35625 96.112116 
L 986.330765 96.112116 
" clip-path="url(#pc8d05b4c3d)" style="fill: none; stroke-dasharray: 0.5,0.825; stroke-dashoffset: 0; stroke: #ffffff; stroke-opacity: 0.2; stroke-width: 0.5"/>
     </g>
    </g>
    <g id="ytick_11">
     <g id="line2d_14">
      <path d="M 110.35625 58.093164 
L 986.330765 58.093164 
" clip-path="url(#pc8d05b4c3d)" style="fill: none; stroke-dasharray: 0.5,0.825; stroke-dashoffset: 0; stroke: #ffffff; stroke-opacity: 0.2; stroke-width: 0.5"/>
     </g>
    </g>
    <g id="text_2">
     <!-- Cartpole -->
     <g style="fill: #ffffff" transform="translate(57.496875 239.172227) rotate(-90) scale(0.2 -0.2)">
      <defs>
       <path id="DejaVuSans-Bold-43" d="M 4288 256 
Q 3956 84 3597 -3 
Q 3238 -91 2847 -91 
Q 1681 -91 1000 561 
Q 319 1213 319 2328 
Q 319 3447 1000 4098 
Q 1681 4750 2847 4750 
Q 3238 4750 3597 4662 
Q 3956 4575 4288 4403 
L 4288 3438 
Q 3953 3666 3628 3772 
Q 3303 3878 2944 3878 
Q 2300 3878 1931 3465 
Q 1563 3053 1563 2328 
Q 1563 1606 1931 1193 
Q 2300 781 2944 781 
Q 3303 781 3628 887 
Q 3953 994 4288 1222 
L 4288 256 
z
" transform="scale(0.015625)"/>
       <path id="DejaVuSans-Bold-61" d="M 2106 1575 
Q 1756 1575 1579 1456 
Q 1403 1338 1403 1106 
Q 1403 894 1545 773 
Q 1688 653 1941 653 
Q 2256 653 2472 879 
Q 2688 1106 2688 1447 
L 2688 1575 
L 2106 1575 
z
M 3816 1997 
L 3816 0 
L 2688 0 
L 2688 519 
Q 2463 200 2181 54 
Q 1900 -91 1497 -91 
Q 953 -91 614 226 
Q 275 544 275 1050 
Q 275 1666 698 1953 
Q 1122 2241 2028 2241 
L 2688 2241 
L 2688 2328 
Q 2688 2594 2478 2717 
Q 2269 2841 1825 2841 
Q 1466 2841 1156 2769 
Q 847 2697 581 2553 
L 581 3406 
Q 941 3494 1303 3539 
Q 1666 3584 2028 3584 
Q 2975 3584 3395 3211 
Q 3816 2838 3816 1997 
z
" transform="scale(0.015625)"/>
       <path id="DejaVuSans-Bold-72" d="M 3138 2547 
Q 2991 2616 2845 2648 
Q 2700 2681 2553 2681 
Q 2122 2681 1889 2404 
Q 1656 2128 1656 1613 
L 1656 0 
L 538 0 
L 538 3500 
L 1656 3500 
L 1656 2925 
Q 1872 3269 2151 3426 
Q 2431 3584 2822 3584 
Q 2878 3584 2943 3579 
Q 3009 3575 3134 3559 
L 3138 2547 
z
" transform="scale(0.015625)"/>
       <path id="DejaVuSans-Bold-74" d="M 1759 4494 
L 1759 3500 
L 2913 3500 
L 2913 2700 
L 1759 2700 
L 1759 1216 
Q 1759 972 1856 886 
Q 1953 800 2241 800 
L 2816 800 
L 2816 0 
L 1856 0 
Q 1194 0 917 276 
Q 641 553 641 1216 
L 641 2700 
L 84 2700 
L 84 3500 
L 641 3500 
L 641 4494 
L 1759 4494 
z
" transform="scale(0.015625)"/>
       <path id="DejaVuSans-Bold-70" d="M 1656 506 
L 1656 -1331 
L 538 -1331 
L 538 3500 
L 1656 3500 
L 1656 2988 
Q 1888 3294 2169 3439 
Q 2450 3584 2816 3584 
Q 3463 3584 3878 3070 
Q 4294 2556 4294 1747 
Q 4294 938 3878 423 
Q 3463 -91 2816 -91 
Q 2450 -91 2169 54 
Q 1888 200 1656 506 
z
M 2400 2772 
Q 2041 2772 1848 2508 
Q 1656 2244 1656 1747 
Q 1656 1250 1848 986 
Q 2041 722 2400 722 
Q 2759 722 2948 984 
Q 3138 1247 3138 1747 
Q 3138 2247 2948 2509 
Q 2759 2772 2400 2772 
z
" transform="scale(0.015625)"/>
       <path id="DejaVuSans-Bold-6f" d="M 2203 2784 
Q 1831 2784 1636 2517 
Q 1441 2250 1441 1747 
Q 1441 1244 1636 976 
Q 1831 709 2203 709 
Q 2569 709 2762 976 
Q 2956 1244 2956 1747 
Q 2956 2250 2762 2517 
Q 2569 2784 2203 2784 
z
M 2203 3584 
Q 3106 3584 3614 3096 
Q 4122 2609 4122 1747 
Q 4122 884 3614 396 
Q 3106 -91 2203 -91 
Q 1297 -91 786 396 
Q 275 884 275 1747 
Q 275 2609 786 3096 
Q 1297 3584 2203 3584 
z
" transform="scale(0.015625)"/>
       <path id="DejaVuSans-Bold-6c" d="M 538 4863 
L 1656 4863 
L 1656 0 
L 538 0 
L 538 4863 
z
" transform="scale(0.015625)"/>
       <path id="DejaVuSans-Bold-65" d="M 4031 1759 
L 4031 1441 
L 1416 1441 
Q 1456 1047 1700 850 
Q 1944 653 2381 653 
Q 2734 653 3104 758 
Q 3475 863 3866 1075 
L 3866 213 
Q 3469 63 3072 -14 
Q 2675 -91 2278 -91 
Q 1328 -91 801 392 
Q 275 875 275 1747 
Q 275 2603 792 3093 
Q 1309 3584 2216 3584 
Q 3041 3584 3536 3087 
Q 4031 2591 4031 1759 
z
M 2881 2131 
Q 2881 2450 2695 2645 
Q 2509 2841 2209 2841 
Q 1884 2841 1681 2658 
Q 1478 2475 1428 2131 
L 2881 2131 
z
" transform="scale(0.015625)"/>
      </defs>
      <use xlink:href="#DejaVuSans-Bold-43"/>
      <use xlink:href="#DejaVuSans-Bold-61" transform="translate(73.388672 0)"/>
      <use xlink:href="#DejaVuSans-Bold-72" transform="translate(140.869141 0)"/>
      <use xlink:href="#DejaVuSans-Bold-74" transform="translate(190.185547 0)"/>
      <use xlink:href="#DejaVuSans-Bold-70" transform="translate(237.988281 0)"/>
      <use xlink:href="#DejaVuSans-Bold-6f" transform="translate(309.570312 0)"/>
      <use xlink:href="#DejaVuSans-Bold-6c" transform="translate(378.271484 0)"/>
      <use xlink:href="#DejaVuSans-Bold-65" transform="translate(412.548828 0)"/>
     </g>
    </g>
   </g>
   <g id="patch_3">
    <path d="M 144.143838 225.307152 
L 176.680035 225.307152 
L 176.680035 145.083181 
L 144.143838 145.083181 
L 144.143838 225.307152 
z
" clip-path="url(#pc8d05b4c3d)" style="fill: #c9d5e7; opacity: 0.75; stroke: #2c3e50; stroke-width: 1.2; stroke-linejoin: miter"/>
   </g>
   <g id="line2d_15">
    <path d="M 160.411937 225.307152 
L 160.411937 243.304241 
" clip-path="url(#pc8d05b4c3d)" style="fill: none; stroke: #ffffff; stroke-width: 1.5; stroke-linecap: round"/>
   </g>
   <g id="line2d_16">
    <path d="M 160.411937 145.083181 
L 160.411937 107.018486 
" clip-path="url(#pc8d05b4c3d)" style="fill: none; stroke: #ffffff; stroke-width: 1.5; stroke-linecap: round"/>
   </g>
   <g id="line2d_17">
    <path d="M 152.277888 243.304241 
L 168.545986 243.304241 
" clip-path="url(#pc8d05b4c3d)" style="fill: none; stroke: #ffffff; stroke-width: 1.5; stroke-linecap: round"/>
   </g>
   <g id="line2d_18">
    <path d="M 152.277888 107.018486 
L 168.545986 107.018486 
" clip-path="url(#pc8d05b4c3d)" style="fill: none; stroke: #ffffff; stroke-width: 1.5; stroke-linecap: round"/>
   </g>
   <g id="line2d_19"/>
   <g id="patch_4">
    <path d="M 194.199525 258.725317 
L 226.735721 258.725317 
L 226.735721 199.72401 
L 194.199525 199.72401 
L 194.199525 258.725317 
z
" clip-path="url(#pc8d05b4c3d)" style="fill: #a0b4d5; opacity: 0.75; stroke: #2c3e50; stroke-width: 1.2; stroke-linejoin: miter"/>
   </g>
   <g id="line2d_20">
    <path d="M 210.467623 258.725317 
L 210.467623 317.109261 
" clip-path="url(#pc8d05b4c3d)" style="fill: none; stroke: #ffffff; stroke-width: 1.5; stroke-linecap: round"/>
   </g>
   <g id="line2d_21">
    <path d="M 210.467623 199.72401 
L 210.467623 181.080988 
" clip-path="url(#pc8d05b4c3d)" style="fill: none; stroke: #ffffff; stroke-width: 1.5; stroke-linecap: round"/>
   </g>
   <g id="line2d_22">
    <path d="M 202.333574 317.109261 
L 218.601672 317.109261 
" clip-path="url(#pc8d05b4c3d)" style="fill: none; stroke: #ffffff; stroke-width: 1.5; stroke-linecap: round"/>
   </g>
   <g id="line2d_23">
    <path d="M 202.333574 181.080988 
L 218.601672 181.080988 
" clip-path="url(#pc8d05b4c3d)" style="fill: none; stroke: #ffffff; stroke-width: 1.5; stroke-linecap: round"/>
   </g>
   <g id="line2d_24"/>
   <g id="patch_5">
    <path d="M 244.255212 132.520831 
L 276.791408 132.520831 
L 276.791408 111.086366 
L 244.255212 111.086366 
L 244.255212 132.520831 
z
" clip-path="url(#pc8d05b4c3d)" style="fill: #7693c2; opacity: 0.75; stroke: #2c3e50; stroke-width: 1.2; stroke-linejoin: miter"/>
   </g>
   <g id="line2d_25">
    <path d="M 260.52331 132.520831 
L 260.52331 145.408375 
" clip-path="url(#pc8d05b4c3d)" style="fill: none; stroke: #ffffff; stroke-width: 1.5; stroke-linecap: round"/>
   </g>
   <g id="line2d_26">
    <path d="M 260.52331 111.086366 
L 260.52331 101.96431 
" clip-path="url(#pc8d05b4c3d)" style="fill: none; stroke: #ffffff; stroke-width: 1.5; stroke-linecap: round"/>
   </g>
   <g id="line2d_27">
    <path d="M 252.389261 145.408375 
L 268.657359 145.408375 
" clip-path="url(#pc8d05b4c3d)" style="fill: none; stroke: #ffffff; stroke-width: 1.5; stroke-linecap: round"/>
   </g>
   <g id="line2d_28">
    <path d="M 252.389261 101.96431 
L 268.657359 101.96431 
" clip-path="url(#pc8d05b4c3d)" style="fill: none; stroke: #ffffff; stroke-width: 1.5; stroke-linecap: round"/>
   </g>
   <g id="line2d_29"/>
   <g id="patch_6">
    <path d="M 394.422271 218.254506 
L 426.958468 218.254506 
L 426.958468 128.61604 
L 394.422271 128.61604 
L 394.422271 218.254506 
z
" clip-path="url(#pc8d05b4c3d)" style="fill: #edcacb; opacity: 0.75; stroke: #2c3e50; stroke-width: 1.2; stroke-linejoin: miter"/>
   </g>
   <g id="line2d_30">
    <path d="M 410.69037 218.254506 
L 410.69037 245.983476 
" clip-path="url(#pc8d05b4c3d)" style="fill: none; stroke: #ffffff; stroke-width: 1.5; stroke-linecap: round"/>
   </g>
   <g id="line2d_31">
    <path d="M 410.69037 128.61604 
L 410.69037 89.531396 
" clip-path="url(#pc8d05b4c3d)" style="fill: none; stroke: #ffffff; stroke-width: 1.5; stroke-linecap: round"/>
   </g>
   <g id="line2d_32">
    <path d="M 402.55632 245.983476 
L 418.824419 245.983476 
" clip-path="url(#pc8d05b4c3d)" style="fill: none; stroke: #ffffff; stroke-width: 1.5; stroke-linecap: round"/>
   </g>
   <g id="line2d_33">
    <path d="M 402.55632 89.531396 
L 418.824419 89.531396 
" clip-path="url(#pc8d05b4c3d)" style="fill: none; stroke: #ffffff; stroke-width: 1.5; stroke-linecap: round"/>
   </g>
   <g id="line2d_34"/>
   <g id="patch_7">
    <path d="M 444.477958 158.799031 
L 477.014154 158.799031 
L 477.014154 104.415377 
L 444.477958 104.415377 
L 444.477958 158.799031 
z
" clip-path="url(#pc8d05b4c3d)" style="fill: #e0a1a3; opacity: 0.75; stroke: #2c3e50; stroke-width: 1.2; stroke-linejoin: miter"/>
   </g>
   <g id="line2d_35">
    <path d="M 460.746056 158.799031 
L 460.746056 266.029371 
" clip-path="url(#pc8d05b4c3d)" style="fill: none; stroke: #ffffff; stroke-width: 1.5; stroke-linecap: round"/>
   </g>
   <g id="line2d_36">
    <path d="M 460.746056 104.415377 
L 460.746056 99.073914 
" clip-path="url(#pc8d05b4c3d)" style="fill: none; stroke: #ffffff; stroke-width: 1.5; stroke-linecap: round"/>
   </g>
   <g id="line2d_37">
    <path d="M 452.612007 266.029371 
L 468.880105 266.029371 
" clip-path="url(#pc8d05b4c3d)" style="fill: none; stroke: #ffffff; stroke-width: 1.5; stroke-linecap: round"/>
   </g>
   <g id="line2d_38">
    <path d="M 452.612007 99.073914 
L 468.880105 99.073914 
" clip-path="url(#pc8d05b4c3d)" style="fill: none; stroke: #ffffff; stroke-width: 1.5; stroke-linecap: round"/>
   </g>
   <g id="line2d_39"/>
   <g id="patch_8">
    <path d="M 494.533645 206.560333 
L 527.069841 206.560333 
L 527.069841 117.265889 
L 494.533645 117.265889 
L 494.533645 206.560333 
z
" clip-path="url(#pc8d05b4c3d)" style="fill: #d2777a; opacity: 0.75; stroke: #2c3e50; stroke-width: 1.2; stroke-linejoin: miter"/>
   </g>
   <g id="line2d_40">
    <path d="M 510.801743 206.560333 
L 510.801743 230.866912 
" clip-path="url(#pc8d05b4c3d)" style="fill: none; stroke: #ffffff; stroke-width: 1.5; stroke-linecap: round"/>
   </g>
   <g id="line2d_41">
    <path d="M 510.801743 117.265889 
L 510.801743 77.633005 
" clip-path="url(#pc8d05b4c3d)" style="fill: none; stroke: #ffffff; stroke-width: 1.5; stroke-linecap: round"/>
   </g>
   <g id="line2d_42">
    <path d="M 502.667694 230.866912 
L 518.935792 230.866912 
" clip-path="url(#pc8d05b4c3d)" style="fill: none; stroke: #ffffff; stroke-width: 1.5; stroke-linecap: round"/>
   </g>
   <g id="line2d_43">
    <path d="M 502.667694 77.633005 
L 518.935792 77.633005 
" clip-path="url(#pc8d05b4c3d)" style="fill: none; stroke: #ffffff; stroke-width: 1.5; stroke-linecap: round"/>
   </g>
   <g id="line2d_44"/>
   <g id="patch_9">
    <path d="M 544.589331 65.160194 
L 577.125527 65.160194 
L 577.125527 65.160194 
L 544.589331 65.160194 
L 544.589331 65.160194 
z
" clip-path="url(#pc8d05b4c3d)" style="fill: #c44e52; opacity: 0.75; stroke: #2c3e50; stroke-width: 1.2; stroke-linejoin: miter"/>
   </g>
   <g id="line2d_45">
    <path d="M 560.857429 65.160194 
L 560.857429 65.160194 
" clip-path="url(#pc8d05b4c3d)" style="fill: none; stroke: #ffffff; stroke-width: 1.5; stroke-linecap: round"/>
   </g>
   <g id="line2d_46">
    <path d="M 560.857429 65.160194 
L 560.857429 65.160194 
" clip-path="url(#pc8d05b4c3d)" style="fill: none; stroke: #ffffff; stroke-width: 1.5; stroke-linecap: round"/>
   </g>
   <g id="line2d_47">
    <path d="M 552.72338 65.160194 
L 568.991478 65.160194 
" clip-path="url(#pc8d05b4c3d)" style="fill: none; stroke: #ffffff; stroke-width: 1.5; stroke-linecap: round"/>
   </g>
   <g id="line2d_48">
    <path d="M 552.72338 65.160194 
L 568.991478 65.160194 
" clip-path="url(#pc8d05b4c3d)" style="fill: none; stroke: #ffffff; stroke-width: 1.5; stroke-linecap: round"/>
   </g>
   <g id="line2d_49"/>
   <g id="patch_10">
    <path d="M 644.700704 167.847171 
L 677.236901 167.847171 
L 677.236901 115.383977 
L 644.700704 115.383977 
L 644.700704 167.847171 
z
" clip-path="url(#pc8d05b4c3d)" style="fill: #cce5d2; opacity: 0.75; stroke: #2c3e50; stroke-width: 1.2; stroke-linejoin: miter"/>
   </g>
   <g id="line2d_50">
    <path d="M 660.968802 167.847171 
L 660.968802 211.903812 
" clip-path="url(#pc8d05b4c3d)" style="fill: none; stroke: #ffffff; stroke-width: 1.5; stroke-linecap: round"/>
   </g>
   <g id="line2d_51">
    <path d="M 660.968802 115.383977 
L 660.968802 97.181018 
" clip-path="url(#pc8d05b4c3d)" style="fill: none; stroke: #ffffff; stroke-width: 1.5; stroke-linecap: round"/>
   </g>
   <g id="line2d_52">
    <path d="M 652.834753 211.903812 
L 669.102852 211.903812 
" clip-path="url(#pc8d05b4c3d)" style="fill: none; stroke: #ffffff; stroke-width: 1.5; stroke-linecap: round"/>
   </g>
   <g id="line2d_53">
    <path d="M 652.834753 97.181018 
L 669.102852 97.181018 
" clip-path="url(#pc8d05b4c3d)" style="fill: none; stroke: #ffffff; stroke-width: 1.5; stroke-linecap: round"/>
   </g>
   <g id="line2d_54"/>
   <g id="patch_11">
    <path d="M 694.756391 154.402877 
L 727.292587 154.402877 
L 727.292587 91.962231 
L 694.756391 91.962231 
L 694.756391 154.402877 
z
" clip-path="url(#pc8d05b4c3d)" style="fill: #a4d1ae; opacity: 0.75; stroke: #2c3e50; stroke-width: 1.2; stroke-linejoin: miter"/>
   </g>
   <g id="line2d_55">
    <path d="M 711.024489 154.402877 
L 711.024489 214.489892 
" clip-path="url(#pc8d05b4c3d)" style="fill: none; stroke: #ffffff; stroke-width: 1.5; stroke-linecap: round"/>
   </g>
   <g id="line2d_56">
    <path d="M 711.024489 91.962231 
L 711.024489 71.557978 
" clip-path="url(#pc8d05b4c3d)" style="fill: none; stroke: #ffffff; stroke-width: 1.5; stroke-linecap: round"/>
   </g>
   <g id="line2d_57">
    <path d="M 702.89044 214.489892 
L 719.158538 214.489892 
" clip-path="url(#pc8d05b4c3d)" style="fill: none; stroke: #ffffff; stroke-width: 1.5; stroke-linecap: round"/>
   </g>
   <g id="line2d_58">
    <path d="M 702.89044 71.557978 
L 719.158538 71.557978 
" clip-path="url(#pc8d05b4c3d)" style="fill: none; stroke: #ffffff; stroke-width: 1.5; stroke-linecap: round"/>
   </g>
   <g id="line2d_59"/>
   <g id="line2d_60">
    <path d="M 144.143838 210.21437 
L 176.680035 210.21437 
" clip-path="url(#pc8d05b4c3d)" style="fill: none; stroke: #ffffff; stroke-width: 2.5"/>
   </g>
   <g id="line2d_61">
    <defs>
     <path id="m4fc58ca98a" d="M -0 4.242641 
L 4.242641 0 
L 0 -4.242641 
L -4.242641 -0 
z
" style="stroke: #ffffff; stroke-linejoin: miter"/>
    </defs>
    <g clip-path="url(#pc8d05b4c3d)">
     <use xlink:href="#m4fc58ca98a" x="160.411937" y="167.948292" style="fill: #2c3e50; stroke: #ffffff; stroke-linejoin: miter"/>
    </g>
   </g>
   <g id="line2d_62">
    <path d="M 194.199525 223.017424 
L 226.735721 223.017424 
" clip-path="url(#pc8d05b4c3d)" style="fill: none; stroke: #ffffff; stroke-width: 2.5"/>
   </g>
   <g id="line2d_63">
    <g clip-path="url(#pc8d05b4c3d)">
     <use xlink:href="#m4fc58ca98a" x="210.467623" y="225.212009" style="fill: #2c3e50; stroke: #ffffff; stroke-linejoin: miter"/>
    </g>
   </g>
   <g id="line2d_64">
    <path d="M 244.255212 121.192452 
L 276.791408 121.192452 
" clip-path="url(#pc8d05b4c3d)" style="fill: none; stroke: #ffffff; stroke-width: 2.5"/>
   </g>
   <g id="line2d_65">
    <g clip-path="url(#pc8d05b4c3d)">
     <use xlink:href="#m4fc58ca98a" x="260.52331" y="121.192452" style="fill: #2c3e50; stroke: #ffffff; stroke-linejoin: miter"/>
    </g>
   </g>
   <g id="line2d_66">
    <path d="M 394.422271 196.881603 
L 426.958468 196.881603 
" clip-path="url(#pc8d05b4c3d)" style="fill: none; stroke: #ffffff; stroke-width: 2.5"/>
   </g>
   <g id="line2d_67">
    <g clip-path="url(#pc8d05b4c3d)">
     <use xlink:href="#m4fc58ca98a" x="410.69037" y="154.101811" style="fill: #2c3e50; stroke: #ffffff; stroke-linejoin: miter"/>
    </g>
   </g>
   <g id="line2d_68">
    <path d="M 444.477958 110.079599 
L 477.014154 110.079599 
" clip-path="url(#pc8d05b4c3d)" style="fill: none; stroke: #ffffff; stroke-width: 2.5"/>
   </g>
   <g id="line2d_69">
    <g clip-path="url(#pc8d05b4c3d)">
     <use xlink:href="#m4fc58ca98a" x="460.746056" y="134.421509" style="fill: #2c3e50; stroke: #ffffff; stroke-linejoin: miter"/>
    </g>
   </g>
   <g id="line2d_70">
    <path d="M 494.533645 187.275197 
L 527.069841 187.275197 
" clip-path="url(#pc8d05b4c3d)" style="fill: none; stroke: #ffffff; stroke-width: 2.5"/>
   </g>
   <g id="line2d_71">
    <g clip-path="url(#pc8d05b4c3d)">
     <use xlink:href="#m4fc58ca98a" x="510.801743" y="142.272056" style="fill: #2c3e50; stroke: #ffffff; stroke-linejoin: miter"/>
    </g>
   </g>
   <g id="line2d_72">
    <path d="M 544.589331 65.160194 
L 577.125527 65.160194 
" clip-path="url(#pc8d05b4c3d)" style="fill: none; stroke: #ffffff; stroke-width: 2.5"/>
   </g>
   <g id="line2d_73">
    <g clip-path="url(#pc8d05b4c3d)">
     <use xlink:href="#m4fc58ca98a" x="560.857429" y="65.160194" style="fill: #2c3e50; stroke: #ffffff; stroke-linejoin: miter"/>
    </g>
   </g>
   <g id="line2d_74">
    <path d="M 644.700704 137.993246 
L 677.236901 137.993246 
" clip-path="url(#pc8d05b4c3d)" style="fill: none; stroke: #ffffff; stroke-width: 2.5"/>
   </g>
   <g id="line2d_75">
    <g clip-path="url(#pc8d05b4c3d)">
     <use xlink:href="#m4fc58ca98a" x="660.968802" y="137.993246" style="fill: #2c3e50; stroke: #ffffff; stroke-linejoin: miter"/>
    </g>
   </g>
   <g id="line2d_76">
    <path d="M 694.756391 118.078298 
L 727.292587 118.078298 
" clip-path="url(#pc8d05b4c3d)" style="fill: none; stroke: #ffffff; stroke-width: 2.5"/>
   </g>
   <g id="line2d_77">
    <g clip-path="url(#pc8d05b4c3d)">
     <use xlink:href="#m4fc58ca98a" x="711.024489" y="118.078298" style="fill: #2c3e50; stroke: #ffffff; stroke-linejoin: miter"/>
    </g>
   </g>
   <g id="patch_12">
    <path d="M 110.35625 329.706714 
L 110.35625 52.56274 
" style="fill: none; stroke: #ffffff; stroke-width: 1.25; stroke-linejoin: miter; stroke-linecap: square"/>
   </g>
   <g id="patch_13">
    <path d="M 986.330765 329.706714 
L 986.330765 52.56274 
" style="fill: none; stroke: #ffffff; stroke-width: 1.25; stroke-linejoin: miter; stroke-linecap: square"/>
   </g>
   <g id="patch_14">
    <path d="M 110.35625 329.706714 
L 986.330765 329.706714 
" style="fill: none; stroke: #ffffff; stroke-width: 1.25; stroke-linejoin: miter; stroke-linecap: square"/>
   </g>
   <g id="patch_15">
    <path d="M 110.35625 52.56274 
L 986.330765 52.56274 
" style="fill: none; stroke: #ffffff; stroke-width: 1.25; stroke-linejoin: miter; stroke-linecap: square"/>
   </g>
   <g id="text_3">
    <g id="patch_16">
     <path d="M 904.011275 321.078075 
L 968.811275 321.078075 
Q 976.811275 321.078075 976.811275 313.078075 
L 976.811275 297.593075 
Q 976.811275 289.593075 968.811275 289.593075 
L 904.011275 289.593075 
Q 896.011275 289.593075 896.011275 297.593075 
L 896.011275 313.078075 
Q 896.011275 321.078075 904.011275 321.078075 
z
" style="fill: #2c3e50; opacity: 0.95; stroke: #7f8c8d; stroke-width: 1.5; stroke-linejoin: miter"/>
    </g>
    <!-- $n_{max}=3$ -->
    <g style="fill: #ffffff" transform="translate(904.011275 309.750575) scale(0.16 -0.16)">
     <defs>
      <path id="DejaVuSans-Oblique-6e" d="M 3566 2113 
L 3156 0 
L 2578 0 
L 2988 2091 
Q 3016 2238 3031 2350 
Q 3047 2463 3047 2528 
Q 3047 2791 2881 2937 
Q 2716 3084 2419 3084 
Q 1956 3084 1622 2776 
Q 1288 2469 1184 1941 
L 800 0 
L 225 0 
L 903 3500 
L 1478 3500 
L 1363 2950 
Q 1603 3253 1940 3418 
Q 2278 3584 2650 3584 
Q 3113 3584 3367 3334 
Q 3622 3084 3622 2631 
Q 3622 2519 3608 2391 
Q 3594 2263 3566 2113 
z
" transform="scale(0.015625)"/>
      <path id="DejaVuSans-Oblique-6d" d="M 5747 2113 
L 5338 0 
L 4763 0 
L 5166 2094 
Q 5191 2228 5203 2325 
Q 5216 2422 5216 2491 
Q 5216 2772 5059 2928 
Q 4903 3084 4622 3084 
Q 4203 3084 3875 2770 
Q 3547 2456 3450 1953 
L 3066 0 
L 2491 0 
L 2900 2094 
Q 2925 2209 2937 2307 
Q 2950 2406 2950 2484 
Q 2950 2769 2794 2926 
Q 2638 3084 2363 3084 
Q 1938 3084 1609 2770 
Q 1281 2456 1184 1953 
L 800 0 
L 225 0 
L 909 3500 
L 1484 3500 
L 1375 2956 
Q 1609 3263 1923 3423 
Q 2238 3584 2597 3584 
Q 2978 3584 3223 3384 
Q 3469 3184 3519 2828 
Q 3781 3197 4126 3390 
Q 4472 3584 4856 3584 
Q 5306 3584 5551 3325 
Q 5797 3066 5797 2591 
Q 5797 2488 5784 2364 
Q 5772 2241 5747 2113 
z
" transform="scale(0.015625)"/>
      <path id="DejaVuSans-Oblique-61" d="M 3438 1997 
L 3047 0 
L 2472 0 
L 2578 531 
Q 2325 219 2001 64 
Q 1678 -91 1281 -91 
Q 834 -91 548 182 
Q 263 456 263 884 
Q 263 1497 752 1853 
Q 1241 2209 2100 2209 
L 2900 2209 
L 2931 2363 
Q 2938 2388 2941 2417 
Q 2944 2447 2944 2509 
Q 2944 2788 2717 2942 
Q 2491 3097 2081 3097 
Q 1800 3097 1504 3025 
Q 1209 2953 897 2809 
L 997 3341 
Q 1322 3463 1633 3523 
Q 1944 3584 2234 3584 
Q 2853 3584 3176 3315 
Q 3500 3047 3500 2534 
Q 3500 2431 3484 2292 
Q 3469 2153 3438 1997 
z
M 2816 1759 
L 2241 1759 
Q 1534 1759 1195 1570 
Q 856 1381 856 984 
Q 856 709 1029 553 
Q 1203 397 1509 397 
Q 1978 397 2328 733 
Q 2678 1069 2791 1631 
L 2816 1759 
z
" transform="scale(0.015625)"/>
      <path id="DejaVuSans-Oblique-78" d="M 3841 3500 
L 2234 1784 
L 3219 0 
L 2559 0 
L 1819 1388 
L 531 0 
L -166 0 
L 1556 1844 
L 641 3500 
L 1300 3500 
L 1972 2234 
L 3144 3500 
L 3841 3500 
z
" transform="scale(0.015625)"/>
      <path id="DejaVuSans-3d" d="M 678 2906 
L 4684 2906 
L 4684 2381 
L 678 2381 
L 678 2906 
z
M 678 1631 
L 4684 1631 
L 4684 1100 
L 678 1100 
L 678 1631 
z
" transform="scale(0.015625)"/>
      <path id="DejaVuSans-33" d="M 2597 2516 
Q 3050 2419 3304 2112 
Q 3559 1806 3559 1356 
Q 3559 666 3084 287 
Q 2609 -91 1734 -91 
Q 1441 -91 1130 -33 
Q 819 25 488 141 
L 488 750 
Q 750 597 1062 519 
Q 1375 441 1716 441 
Q 2309 441 2620 675 
Q 2931 909 2931 1356 
Q 2931 1769 2642 2001 
Q 2353 2234 1838 2234 
L 1294 2234 
L 1294 2753 
L 1863 2753 
Q 2328 2753 2575 2939 
Q 2822 3125 2822 3475 
Q 2822 3834 2567 4026 
Q 2313 4219 1838 4219 
Q 1578 4219 1281 4162 
Q 984 4106 628 3988 
L 628 4550 
Q 988 4650 1302 4700 
Q 1616 4750 1894 4750 
Q 2613 4750 3031 4423 
Q 3450 4097 3450 3541 
Q 3450 3153 3228 2886 
Q 3006 2619 2597 2516 
z
" transform="scale(0.015625)"/>
     </defs>
     <use xlink:href="#DejaVuSans-Oblique-6e" transform="translate(0 0.78125)"/>
     <use xlink:href="#DejaVuSans-Oblique-6d" transform="translate(63.378906 -15.625) scale(0.7)"/>
     <use xlink:href="#DejaVuSans-Oblique-61" transform="translate(131.567383 -15.625) scale(0.7)"/>
     <use xlink:href="#DejaVuSans-Oblique-78" transform="translate(174.462891 -15.625) scale(0.7)"/>
     <use xlink:href="#DejaVuSans-3d" transform="translate(238.105469 0.78125)"/>
     <use xlink:href="#DejaVuSans-33" transform="translate(341.376953 0.78125)"/>
    </g>
   </g>
   <g id="legend_1">
    <g id="patch_17">
     <path d="M 835.445765 161.30274 
L 977.130765 161.30274 
Q 980.330765 161.30274 980.330765 158.10274 
L 980.330765 65.76274 
Q 980.330765 62.56274 977.130765 62.56274 
L 835.445765 62.56274 
Q 832.245765 62.56274 832.245765 65.76274 
L 832.245765 158.10274 
Q 832.245765 161.30274 835.445765 161.30274 
z
" style="opacity: 0.5; stroke: #000000; stroke-linejoin: miter"/>
    </g>
    <g id="patch_18">
     <path d="M 833.445765 159.30274 
L 975.130765 159.30274 
Q 978.330765 159.30274 978.330765 156.10274 
L 978.330765 63.76274 
Q 978.330765 60.56274 975.130765 60.56274 
L 833.445765 60.56274 
Q 830.245765 60.56274 830.245765 63.76274 
L 830.245765 156.10274 
Q 830.245765 159.30274 833.445765 159.30274 
z
" style="opacity: 0.95; stroke: #cccccc; stroke-linejoin: miter"/>
    </g>
    <g id="patch_19">
     <path d="M 836.645765 79.12024 
L 868.645765 79.12024 
L 868.645765 67.92024 
L 836.645765 67.92024 
z
" style="fill: #d1d1d1; opacity: 0.8; stroke: #000000; stroke-width: 0.5; stroke-linejoin: miter"/>
    </g>
    <g id="text_4">
     <!-- Noise: 0.0 -->
     <g style="fill: #ffffff" transform="translate(881.445765 79.12024) scale(0.16 -0.16)">
      <defs>
       <path id="DejaVuSans-4e" d="M 628 4666 
L 1478 4666 
L 3547 763 
L 3547 4666 
L 4159 4666 
L 4159 0 
L 3309 0 
L 1241 3903 
L 1241 0 
L 628 0 
L 628 4666 
z
" transform="scale(0.015625)"/>
       <path id="DejaVuSans-6f" d="M 1959 3097 
Q 1497 3097 1228 2736 
Q 959 2375 959 1747 
Q 959 1119 1226 758 
Q 1494 397 1959 397 
Q 2419 397 2687 759 
Q 2956 1122 2956 1747 
Q 2956 2369 2687 2733 
Q 2419 3097 1959 3097 
z
M 1959 3584 
Q 2709 3584 3137 3096 
Q 3566 2609 3566 1747 
Q 3566 888 3137 398 
Q 2709 -91 1959 -91 
Q 1206 -91 779 398 
Q 353 888 353 1747 
Q 353 2609 779 3096 
Q 1206 3584 1959 3584 
z
" transform="scale(0.015625)"/>
       <path id="DejaVuSans-69" d="M 603 3500 
L 1178 3500 
L 1178 0 
L 603 0 
L 603 3500 
z
M 603 4863 
L 1178 4863 
L 1178 4134 
L 603 4134 
L 603 4863 
z
" transform="scale(0.015625)"/>
       <path id="DejaVuSans-73" d="M 2834 3397 
L 2834 2853 
Q 2591 2978 2328 3040 
Q 2066 3103 1784 3103 
Q 1356 3103 1142 2972 
Q 928 2841 928 2578 
Q 928 2378 1081 2264 
Q 1234 2150 1697 2047 
L 1894 2003 
Q 2506 1872 2764 1633 
Q 3022 1394 3022 966 
Q 3022 478 2636 193 
Q 2250 -91 1575 -91 
Q 1294 -91 989 -36 
Q 684 19 347 128 
L 347 722 
Q 666 556 975 473 
Q 1284 391 1588 391 
Q 1994 391 2212 530 
Q 2431 669 2431 922 
Q 2431 1156 2273 1281 
Q 2116 1406 1581 1522 
L 1381 1569 
Q 847 1681 609 1914 
Q 372 2147 372 2553 
Q 372 3047 722 3315 
Q 1072 3584 1716 3584 
Q 2034 3584 2315 3537 
Q 2597 3491 2834 3397 
z
" transform="scale(0.015625)"/>
       <path id="DejaVuSans-65" d="M 3597 1894 
L 3597 1613 
L 953 1613 
Q 991 1019 1311 708 
Q 1631 397 2203 397 
Q 2534 397 2845 478 
Q 3156 559 3463 722 
L 3463 178 
Q 3153 47 2828 -22 
Q 2503 -91 2169 -91 
Q 1331 -91 842 396 
Q 353 884 353 1716 
Q 353 2575 817 3079 
Q 1281 3584 2069 3584 
Q 2775 3584 3186 3129 
Q 3597 2675 3597 1894 
z
M 3022 2063 
Q 3016 2534 2758 2815 
Q 2500 3097 2075 3097 
Q 1594 3097 1305 2825 
Q 1016 2553 972 2059 
L 3022 2063 
z
" transform="scale(0.015625)"/>
       <path id="DejaVuSans-3a" d="M 750 794 
L 1409 794 
L 1409 0 
L 750 0 
L 750 794 
z
M 750 3309 
L 1409 3309 
L 1409 2516 
L 750 2516 
L 750 3309 
z
" transform="scale(0.015625)"/>
       <path id="DejaVuSans-20" transform="scale(0.015625)"/>
       <path id="DejaVuSans-2e" d="M 684 794 
L 1344 794 
L 1344 0 
L 684 0 
L 684 794 
z
" transform="scale(0.015625)"/>
      </defs>
      <use xlink:href="#DejaVuSans-4e"/>
      <use xlink:href="#DejaVuSans-6f" transform="translate(74.804688 0)"/>
      <use xlink:href="#DejaVuSans-69" transform="translate(135.986328 0)"/>
      <use xlink:href="#DejaVuSans-73" transform="translate(163.769531 0)"/>
      <use xlink:href="#DejaVuSans-65" transform="translate(215.869141 0)"/>
      <use xlink:href="#DejaVuSans-3a" transform="translate(277.392578 0)"/>
      <use xlink:href="#DejaVuSans-20" transform="translate(311.083984 0)"/>
      <use xlink:href="#DejaVuSans-30" transform="translate(342.871094 0)"/>
      <use xlink:href="#DejaVuSans-2e" transform="translate(406.494141 0)"/>
      <use xlink:href="#DejaVuSans-30" transform="translate(438.28125 0)"/>
     </g>
    </g>
    <g id="patch_20">
     <path d="M 836.645765 102.60524 
L 868.645765 102.60524 
L 868.645765 91.40524 
L 836.645765 91.40524 
z
" style="fill: #adadad; opacity: 0.8; stroke: #000000; stroke-width: 0.5; stroke-linejoin: miter"/>
    </g>
    <g id="text_5">
     <!-- Noise: 0.01 -->
     <g style="fill: #ffffff" transform="translate(881.445765 102.60524) scale(0.16 -0.16)">
      <use xlink:href="#DejaVuSans-4e"/>
      <use xlink:href="#DejaVuSans-6f" transform="translate(74.804688 0)"/>
      <use xlink:href="#DejaVuSans-69" transform="translate(135.986328 0)"/>
      <use xlink:href="#DejaVuSans-73" transform="translate(163.769531 0)"/>
      <use xlink:href="#DejaVuSans-65" transform="translate(215.869141 0)"/>
      <use xlink:href="#DejaVuSans-3a" transform="translate(277.392578 0)"/>
      <use xlink:href="#DejaVuSans-20" transform="translate(311.083984 0)"/>
      <use xlink:href="#DejaVuSans-30" transform="translate(342.871094 0)"/>
      <use xlink:href="#DejaVuSans-2e" transform="translate(406.494141 0)"/>
      <use xlink:href="#DejaVuSans-30" transform="translate(438.28125 0)"/>
      <use xlink:href="#DejaVuSans-31" transform="translate(501.904297 0)"/>
     </g>
    </g>
    <g id="patch_21">
     <path d="M 836.645765 126.09024 
L 868.645765 126.09024 
L 868.645765 114.89024 
L 836.645765 114.89024 
z
" style="fill: #8a8a8a; opacity: 0.8; stroke: #000000; stroke-width: 0.5; stroke-linejoin: miter"/>
    </g>
    <g id="text_6">
     <!-- Noise: 0.1 -->
     <g style="fill: #ffffff" transform="translate(881.445765 126.09024) scale(0.16 -0.16)">
      <use xlink:href="#DejaVuSans-4e"/>
      <use xlink:href="#DejaVuSans-6f" transform="translate(74.804688 0)"/>
      <use xlink:href="#DejaVuSans-69" transform="translate(135.986328 0)"/>
      <use xlink:href="#DejaVuSans-73" transform="translate(163.769531 0)"/>
      <use xlink:href="#DejaVuSans-65" transform="translate(215.869141 0)"/>
      <use xlink:href="#DejaVuSans-3a" transform="translate(277.392578 0)"/>
      <use xlink:href="#DejaVuSans-20" transform="translate(311.083984 0)"/>
      <use xlink:href="#DejaVuSans-30" transform="translate(342.871094 0)"/>
      <use xlink:href="#DejaVuSans-2e" transform="translate(406.494141 0)"/>
      <use xlink:href="#DejaVuSans-31" transform="translate(438.28125 0)"/>
     </g>
    </g>
    <g id="patch_22">
     <path d="M 836.645765 149.57524 
L 868.645765 149.57524 
L 868.645765 138.37524 
L 836.645765 138.37524 
z
" style="fill: #666666; opacity: 0.8; stroke: #000000; stroke-width: 0.5; stroke-linejoin: miter"/>
    </g>
    <g id="text_7">
     <!-- Noise: 0.2 -->
     <g style="fill: #ffffff" transform="translate(881.445765 149.57524) scale(0.16 -0.16)">
      <defs>
       <path id="DejaVuSans-32" d="M 1228 531 
L 3431 531 
L 3431 0 
L 469 0 
L 469 531 
Q 828 903 1448 1529 
Q 2069 2156 2228 2338 
Q 2531 2678 2651 2914 
Q 2772 3150 2772 3378 
Q 2772 3750 2511 3984 
Q 2250 4219 1831 4219 
Q 1534 4219 1204 4116 
Q 875 4013 500 3803 
L 500 4441 
Q 881 4594 1212 4672 
Q 1544 4750 1819 4750 
Q 2544 4750 2975 4387 
Q 3406 4025 3406 3419 
Q 3406 3131 3298 2873 
Q 3191 2616 2906 2266 
Q 2828 2175 2409 1742 
Q 1991 1309 1228 531 
z
" transform="scale(0.015625)"/>
      </defs>
      <use xlink:href="#DejaVuSans-4e"/>
      <use xlink:href="#DejaVuSans-6f" transform="translate(74.804688 0)"/>
      <use xlink:href="#DejaVuSans-69" transform="translate(135.986328 0)"/>
      <use xlink:href="#DejaVuSans-73" transform="translate(163.769531 0)"/>
      <use xlink:href="#DejaVuSans-65" transform="translate(215.869141 0)"/>
      <use xlink:href="#DejaVuSans-3a" transform="translate(277.392578 0)"/>
      <use xlink:href="#DejaVuSans-20" transform="translate(311.083984 0)"/>
      <use xlink:href="#DejaVuSans-30" transform="translate(342.871094 0)"/>
      <use xlink:href="#DejaVuSans-2e" transform="translate(406.494141 0)"/>
      <use xlink:href="#DejaVuSans-32" transform="translate(438.28125 0)"/>
     </g>
    </g>
   </g>
  </g>
  <g id="axes_2">
   <g id="patch_23">
    <path d="M 110.35625 621.106687 
L 986.330765 621.106687 
L 986.330765 343.962714 
L 110.35625 343.962714 
L 110.35625 621.106687 
z
" style="fill: none"/>
   </g>
   <g id="matplotlib.axis_3">
    <g id="xtick_4">
     <g id="line2d_78">
      <path d="M 235.495466 621.106687 
L 235.495466 343.962714 
" clip-path="url(#pac3c7e4927)" style="fill: none; stroke: #ffffff; stroke-linecap: round"/>
     </g>
     <g id="text_8">
      <!-- UNI-SINDy (new) -->
      <g style="fill: #ffffff" transform="translate(143.748591 647.32325) scale(0.22 -0.22)">
       <defs>
        <path id="DejaVuSans-55" d="M 556 4666 
L 1191 4666 
L 1191 1831 
Q 1191 1081 1462 751 
Q 1734 422 2344 422 
Q 2950 422 3222 751 
Q 3494 1081 3494 1831 
L 3494 4666 
L 4128 4666 
L 4128 1753 
Q 4128 841 3676 375 
Q 3225 -91 2344 -91 
Q 1459 -91 1007 375 
Q 556 841 556 1753 
L 556 4666 
z
" transform="scale(0.015625)"/>
        <path id="DejaVuSans-49" d="M 628 4666 
L 1259 4666 
L 1259 0 
L 628 0 
L 628 4666 
z
" transform="scale(0.015625)"/>
        <path id="DejaVuSans-2d" d="M 313 2009 
L 1997 2009 
L 1997 1497 
L 313 1497 
L 313 2009 
z
" transform="scale(0.015625)"/>
        <path id="DejaVuSans-53" d="M 3425 4513 
L 3425 3897 
Q 3066 4069 2747 4153 
Q 2428 4238 2131 4238 
Q 1616 4238 1336 4038 
Q 1056 3838 1056 3469 
Q 1056 3159 1242 3001 
Q 1428 2844 1947 2747 
L 2328 2669 
Q 3034 2534 3370 2195 
Q 3706 1856 3706 1288 
Q 3706 609 3251 259 
Q 2797 -91 1919 -91 
Q 1588 -91 1214 -16 
Q 841 59 441 206 
L 441 856 
Q 825 641 1194 531 
Q 1563 422 1919 422 
Q 2459 422 2753 634 
Q 3047 847 3047 1241 
Q 3047 1584 2836 1778 
Q 2625 1972 2144 2069 
L 1759 2144 
Q 1053 2284 737 2584 
Q 422 2884 422 3419 
Q 422 4038 858 4394 
Q 1294 4750 2059 4750 
Q 2388 4750 2728 4690 
Q 3069 4631 3425 4513 
z
" transform="scale(0.015625)"/>
        <path id="DejaVuSans-44" d="M 1259 4147 
L 1259 519 
L 2022 519 
Q 2988 519 3436 956 
Q 3884 1394 3884 2338 
Q 3884 3275 3436 3711 
Q 2988 4147 2022 4147 
L 1259 4147 
z
M 628 4666 
L 1925 4666 
Q 3281 4666 3915 4102 
Q 4550 3538 4550 2338 
Q 4550 1131 3912 565 
Q 3275 0 1925 0 
L 628 0 
L 628 4666 
z
" transform="scale(0.015625)"/>
        <path id="DejaVuSans-79" d="M 2059 -325 
Q 1816 -950 1584 -1140 
Q 1353 -1331 966 -1331 
L 506 -1331 
L 506 -850 
L 844 -850 
Q 1081 -850 1212 -737 
Q 1344 -625 1503 -206 
L 1606 56 
L 191 3500 
L 800 3500 
L 1894 763 
L 2988 3500 
L 3597 3500 
L 2059 -325 
z
" transform="scale(0.015625)"/>
        <path id="DejaVuSans-28" d="M 1984 4856 
Q 1566 4138 1362 3434 
Q 1159 2731 1159 2009 
Q 1159 1288 1364 580 
Q 1569 -128 1984 -844 
L 1484 -844 
Q 1016 -109 783 600 
Q 550 1309 550 2009 
Q 550 2706 781 3412 
Q 1013 4119 1484 4856 
L 1984 4856 
z
" transform="scale(0.015625)"/>
        <path id="DejaVuSans-6e" d="M 3513 2113 
L 3513 0 
L 2938 0 
L 2938 2094 
Q 2938 2591 2744 2837 
Q 2550 3084 2163 3084 
Q 1697 3084 1428 2787 
Q 1159 2491 1159 1978 
L 1159 0 
L 581 0 
L 581 3500 
L 1159 3500 
L 1159 2956 
Q 1366 3272 1645 3428 
Q 1925 3584 2291 3584 
Q 2894 3584 3203 3211 
Q 3513 2838 3513 2113 
z
" transform="scale(0.015625)"/>
        <path id="DejaVuSans-77" d="M 269 3500 
L 844 3500 
L 1563 769 
L 2278 3500 
L 2956 3500 
L 3675 769 
L 4391 3500 
L 4966 3500 
L 4050 0 
L 3372 0 
L 2619 2869 
L 1863 0 
L 1184 0 
L 269 3500 
z
" transform="scale(0.015625)"/>
        <path id="DejaVuSans-29" d="M 513 4856 
L 1013 4856 
Q 1481 4119 1714 3412 
Q 1947 2706 1947 2009 
Q 1947 1309 1714 600 
Q 1481 -109 1013 -844 
L 513 -844 
Q 928 -128 1133 580 
Q 1338 1288 1338 2009 
Q 1338 2731 1133 3434 
Q 928 4138 513 4856 
z
" transform="scale(0.015625)"/>
       </defs>
       <use xlink:href="#DejaVuSans-55"/>
       <use xlink:href="#DejaVuSans-4e" transform="translate(73.193359 0)"/>
       <use xlink:href="#DejaVuSans-49" transform="translate(147.998047 0)"/>
       <use xlink:href="#DejaVuSans-2d" transform="translate(177.490234 0)"/>
       <use xlink:href="#DejaVuSans-53" transform="translate(213.574219 0)"/>
       <use xlink:href="#DejaVuSans-49" transform="translate(277.050781 0)"/>
       <use xlink:href="#DejaVuSans-4e" transform="translate(306.542969 0)"/>
       <use xlink:href="#DejaVuSans-44" transform="translate(381.347656 0)"/>
       <use xlink:href="#DejaVuSans-79" transform="translate(458.349609 0)"/>
       <use xlink:href="#DejaVuSans-20" transform="translate(517.529297 0)"/>
       <use xlink:href="#DejaVuSans-28" transform="translate(549.316406 0)"/>
       <use xlink:href="#DejaVuSans-6e" transform="translate(588.330078 0)"/>
       <use xlink:href="#DejaVuSans-65" transform="translate(651.708984 0)"/>
       <use xlink:href="#DejaVuSans-77" transform="translate(713.232422 0)"/>
       <use xlink:href="#DejaVuSans-29" transform="translate(795.019531 0)"/>
      </g>
     </g>
    </g>
    <g id="xtick_5">
     <g id="line2d_79">
      <path d="M 485.773899 621.106687 
L 485.773899 343.962714 
" clip-path="url(#pac3c7e4927)" style="fill: none; stroke: #ffffff; stroke-linecap: round"/>
     </g>
     <g id="text_9">
      <!-- XlSINDy -->
      <g style="fill: #ffffff" transform="translate(441.744681 647.32325) scale(0.22 -0.22)">
       <defs>
        <path id="DejaVuSans-58" d="M 403 4666 
L 1081 4666 
L 2241 2931 
L 3406 4666 
L 4084 4666 
L 2584 2425 
L 4184 0 
L 3506 0 
L 2194 1984 
L 872 0 
L 191 0 
L 1856 2491 
L 403 4666 
z
" transform="scale(0.015625)"/>
        <path id="DejaVuSans-6c" d="M 603 4863 
L 1178 4863 
L 1178 0 
L 603 0 
L 603 4863 
z
" transform="scale(0.015625)"/>
       </defs>
       <use xlink:href="#DejaVuSans-58"/>
       <use xlink:href="#DejaVuSans-6c" transform="translate(68.505859 0)"/>
       <use xlink:href="#DejaVuSans-53" transform="translate(96.289062 0)"/>
       <use xlink:href="#DejaVuSans-49" transform="translate(159.765625 0)"/>
       <use xlink:href="#DejaVuSans-4e" transform="translate(189.257812 0)"/>
       <use xlink:href="#DejaVuSans-44" transform="translate(264.0625 0)"/>
       <use xlink:href="#DejaVuSans-79" transform="translate(341.064453 0)"/>
      </g>
     </g>
    </g>
    <g id="xtick_6">
     <g id="line2d_80">
      <path d="M 736.052332 621.106687 
L 736.052332 343.962714 
" clip-path="url(#pac3c7e4927)" style="fill: none; stroke: #ffffff; stroke-linecap: round"/>
     </g>
     <g id="text_10">
      <!-- SINDy -->
      <g style="fill: #ffffff" transform="translate(702.614051 647.32325) scale(0.22 -0.22)">
       <use xlink:href="#DejaVuSans-53"/>
       <use xlink:href="#DejaVuSans-49" transform="translate(63.476562 0)"/>
       <use xlink:href="#DejaVuSans-4e" transform="translate(92.96875 0)"/>
       <use xlink:href="#DejaVuSans-44" transform="translate(167.773438 0)"/>
       <use xlink:href="#DejaVuSans-79" transform="translate(244.775391 0)"/>
      </g>
     </g>
    </g>
   </g>
   <g id="matplotlib.axis_4">
    <g id="ytick_12">
     <g id="line2d_81">
      <path d="M 110.35625 620.953995 
L 986.330765 620.953995 
" clip-path="url(#pac3c7e4927)" style="fill: none; stroke-dasharray: 0.5,0.825; stroke-dashoffset: 0; stroke: #ffffff; stroke-opacity: 0.2; stroke-width: 0.5"/>
     </g>
     <g id="text_11">
      <!-- $\mathdefault{2\times10^{1}}$ -->
      <g style="fill: #ffffff" transform="translate(30.55625 628.552433) scale(0.2 -0.2)">
       <defs>
        <path id="DejaVuSans-d7" d="M 4488 3438 
L 3059 2003 
L 4488 575 
L 4116 197 
L 2681 1631 
L 1247 197 
L 878 575 
L 2303 2003 
L 878 3438 
L 1247 3816 
L 2681 2381 
L 4116 3816 
L 4488 3438 
z
" transform="scale(0.015625)"/>
       </defs>
       <use xlink:href="#DejaVuSans-32" transform="translate(0 0.684375)"/>
       <use xlink:href="#DejaVuSans-d7" transform="translate(83.105469 0.684375)"/>
       <use xlink:href="#DejaVuSans-31" transform="translate(186.376953 0.684375)"/>
       <use xlink:href="#DejaVuSans-30" transform="translate(250 0.684375)"/>
       <use xlink:href="#DejaVuSans-31" transform="translate(314.580078 38.965625) scale(0.7)"/>
      </g>
     </g>
    </g>
    <g id="ytick_13">
     <g id="line2d_82">
      <path d="M 110.35625 544.471964 
L 986.330765 544.471964 
" clip-path="url(#pac3c7e4927)" style="fill: none; stroke-dasharray: 0.5,0.825; stroke-dashoffset: 0; stroke: #ffffff; stroke-opacity: 0.2; stroke-width: 0.5"/>
     </g>
     <g id="text_12">
      <!-- $\mathdefault{3\times10^{1}}$ -->
      <g style="fill: #ffffff" transform="translate(30.55625 552.070402) scale(0.2 -0.2)">
       <use xlink:href="#DejaVuSans-33" transform="translate(0 0.684375)"/>
       <use xlink:href="#DejaVuSans-d7" transform="translate(83.105469 0.684375)"/>
       <use xlink:href="#DejaVuSans-31" transform="translate(186.376953 0.684375)"/>
       <use xlink:href="#DejaVuSans-30" transform="translate(250 0.684375)"/>
       <use xlink:href="#DejaVuSans-31" transform="translate(314.580078 38.965625) scale(0.7)"/>
      </g>
     </g>
    </g>
    <g id="ytick_14">
     <g id="line2d_83">
      <path d="M 110.35625 490.2071 
L 986.330765 490.2071 
" clip-path="url(#pac3c7e4927)" style="fill: none; stroke-dasharray: 0.5,0.825; stroke-dashoffset: 0; stroke: #ffffff; stroke-opacity: 0.2; stroke-width: 0.5"/>
     </g>
     <g id="text_13">
      <!-- $\mathdefault{4\times10^{1}}$ -->
      <g style="fill: #ffffff" transform="translate(30.55625 497.805537) scale(0.2 -0.2)">
       <defs>
        <path id="DejaVuSans-34" d="M 2419 4116 
L 825 1625 
L 2419 1625 
L 2419 4116 
z
M 2253 4666 
L 3047 4666 
L 3047 1625 
L 3713 1625 
L 3713 1100 
L 3047 1100 
L 3047 0 
L 2419 0 
L 2419 1100 
L 313 1100 
L 313 1709 
L 2253 4666 
z
" transform="scale(0.015625)"/>
       </defs>
       <use xlink:href="#DejaVuSans-34" transform="translate(0 0.684375)"/>
       <use xlink:href="#DejaVuSans-d7" transform="translate(83.105469 0.684375)"/>
       <use xlink:href="#DejaVuSans-31" transform="translate(186.376953 0.684375)"/>
       <use xlink:href="#DejaVuSans-30" transform="translate(250 0.684375)"/>
       <use xlink:href="#DejaVuSans-31" transform="translate(314.580078 38.965625) scale(0.7)"/>
      </g>
     </g>
    </g>
    <g id="ytick_15">
     <g id="line2d_84">
      <path d="M 110.35625 448.116001 
L 986.330765 448.116001 
" clip-path="url(#pac3c7e4927)" style="fill: none; stroke-dasharray: 0.5,0.825; stroke-dashoffset: 0; stroke: #ffffff; stroke-opacity: 0.2; stroke-width: 0.5"/>
     </g>
    </g>
    <g id="ytick_16">
     <g id="line2d_85">
      <path d="M 110.35625 413.725069 
L 986.330765 413.725069 
" clip-path="url(#pac3c7e4927)" style="fill: none; stroke-dasharray: 0.5,0.825; stroke-dashoffset: 0; stroke: #ffffff; stroke-opacity: 0.2; stroke-width: 0.5"/>
     </g>
     <g id="text_14">
      <!-- $\mathdefault{6\times10^{1}}$ -->
      <g style="fill: #ffffff" transform="translate(30.55625 421.323506) scale(0.2 -0.2)">
       <defs>
        <path id="DejaVuSans-36" d="M 2113 2584 
Q 1688 2584 1439 2293 
Q 1191 2003 1191 1497 
Q 1191 994 1439 701 
Q 1688 409 2113 409 
Q 2538 409 2786 701 
Q 3034 994 3034 1497 
Q 3034 2003 2786 2293 
Q 2538 2584 2113 2584 
z
M 3366 4563 
L 3366 3988 
Q 3128 4100 2886 4159 
Q 2644 4219 2406 4219 
Q 1781 4219 1451 3797 
Q 1122 3375 1075 2522 
Q 1259 2794 1537 2939 
Q 1816 3084 2150 3084 
Q 2853 3084 3261 2657 
Q 3669 2231 3669 1497 
Q 3669 778 3244 343 
Q 2819 -91 2113 -91 
Q 1303 -91 875 529 
Q 447 1150 447 2328 
Q 447 3434 972 4092 
Q 1497 4750 2381 4750 
Q 2619 4750 2861 4703 
Q 3103 4656 3366 4563 
z
" transform="scale(0.015625)"/>
       </defs>
       <use xlink:href="#DejaVuSans-36" transform="translate(0 0.684375)"/>
       <use xlink:href="#DejaVuSans-d7" transform="translate(83.105469 0.684375)"/>
       <use xlink:href="#DejaVuSans-31" transform="translate(186.376953 0.684375)"/>
       <use xlink:href="#DejaVuSans-30" transform="translate(250 0.684375)"/>
       <use xlink:href="#DejaVuSans-31" transform="translate(314.580078 38.965625) scale(0.7)"/>
      </g>
     </g>
    </g>
    <g id="ytick_17">
     <g id="line2d_86">
      <path d="M 110.35625 384.64795 
L 986.330765 384.64795 
" clip-path="url(#pac3c7e4927)" style="fill: none; stroke-dasharray: 0.5,0.825; stroke-dashoffset: 0; stroke: #ffffff; stroke-opacity: 0.2; stroke-width: 0.5"/>
     </g>
    </g>
    <g id="ytick_18">
     <g id="line2d_87">
      <path d="M 110.35625 359.460204 
L 986.330765 359.460204 
" clip-path="url(#pac3c7e4927)" style="fill: none; stroke-dasharray: 0.5,0.825; stroke-dashoffset: 0; stroke: #ffffff; stroke-opacity: 0.2; stroke-width: 0.5"/>
     </g>
    </g>
    <g id="text_15">
     <!-- Double Pendulum -->
     <g style="fill: #ffffff" transform="translate(22.396875 582.150326) rotate(-90) scale(0.2 -0.2)">
      <defs>
       <path id="DejaVuSans-Bold-44" d="M 1791 3756 
L 1791 909 
L 2222 909 
Q 2959 909 3348 1275 
Q 3738 1641 3738 2338 
Q 3738 3031 3350 3393 
Q 2963 3756 2222 3756 
L 1791 3756 
z
M 588 4666 
L 1856 4666 
Q 2919 4666 3439 4514 
Q 3959 4363 4331 4000 
Q 4659 3684 4818 3271 
Q 4978 2859 4978 2338 
Q 4978 1809 4818 1395 
Q 4659 981 4331 666 
Q 3956 303 3431 151 
Q 2906 0 1856 0 
L 588 0 
L 588 4666 
z
" transform="scale(0.015625)"/>
       <path id="DejaVuSans-Bold-75" d="M 500 1363 
L 500 3500 
L 1625 3500 
L 1625 3150 
Q 1625 2866 1622 2436 
Q 1619 2006 1619 1863 
Q 1619 1441 1641 1255 
Q 1663 1069 1716 984 
Q 1784 875 1895 815 
Q 2006 756 2150 756 
Q 2500 756 2700 1025 
Q 2900 1294 2900 1772 
L 2900 3500 
L 4019 3500 
L 4019 0 
L 2900 0 
L 2900 506 
Q 2647 200 2364 54 
Q 2081 -91 1741 -91 
Q 1134 -91 817 281 
Q 500 653 500 1363 
z
" transform="scale(0.015625)"/>
       <path id="DejaVuSans-Bold-62" d="M 2400 722 
Q 2759 722 2948 984 
Q 3138 1247 3138 1747 
Q 3138 2247 2948 2509 
Q 2759 2772 2400 2772 
Q 2041 2772 1848 2508 
Q 1656 2244 1656 1747 
Q 1656 1250 1848 986 
Q 2041 722 2400 722 
z
M 1656 2988 
Q 1888 3294 2169 3439 
Q 2450 3584 2816 3584 
Q 3463 3584 3878 3070 
Q 4294 2556 4294 1747 
Q 4294 938 3878 423 
Q 3463 -91 2816 -91 
Q 2450 -91 2169 54 
Q 1888 200 1656 506 
L 1656 0 
L 538 0 
L 538 4863 
L 1656 4863 
L 1656 2988 
z
" transform="scale(0.015625)"/>
       <path id="DejaVuSans-Bold-20" transform="scale(0.015625)"/>
       <path id="DejaVuSans-Bold-50" d="M 588 4666 
L 2584 4666 
Q 3475 4666 3951 4270 
Q 4428 3875 4428 3144 
Q 4428 2409 3951 2014 
Q 3475 1619 2584 1619 
L 1791 1619 
L 1791 0 
L 588 0 
L 588 4666 
z
M 1791 3794 
L 1791 2491 
L 2456 2491 
Q 2806 2491 2997 2661 
Q 3188 2831 3188 3144 
Q 3188 3456 2997 3625 
Q 2806 3794 2456 3794 
L 1791 3794 
z
" transform="scale(0.015625)"/>
       <path id="DejaVuSans-Bold-6e" d="M 4056 2131 
L 4056 0 
L 2931 0 
L 2931 347 
L 2931 1631 
Q 2931 2084 2911 2256 
Q 2891 2428 2841 2509 
Q 2775 2619 2662 2680 
Q 2550 2741 2406 2741 
Q 2056 2741 1856 2470 
Q 1656 2200 1656 1722 
L 1656 0 
L 538 0 
L 538 3500 
L 1656 3500 
L 1656 2988 
Q 1909 3294 2193 3439 
Q 2478 3584 2822 3584 
Q 3428 3584 3742 3212 
Q 4056 2841 4056 2131 
z
" transform="scale(0.015625)"/>
       <path id="DejaVuSans-Bold-64" d="M 2919 2988 
L 2919 4863 
L 4044 4863 
L 4044 0 
L 2919 0 
L 2919 506 
Q 2688 197 2409 53 
Q 2131 -91 1766 -91 
Q 1119 -91 703 423 
Q 288 938 288 1747 
Q 288 2556 703 3070 
Q 1119 3584 1766 3584 
Q 2128 3584 2408 3439 
Q 2688 3294 2919 2988 
z
M 2181 722 
Q 2541 722 2730 984 
Q 2919 1247 2919 1747 
Q 2919 2247 2730 2509 
Q 2541 2772 2181 2772 
Q 1825 2772 1636 2509 
Q 1447 2247 1447 1747 
Q 1447 1247 1636 984 
Q 1825 722 2181 722 
z
" transform="scale(0.015625)"/>
       <path id="DejaVuSans-Bold-6d" d="M 3781 2919 
Q 3994 3244 4286 3414 
Q 4578 3584 4928 3584 
Q 5531 3584 5847 3212 
Q 6163 2841 6163 2131 
L 6163 0 
L 5038 0 
L 5038 1825 
Q 5041 1866 5042 1909 
Q 5044 1953 5044 2034 
Q 5044 2406 4934 2573 
Q 4825 2741 4581 2741 
Q 4263 2741 4089 2478 
Q 3916 2216 3909 1719 
L 3909 0 
L 2784 0 
L 2784 1825 
Q 2784 2406 2684 2573 
Q 2584 2741 2328 2741 
Q 2006 2741 1831 2477 
Q 1656 2213 1656 1722 
L 1656 0 
L 531 0 
L 531 3500 
L 1656 3500 
L 1656 2988 
Q 1863 3284 2130 3434 
Q 2397 3584 2719 3584 
Q 3081 3584 3359 3409 
Q 3638 3234 3781 2919 
z
" transform="scale(0.015625)"/>
      </defs>
      <use xlink:href="#DejaVuSans-Bold-44"/>
      <use xlink:href="#DejaVuSans-Bold-6f" transform="translate(83.007812 0)"/>
      <use xlink:href="#DejaVuSans-Bold-75" transform="translate(151.708984 0)"/>
      <use xlink:href="#DejaVuSans-Bold-62" transform="translate(222.900391 0)"/>
      <use xlink:href="#DejaVuSans-Bold-6c" transform="translate(294.482422 0)"/>
      <use xlink:href="#DejaVuSans-Bold-65" transform="translate(328.759766 0)"/>
      <use xlink:href="#DejaVuSans-Bold-20" transform="translate(396.582031 0)"/>
      <use xlink:href="#DejaVuSans-Bold-50" transform="translate(431.396484 0)"/>
      <use xlink:href="#DejaVuSans-Bold-65" transform="translate(504.6875 0)"/>
      <use xlink:href="#DejaVuSans-Bold-6e" transform="translate(572.509766 0)"/>
      <use xlink:href="#DejaVuSans-Bold-64" transform="translate(643.701172 0)"/>
      <use xlink:href="#DejaVuSans-Bold-75" transform="translate(715.283203 0)"/>
      <use xlink:href="#DejaVuSans-Bold-6c" transform="translate(786.474609 0)"/>
      <use xlink:href="#DejaVuSans-Bold-75" transform="translate(820.751953 0)"/>
      <use xlink:href="#DejaVuSans-Bold-6d" transform="translate(891.943359 0)"/>
     </g>
    </g>
   </g>
   <g id="patch_24">
    <path d="M 144.143838 567.17439 
L 176.680035 567.17439 
L 176.680035 538.612515 
L 144.143838 538.612515 
L 144.143838 567.17439 
z
" clip-path="url(#pac3c7e4927)" style="fill: #c9d5e7; opacity: 0.75; stroke: #2c3e50; stroke-width: 1.2; stroke-linejoin: miter"/>
   </g>
   <g id="line2d_88">
    <path d="M 160.411937 567.17439 
L 160.411937 583.260012 
" clip-path="url(#pac3c7e4927)" style="fill: none; stroke: #ffffff; stroke-width: 1.5; stroke-linecap: round"/>
   </g>
   <g id="line2d_89">
    <path d="M 160.411937 538.612515 
L 160.411937 525.805027 
" clip-path="url(#pac3c7e4927)" style="fill: none; stroke: #ffffff; stroke-width: 1.5; stroke-linecap: round"/>
   </g>
   <g id="line2d_90">
    <path d="M 152.277888 583.260012 
L 168.545986 583.260012 
" clip-path="url(#pac3c7e4927)" style="fill: none; stroke: #ffffff; stroke-width: 1.5; stroke-linecap: round"/>
   </g>
   <g id="line2d_91">
    <path d="M 152.277888 525.805027 
L 168.545986 525.805027 
" clip-path="url(#pac3c7e4927)" style="fill: none; stroke: #ffffff; stroke-width: 1.5; stroke-linecap: round"/>
   </g>
   <g id="line2d_92"/>
   <g id="patch_25">
    <path d="M 194.199525 606.843637 
L 226.735721 606.843637 
L 226.735721 603.555926 
L 194.199525 603.555926 
L 194.199525 606.843637 
z
" clip-path="url(#pac3c7e4927)" style="fill: #a0b4d5; opacity: 0.75; stroke: #2c3e50; stroke-width: 1.2; stroke-linejoin: miter"/>
   </g>
   <g id="line2d_93">
    <path d="M 210.467623 606.843637 
L 210.467623 608.509234 
" clip-path="url(#pac3c7e4927)" style="fill: none; stroke: #ffffff; stroke-width: 1.5; stroke-linecap: round"/>
   </g>
   <g id="line2d_94">
    <path d="M 210.467623 603.555926 
L 210.467623 601.933313 
" clip-path="url(#pac3c7e4927)" style="fill: none; stroke: #ffffff; stroke-width: 1.5; stroke-linecap: round"/>
   </g>
   <g id="line2d_95">
    <path d="M 202.333574 608.509234 
L 218.601672 608.509234 
" clip-path="url(#pac3c7e4927)" style="fill: none; stroke: #ffffff; stroke-width: 1.5; stroke-linecap: round"/>
   </g>
   <g id="line2d_96">
    <path d="M 202.333574 601.933313 
L 218.601672 601.933313 
" clip-path="url(#pac3c7e4927)" style="fill: none; stroke: #ffffff; stroke-width: 1.5; stroke-linecap: round"/>
   </g>
   <g id="line2d_97"/>
   <g id="patch_26">
    <path d="M 394.422271 544.636118 
L 426.958468 544.636118 
L 426.958468 503.897838 
L 394.422271 503.897838 
L 394.422271 544.636118 
z
" clip-path="url(#pac3c7e4927)" style="fill: #edcacb; opacity: 0.75; stroke: #2c3e50; stroke-width: 1.2; stroke-linejoin: miter"/>
   </g>
   <g id="line2d_98">
    <path d="M 410.69037 544.636118 
L 410.69037 568.863471 
" clip-path="url(#pac3c7e4927)" style="fill: none; stroke: #ffffff; stroke-width: 1.5; stroke-linecap: round"/>
   </g>
   <g id="line2d_99">
    <path d="M 410.69037 503.897838 
L 410.69037 486.414028 
" clip-path="url(#pac3c7e4927)" style="fill: none; stroke: #ffffff; stroke-width: 1.5; stroke-linecap: round"/>
   </g>
   <g id="line2d_100">
    <path d="M 402.55632 568.863471 
L 418.824419 568.863471 
" clip-path="url(#pac3c7e4927)" style="fill: none; stroke: #ffffff; stroke-width: 1.5; stroke-linecap: round"/>
   </g>
   <g id="line2d_101">
    <path d="M 402.55632 486.414028 
L 418.824419 486.414028 
" clip-path="url(#pac3c7e4927)" style="fill: none; stroke: #ffffff; stroke-width: 1.5; stroke-linecap: round"/>
   </g>
   <g id="line2d_102"/>
   <g id="patch_27">
    <path d="M 444.477958 448.976588 
L 477.014154 448.976588 
L 477.014154 382.636523 
L 444.477958 382.636523 
L 444.477958 448.976588 
z
" clip-path="url(#pac3c7e4927)" style="fill: #e0a1a3; opacity: 0.75; stroke: #2c3e50; stroke-width: 1.2; stroke-linejoin: miter"/>
   </g>
   <g id="line2d_103">
    <path d="M 460.746056 448.976588 
L 460.746056 493.617078 
" clip-path="url(#pac3c7e4927)" style="fill: none; stroke: #ffffff; stroke-width: 1.5; stroke-linecap: round"/>
   </g>
   <g id="line2d_104">
    <path d="M 460.746056 382.636523 
L 460.746056 356.560167 
" clip-path="url(#pac3c7e4927)" style="fill: none; stroke: #ffffff; stroke-width: 1.5; stroke-linecap: round"/>
   </g>
   <g id="line2d_105">
    <path d="M 452.612007 493.617078 
L 468.880105 493.617078 
" clip-path="url(#pac3c7e4927)" style="fill: none; stroke: #ffffff; stroke-width: 1.5; stroke-linecap: round"/>
   </g>
   <g id="line2d_106">
    <path d="M 452.612007 356.560167 
L 468.880105 356.560167 
" clip-path="url(#pac3c7e4927)" style="fill: none; stroke: #ffffff; stroke-width: 1.5; stroke-linecap: round"/>
   </g>
   <g id="line2d_107"/>
   <g id="line2d_108">
    <path d="M 144.143838 552.353366 
L 176.680035 552.353366 
" clip-path="url(#pac3c7e4927)" style="fill: none; stroke: #ffffff; stroke-width: 2.5"/>
   </g>
   <g id="line2d_109">
    <g clip-path="url(#pac3c7e4927)">
     <use xlink:href="#m4fc58ca98a" x="160.411937" y="552.353366" style="fill: #2c3e50; stroke: #ffffff; stroke-linejoin: miter"/>
    </g>
   </g>
   <g id="line2d_110">
    <path d="M 194.199525 605.192619 
L 226.735721 605.192619 
" clip-path="url(#pac3c7e4927)" style="fill: none; stroke: #ffffff; stroke-width: 2.5"/>
   </g>
   <g id="line2d_111">
    <g clip-path="url(#pac3c7e4927)">
     <use xlink:href="#m4fc58ca98a" x="210.467623" y="605.192619" style="fill: #2c3e50; stroke: #ffffff; stroke-linejoin: miter"/>
    </g>
   </g>
   <g id="line2d_112">
    <path d="M 394.422271 523.169319 
L 426.958468 523.169319 
" clip-path="url(#pac3c7e4927)" style="fill: none; stroke: #ffffff; stroke-width: 2.5"/>
   </g>
   <g id="line2d_113">
    <g clip-path="url(#pac3c7e4927)">
     <use xlink:href="#m4fc58ca98a" x="410.69037" y="523.169319" style="fill: #2c3e50; stroke: #ffffff; stroke-linejoin: miter"/>
    </g>
   </g>
   <g id="line2d_114">
    <path d="M 444.477958 412.905004 
L 477.014154 412.905004 
" clip-path="url(#pac3c7e4927)" style="fill: none; stroke: #ffffff; stroke-width: 2.5"/>
   </g>
   <g id="line2d_115">
    <g clip-path="url(#pac3c7e4927)">
     <use xlink:href="#m4fc58ca98a" x="460.746056" y="412.905004" style="fill: #2c3e50; stroke: #ffffff; stroke-linejoin: miter"/>
    </g>
   </g>
   <g id="patch_28">
    <path d="M 110.35625 621.106687 
L 110.35625 343.962714 
" style="fill: none; stroke: #ffffff; stroke-width: 1.25; stroke-linejoin: miter; stroke-linecap: square"/>
   </g>
   <g id="patch_29">
    <path d="M 986.330765 621.106687 
L 986.330765 343.962714 
" style="fill: none; stroke: #ffffff; stroke-width: 1.25; stroke-linejoin: miter; stroke-linecap: square"/>
   </g>
   <g id="patch_30">
    <path d="M 110.35625 621.106687 
L 986.330765 621.106687 
" style="fill: none; stroke: #ffffff; stroke-width: 1.25; stroke-linejoin: miter; stroke-linecap: square"/>
   </g>
   <g id="patch_31">
    <path d="M 110.35625 343.962714 
L 986.330765 343.962714 
" style="fill: none; stroke: #ffffff; stroke-width: 1.25; stroke-linejoin: miter; stroke-linecap: square"/>
   </g>
   <g id="text_16">
    <g id="patch_32">
     <path d="M 904.011275 612.478049 
L 968.811275 612.478049 
Q 976.811275 612.478049 976.811275 604.478049 
L 976.811275 588.993049 
Q 976.811275 580.993049 968.811275 580.993049 
L 904.011275 580.993049 
Q 896.011275 580.993049 896.011275 588.993049 
L 896.011275 604.478049 
Q 896.011275 612.478049 904.011275 612.478049 
z
" style="fill: #2c3e50; opacity: 0.95; stroke: #7f8c8d; stroke-width: 1.5; stroke-linejoin: miter"/>
    </g>
    <!-- $n_{max}=2$ -->
    <g style="fill: #ffffff" transform="translate(904.011275 601.150549) scale(0.16 -0.16)">
     <use xlink:href="#DejaVuSans-Oblique-6e" transform="translate(0 0.78125)"/>
     <use xlink:href="#DejaVuSans-Oblique-6d" transform="translate(63.378906 -15.625) scale(0.7)"/>
     <use xlink:href="#DejaVuSans-Oblique-61" transform="translate(131.567383 -15.625) scale(0.7)"/>
     <use xlink:href="#DejaVuSans-Oblique-78" transform="translate(174.462891 -15.625) scale(0.7)"/>
     <use xlink:href="#DejaVuSans-3d" transform="translate(238.105469 0.78125)"/>
     <use xlink:href="#DejaVuSans-32" transform="translate(341.376953 0.78125)"/>
    </g>
   </g>
  </g>
  <g id="text_17">
   <!-- Validation Error Comparison (Log Scale) -->
   <g style="fill: #ffffff" transform="translate(270.803953 22.396875) scale(0.2 -0.2)">
    <defs>
     <path id="DejaVuSans-Bold-56" d="M 31 4666 
L 1241 4666 
L 2478 1222 
L 3713 4666 
L 4922 4666 
L 3194 0 
L 1759 0 
L 31 4666 
z
" transform="scale(0.015625)"/>
     <path id="DejaVuSans-Bold-69" d="M 538 3500 
L 1656 3500 
L 1656 0 
L 538 0 
L 538 3500 
z
M 538 4863 
L 1656 4863 
L 1656 3950 
L 538 3950 
L 538 4863 
z
" transform="scale(0.015625)"/>
     <path id="DejaVuSans-Bold-45" d="M 588 4666 
L 3834 4666 
L 3834 3756 
L 1791 3756 
L 1791 2888 
L 3713 2888 
L 3713 1978 
L 1791 1978 
L 1791 909 
L 3903 909 
L 3903 0 
L 588 0 
L 588 4666 
z
" transform="scale(0.015625)"/>
     <path id="DejaVuSans-Bold-73" d="M 3272 3391 
L 3272 2541 
Q 2913 2691 2578 2766 
Q 2244 2841 1947 2841 
Q 1628 2841 1473 2761 
Q 1319 2681 1319 2516 
Q 1319 2381 1436 2309 
Q 1553 2238 1856 2203 
L 2053 2175 
Q 2913 2066 3209 1816 
Q 3506 1566 3506 1031 
Q 3506 472 3093 190 
Q 2681 -91 1863 -91 
Q 1516 -91 1145 -36 
Q 775 19 384 128 
L 384 978 
Q 719 816 1070 734 
Q 1422 653 1784 653 
Q 2113 653 2278 743 
Q 2444 834 2444 1013 
Q 2444 1163 2330 1236 
Q 2216 1309 1875 1350 
L 1678 1375 
Q 931 1469 631 1722 
Q 331 1975 331 2491 
Q 331 3047 712 3315 
Q 1094 3584 1881 3584 
Q 2191 3584 2531 3537 
Q 2872 3491 3272 3391 
z
" transform="scale(0.015625)"/>
     <path id="DejaVuSans-Bold-28" d="M 2413 -844 
L 1484 -844 
Q 1006 -72 778 623 
Q 550 1319 550 2003 
Q 550 2688 779 3389 
Q 1009 4091 1484 4856 
L 2413 4856 
Q 2013 4116 1813 3408 
Q 1613 2700 1613 2009 
Q 1613 1319 1811 609 
Q 2009 -100 2413 -844 
z
" transform="scale(0.015625)"/>
     <path id="DejaVuSans-Bold-4c" d="M 588 4666 
L 1791 4666 
L 1791 909 
L 3903 909 
L 3903 0 
L 588 0 
L 588 4666 
z
" transform="scale(0.015625)"/>
     <path id="DejaVuSans-Bold-67" d="M 2919 594 
Q 2688 288 2409 144 
Q 2131 0 1766 0 
Q 1125 0 706 504 
Q 288 1009 288 1791 
Q 288 2575 706 3076 
Q 1125 3578 1766 3578 
Q 2131 3578 2409 3434 
Q 2688 3291 2919 2981 
L 2919 3500 
L 4044 3500 
L 4044 353 
Q 4044 -491 3511 -936 
Q 2978 -1381 1966 -1381 
Q 1638 -1381 1331 -1331 
Q 1025 -1281 716 -1178 
L 716 -306 
Q 1009 -475 1290 -558 
Q 1572 -641 1856 -641 
Q 2406 -641 2662 -400 
Q 2919 -159 2919 353 
L 2919 594 
z
M 2181 2772 
Q 1834 2772 1640 2515 
Q 1447 2259 1447 1791 
Q 1447 1309 1634 1061 
Q 1822 813 2181 813 
Q 2531 813 2725 1069 
Q 2919 1325 2919 1791 
Q 2919 2259 2725 2515 
Q 2531 2772 2181 2772 
z
" transform="scale(0.015625)"/>
     <path id="DejaVuSans-Bold-53" d="M 3834 4519 
L 3834 3531 
Q 3450 3703 3084 3790 
Q 2719 3878 2394 3878 
Q 1963 3878 1756 3759 
Q 1550 3641 1550 3391 
Q 1550 3203 1689 3098 
Q 1828 2994 2194 2919 
L 2706 2816 
Q 3484 2659 3812 2340 
Q 4141 2022 4141 1434 
Q 4141 663 3683 286 
Q 3225 -91 2284 -91 
Q 1841 -91 1394 -6 
Q 947 78 500 244 
L 500 1259 
Q 947 1022 1364 901 
Q 1781 781 2169 781 
Q 2563 781 2772 912 
Q 2981 1044 2981 1288 
Q 2981 1506 2839 1625 
Q 2697 1744 2272 1838 
L 1806 1941 
Q 1106 2091 782 2419 
Q 459 2747 459 3303 
Q 459 4000 909 4375 
Q 1359 4750 2203 4750 
Q 2588 4750 2994 4692 
Q 3400 4634 3834 4519 
z
" transform="scale(0.015625)"/>
     <path id="DejaVuSans-Bold-63" d="M 3366 3391 
L 3366 2478 
Q 3138 2634 2908 2709 
Q 2678 2784 2431 2784 
Q 1963 2784 1702 2511 
Q 1441 2238 1441 1747 
Q 1441 1256 1702 982 
Q 1963 709 2431 709 
Q 2694 709 2930 787 
Q 3166 866 3366 1019 
L 3366 103 
Q 3103 6 2833 -42 
Q 2563 -91 2291 -91 
Q 1344 -91 809 395 
Q 275 881 275 1747 
Q 275 2613 809 3098 
Q 1344 3584 2291 3584 
Q 2566 3584 2833 3536 
Q 3100 3488 3366 3391 
z
" transform="scale(0.015625)"/>
     <path id="DejaVuSans-Bold-29" d="M 513 -844 
Q 913 -100 1113 609 
Q 1313 1319 1313 2009 
Q 1313 2700 1113 3408 
Q 913 4116 513 4856 
L 1441 4856 
Q 1916 4091 2145 3389 
Q 2375 2688 2375 2003 
Q 2375 1319 2147 623 
Q 1919 -72 1441 -844 
L 513 -844 
z
" transform="scale(0.015625)"/>
    </defs>
    <use xlink:href="#DejaVuSans-Bold-56"/>
    <use xlink:href="#DejaVuSans-Bold-61" transform="translate(71.892578 0)"/>
    <use xlink:href="#DejaVuSans-Bold-6c" transform="translate(139.373047 0)"/>
    <use xlink:href="#DejaVuSans-Bold-69" transform="translate(173.650391 0)"/>
    <use xlink:href="#DejaVuSans-Bold-64" transform="translate(207.927734 0)"/>
    <use xlink:href="#DejaVuSans-Bold-61" transform="translate(279.509766 0)"/>
    <use xlink:href="#DejaVuSans-Bold-74" transform="translate(346.990234 0)"/>
    <use xlink:href="#DejaVuSans-Bold-69" transform="translate(394.792969 0)"/>
    <use xlink:href="#DejaVuSans-Bold-6f" transform="translate(429.070312 0)"/>
    <use xlink:href="#DejaVuSans-Bold-6e" transform="translate(497.771484 0)"/>
    <use xlink:href="#DejaVuSans-Bold-20" transform="translate(568.962891 0)"/>
    <use xlink:href="#DejaVuSans-Bold-45" transform="translate(603.777344 0)"/>
    <use xlink:href="#DejaVuSans-Bold-72" transform="translate(672.087891 0)"/>
    <use xlink:href="#DejaVuSans-Bold-72" transform="translate(721.404297 0)"/>
    <use xlink:href="#DejaVuSans-Bold-6f" transform="translate(770.720703 0)"/>
    <use xlink:href="#DejaVuSans-Bold-72" transform="translate(839.421875 0)"/>
    <use xlink:href="#DejaVuSans-Bold-20" transform="translate(888.738281 0)"/>
    <use xlink:href="#DejaVuSans-Bold-43" transform="translate(923.552734 0)"/>
    <use xlink:href="#DejaVuSans-Bold-6f" transform="translate(996.941406 0)"/>
    <use xlink:href="#DejaVuSans-Bold-6d" transform="translate(1065.642578 0)"/>
    <use xlink:href="#DejaVuSans-Bold-70" transform="translate(1169.841797 0)"/>
    <use xlink:href="#DejaVuSans-Bold-61" transform="translate(1241.423828 0)"/>
    <use xlink:href="#DejaVuSans-Bold-72" transform="translate(1308.904297 0)"/>
    <use xlink:href="#DejaVuSans-Bold-69" transform="translate(1358.220703 0)"/>
    <use xlink:href="#DejaVuSans-Bold-73" transform="translate(1392.498047 0)"/>
    <use xlink:href="#DejaVuSans-Bold-6f" transform="translate(1452.019531 0)"/>
    <use xlink:href="#DejaVuSans-Bold-6e" transform="translate(1520.720703 0)"/>
    <use xlink:href="#DejaVuSans-Bold-20" transform="translate(1591.912109 0)"/>
    <use xlink:href="#DejaVuSans-Bold-28" transform="translate(1626.726562 0)"/>
    <use xlink:href="#DejaVuSans-Bold-4c" transform="translate(1672.429688 0)"/>
    <use xlink:href="#DejaVuSans-Bold-6f" transform="translate(1736.150391 0)"/>
    <use xlink:href="#DejaVuSans-Bold-67" transform="translate(1804.851562 0)"/>
    <use xlink:href="#DejaVuSans-Bold-20" transform="translate(1876.433594 0)"/>
    <use xlink:href="#DejaVuSans-Bold-53" transform="translate(1911.248047 0)"/>
    <use xlink:href="#DejaVuSans-Bold-63" transform="translate(1983.269531 0)"/>
    <use xlink:href="#DejaVuSans-Bold-61" transform="translate(2042.546875 0)"/>
    <use xlink:href="#DejaVuSans-Bold-6c" transform="translate(2110.027344 0)"/>
    <use xlink:href="#DejaVuSans-Bold-65" transform="translate(2144.304688 0)"/>
    <use xlink:href="#DejaVuSans-Bold-29" transform="translate(2212.126953 0)"/>
   </g>
  </g>
 </g>
 <defs>
  <clipPath id="pc8d05b4c3d">
   <rect x="110.35625" y="52.56274" width="875.974515" height="277.143974"/>
  </clipPath>
  <clipPath id="pac3c7e4927">
   <rect x="110.35625" y="343.962714" width="875.974515" height="277.143974"/>
  </clipPath>
 </defs>
</svg>
