<?xml version="1.0" encoding="UTF-8" standalone="no"?>
<!-- Created with Inkscape (http://www.inkscape.org/) -->

<svg
   version="1.1"
   id="svg1"
   width="1024"
   height="1024"
   viewBox="0 0 1024 1024"
   sodipodi:docname="logo.svg"
   inkscape:version="1.4 (86a8ad7, 2024-10-11)"
   xmlns:inkscape="http://www.inkscape.org/namespaces/inkscape"
   xmlns:sodipodi="http://sodipodi.sourceforge.net/DTD/sodipodi-0.dtd"
   xmlns:xlink="http://www.w3.org/1999/xlink"
   xmlns="http://www.w3.org/2000/svg"
   xmlns:svg="http://www.w3.org/2000/svg">
  <defs
     id="defs1">
    <linearGradient
       id="linearGradient1"
       inkscape:collect="always">
      <stop
         style="stop-color:#fe9080;stop-opacity:0.99215686"
         offset="0"
         id="stop1" />
      <stop
         style="stop-color:#29a9fc;stop-opacity:0.99215686"
         offset="1"
         id="stop2" />
    </linearGradient>
    <linearGradient
       inkscape:collect="always"
       xlink:href="#linearGradient1"
       id="linearGradient2"
       x1="287.77252"
       y1="490.69229"
       x2="647.14209"
       y2="615.37164"
       gradientUnits="userSpaceOnUse"
       gradientTransform="matrix(1.102915,0,0,1.102915,-45.567398,-29.334355)" />
  </defs>
  <sodipodi:namedview
     id="namedview1"
     pagecolor="#ffffff"
     bordercolor="#000000"
     borderopacity="0.25"
     inkscape:showpageshadow="2"
     inkscape:pageopacity="0.0"
     inkscape:pagecheckerboard="0"
     inkscape:deskcolor="#d1d1d1"
     showgrid="false"
     inkscape:zoom="0.55322266"
     inkscape:cx="277.46514"
     inkscape:cy="564.87202"
     inkscape:window-width="2560"
     inkscape:window-height="1351"
     inkscape:window-x="-9"
     inkscape:window-y="-9"
     inkscape:window-maximized="1"
     inkscape:current-layer="svg1" />
  <path
     style="fill:url(#linearGradient2);fill-opacity:1;stroke-width:1.10292"
     d="M 578.70822,813.16554 C 536.81301,809.50947 487.00495,794.76941 450.25387,775.1511 401.88483,749.33097 357.47541,718.48512 320.35371,669.26014 c -7.67879,-10.18242 -13.68022,-19.0848 -34.13292,-50.63193 -15.55302,-23.98965 -27.81304,-33.08957 -52.7507,-39.15388 -8.89897,-2.16404 -20.27892,-4.14422 -44.66805,-7.77251 -37.51881,-5.58154 -81.06426,-15.05965 -81.06426,-17.64446 0,-0.4657 4.83904,-1.15559 10.75342,-1.53306 53.27227,-3.40005 105.54081,-12.84819 129.01672,-23.32125 l 6.3661,-2.84005 -3.8602,-3.34795 c -6.21913,-5.39385 -18.21883,-12.9076 -27.01729,-16.91719 -4.49368,-2.04784 -23.70383,-8.90483 -42.68925,-15.23777 C 138.8225,477.02207 122.27244,470.00434 101.15182,457.29579 86.445836,448.447 67.790216,433.69532 55.538517,421.22771 43.429384,408.90517 30.810131,393.54097 31.901698,392.4494 c 0.328708,-0.3287 3.075607,0.92706 6.10422,2.79059 8.192538,5.04091 29.844268,15.11862 41.710858,19.41416 22.782604,8.24697 50.347044,13.61411 81.512384,15.87151 41.32319,2.99314 48.11869,3.65325 58.90771,5.72217 19.46442,3.73253 35.33239,9.44968 47.07335,16.96028 3.28064,2.09861 5.96481,3.33239 5.96481,2.74172 0,-2.11421 -11.05547,-19.45679 -16.98859,-26.64979 -14.21739,-17.2364 -33.13412,-30.15399 -80.26516,-54.81037 C 124.16062,347.41131 95.544673,323.85502 73.234976,289.95953 53.767489,260.38228 42.626013,223.86211 42.682691,189.81351 c 0.0225,-13.51617 1.155925,-14.82348 4.247771,-4.89946 10.926099,35.06995 38.189014,69.83949 72.939388,93.02266 21.57767,14.39521 42.45249,24.67063 83.82154,41.26035 21.1014,8.46204 45.27325,20.21952 58.12431,28.27239 15.46107,9.68838 25.29521,17.52076 39.7594,31.66631 7.43089,7.26719 13.5107,12.93473 13.5107,12.59454 0,-0.34019 -3.49057,-6.67387 -7.75682,-14.07485 -10.40297,-18.04681 -13.28114,-23.8905 -19.73815,-40.07532 -16.14932,-40.47908 -16.41073,-73.25505 -0.8595,-107.76965 4.05119,-8.99125 17.00145,-27.74901 27.16855,-39.35218 15.91042,-18.1577 42.1763,-39.92068 67.91228,-56.26973 10.98658,-6.97934 22.71327,-13.52649 24.22747,-13.52649 2.15713,0 -0.96116,3.98082 -11.95184,15.25776 -32.15908,32.99671 -48.42318,56.35314 -57.85532,83.08446 -11.255,31.89745 -9.89931,62.31856 4.51367,101.2854 3.02899,8.18914 8.59914,23.91535 12.37812,34.94714 l 6.87089,20.0578 4.29102,-4.47035 c 6.49415,-6.76555 24.61752,-21.7858 36.61283,-30.34392 71.47493,-50.99416 149.52107,-71.47678 234.58362,-61.56468 63.97804,7.45519 123.8011,33.36378 180.0833,77.99176 26.05523,20.66003 63.44806,60.44296 93.51017,99.48723 33.27643,43.21895 53.28712,66.44256 67.88402,78.78356 4.7807,4.04185 8.6935,7.88271 8.6951,8.53523 0,0.6525 -1.3037,2.38959 -2.9008,3.8602 -12.5135,11.52287 -31.14704,40.919 -68.12854,83.00253 -68.98687,78.50441 -97.64974,103.1477 -145.10821,134.34219 -40.81204,26.82579 -81.67602,41.91516 -128.27299,47.3659 -12.65443,1.48026 -49.69151,2.00218 -62.53645,0.88125 z m 65.04626,-34.61274 c 57.66205,-8.3038 102.68616,-42.02813 146.77544,-74.74846 29.27988,-21.72971 47.05902,-39.35204 75.74893,-78.91468 27.54505,-37.9839 26.94576,-32.80713 46.17674,-66.97729 l 7.15704,-12.71685 -12.89098,-19.13039 C 897.11208,511.80441 880.94376,491.9538 861.1783,467.5803 812.09383,407.05246 764.87831,376.43423 721.25226,352.65365 c -29.02231,-15.82007 -64.24144,-26.77574 -99.14891,-30.84237 -18.56907,-2.16326 -56.41119,-1.5472 -74.30248,1.20962 -66.21244,10.20249 -128.39399,45.95867 -182.3736,104.87007 -38.25364,41.74865 -58.33565,74.08508 -63.57759,102.3739 -1.69055,9.1233 -0.91242,25.90141 1.64286,35.42342 14.75931,54.99916 76.324,128.13429 141.87075,168.53389 42.48985,26.18853 88.99624,41.36813 142.14252,46.39505 9.43235,0.89217 44.70827,-0.40252 56.24867,-2.06443 z"
     id="path1"
     sodipodi:nodetypes="ssssssssscsssssssssssssssssssssssssssssssscsssssscssssssasscsssssssssss" />
  <path
     d="m 620.04181,706.57665 c 0.6066,-0.60947 5.46092,-2.69398 10.78739,-4.63223 50.1639,-18.25428 92.10084,-47.29571 129.38238,-89.59759 10.17703,-11.54746 32.48864,-40.2488 35.5737,-45.76151 0.60992,-1.08987 1.46597,-1.62454 1.90235,-1.18816 2.21087,2.21086 -13.07027,33.55608 -25.68187,52.67959 -11.7405,17.80262 -22.9046,31.32458 -36.94287,44.74526 -24.87766,23.7832 -46.44321,35.45059 -76.08842,41.16532 -12.99832,2.50571 -40.68195,4.34687 -38.93266,2.58932 z"
     style="fill:#31b3fc;fill-opacity:0.996078;stroke-width:1.10292"
     id="path1-8" />
  <path
     d="m 537.32318,691.97184 c -40.07144,-4.28498 -78.97816,-20.8818 -116.35753,-49.63578 -26.56415,-20.4344 -63.74091,-62.70223 -86.47384,-98.31575 l -1.86288,-2.91841 10.25372,-9.10695 c 5.63955,-5.00881 18.19471,-16.86347 27.90036,-26.34366 45.07976,-44.03261 73.52988,-65.92119 109.293,-84.0864 69.89089,-35.49976 136.67764,-37.69607 201.5583,-6.62832 32.84288,15.72663 56.08216,33.75607 87.92787,68.21599 26.88618,29.09325 46.52332,45.21864 69.22549,56.84576 l 11.39784,5.8375 -11.28043,0.31606 c -20.25086,0.56739 -36.44566,-4.50181 -55.72359,-17.44229 -8.34917,-5.60445 -32.50744,-24.22768 -50.0909,-38.61428 -13.53869,-11.07722 -41.43845,-29.02892 -57.1401,-36.76597 -17.95217,-8.84602 -37.81906,-15.44329 -55.68566,-18.49177 -18.94512,-3.23249 -51.46644,-2.48705 -70.25813,1.61042 -39.32373,8.57444 -78.13517,29.57441 -119.8001,64.82106 -33.81913,28.60946 -46.65135,39.35542 -49.33505,41.31417 l -2.9453,2.14968 6.60701,11.43131 c 13.39865,23.182 25.76711,40.03253 40.97031,55.81702 41.63115,43.22294 91.27486,68.34661 152.62746,77.24166 4.43422,0.64287 5.05659,0.9731 3.17686,1.68558 -3.63354,1.37724 -34.15015,2.11501 -43.98471,1.06337 z"
     style="fill:#3272e0;fill-opacity:0.996078;stroke-width:1.10292"
     id="path1-23" />
  <path
     d="m 587.19622,630.3217 c -5.67099,-39.11816 -18.10406,-58.63877 -43.80701,-68.77946 -8.32538,-3.28464 -30.97014,-8.53748 -36.80472,-8.53748 -6.25591,0 -4.7052,-1.76361 2.89009,-3.28688 30.57445,-6.13183 45.34491,-12.29885 56.51172,-23.59497 10.92508,-11.05161 16.88694,-25.27568 20.86081,-49.77074 0.9841,-6.06603 2.06321,-12.69287 2.39802,-14.72632 0.33481,-2.03344 0.81233,-3.49359 1.06116,-3.24476 0.24883,0.24881 1.21438,5.88047 2.14567,12.5148 0.93129,6.63431 2.96714,16.77991 4.52409,22.54577 9.20521,34.08955 25.75305,47.52399 68.60035,55.69354 5.63272,1.07397 10.01316,2.18084 9.73429,2.4597 -0.27887,0.27887 -6.08033,1.6874 -12.89215,3.13008 -25.39177,5.37773 -38.56909,11.54435 -49.39874,23.11724 -10.51488,11.23652 -16.06641,25.71133 -20.64991,53.84166 -1.05388,6.46795 -2.22106,11.75992 -2.59375,11.75992 -0.37267,0 -1.53365,-5.90494 -2.57992,-13.1221 z"
     style="fill:#febd52;fill-opacity:0.996078;stroke-width:1.10292"
     id="path1-2" />
</svg>
